<svg xmlns="http://www.w3.org/2000/svg" xmlns:xlink="http://www.w3.org/1999/xlink" viewBox="0 0 1152 768">
  <g class="AnimatedCS__background">
    <rect width="1152" height="768" style="fill: #193856"/>
  </g>
  <g class="AnimatedCS__buyer">
    <g class="AnimatedCS__buyer-arm-left">
      <g>
        <path d="M691.35,595.9s18-13,26.55-35.22,29-45.55,26.82-18-3.09,30,33.77,30.08,65.53,14,62.27,29.75-18.46,18.4-41.63,12.28-83.57,13.31-93.22,24Z" style="fill: #dba082"/>
        <path data-name="Shape" d="M573.41,437.42s2,135.11,13.24,135.86,118,2.27,118,2.27l8.45,70S595.6,663.9,553,655.43s-81.65-69.23-86.37-82.67S514.94,435.57,573.41,437.42Z" style="fill: #14c4b3"/>
      </g>
    </g>
    <g class="AnimatedCS__buyer-body">
      <g>
        <g>
          <path data-name="Shape" d="M323.11,768C317.82,741.54,339,593.33,339,580.1S365.47,424,369.45,412.82c7.31-20.46,57.67-10,57.67-10l107.7,15.88s42.35,5.29,45,34.4c3.36,36.9,19.09,154.12,0,314.93Z" style="fill: #14c4b3"/>
          <path d="M329,669.87s77.68,22,98.41-60.35c20.07-79.72-35.33-157.2-66.46-157.2C341.65,522.74,329,669.87,329,669.87Z" style="fill: #06a797"/>
          <path data-name="Shape" d="M573.41,437.42c10.25,12.41,19,47.44,19,103.11,0,55.41-6,155.64-6,155.64C582.39,641.65,566.41,488.57,573.41,437.42Z" style="fill: #06a797"/>
          <path data-name="Shape" d="M398.8,400.13s-29.43-3.93-56,36.77c-26.2,40.18-57,202.23,1.79,216.18C452.76,678.75,398.8,400.13,398.8,400.13Z" style="fill: #14c4b3"/>
        </g>
        <g>
          <path data-name="Shape" d="M577.17,233.42s5.29,52.93,0,79.39-15.88,63.52-74.1,60.87l-2.65,39.7,15.21,2.34s-9.57,37.14-49.27,31.85S421,426.61,421,400.14l26.46,2.65,7.94-58.22-2.65-47.64-7.94-42.34,45-47.64,95.28,5.3Z" style="fill: #dba082"/>
          <path data-name="Shape" d="M503.91,373.36s-36.54-2.92-51.15-11.69c0,0,11.69,30.69,48.87,33.49Z" style="fill: #bc8268"/>
          <path data-name="Shape" d="M565.26,195.05s45-18.53,42.34,13.23-29.32,38.85-29.32,38.85l-1.11-13.71s-21.17,13.23-82,2.65c0,0-5.3,37.05-7.94,45s-10.59,5.3-10.59,0,2.65-21.17-7.94-23.81-18.52,5.29-13.23,23.81l5.29,18.53-5.29,45s-21.17,0-18.52-15.88,7.93-15.88,2.64-39.7S423.67,230.77,429,217.54s21.17-13.23,26.46-13.23,10.59-15.88,31.76-31.76,52.93-15.88,63.51-13.23S574.52,175.2,565.26,195.05Z" style="fill: #0e1e2d"/>
        </g>
      </g>
    </g>
    <g class="AnimatedCS__buyer-mouth-smile">
      <path d="M498.39,330.42c-.15,18.91,15.65,33.89,29.59,33.89,19.67,0,31.78-16,38.42-36.16C556.44,338.36,523.6,349.31,498.39,330.42Z" style="fill: #0e1e2d"/>
    </g>
    <g class="AnimatedCS__buyer-mouth-talk-1">
      <path d="M524.89,339.5c-6.12-.18-7.92,9.42-1.22,10.25,11.81,1.47,33.28-10,35.7-18.43C562,322.14,549.55,340.27,524.89,339.5Z" style="fill: #0e1e2d"/>
    </g>
    <g class="AnimatedCS__buyer-mouth-talk-2">
      <path d="M532.18,333.62c-6.11-.19-2.67,20.45,4,21.28,11.81,1.47,19.59-15.11,22-23.58C560.84,322.14,556.85,334.39,532.18,333.62Z" style="fill: #0e1e2d"/>
    </g>
    <g class="AnimatedCS__buyer-mouth-surprise">
      <ellipse cx="544.83" cy="335.78" rx="10.04" ry="6.39" transform="translate(115.84 810.71) rotate(-79.55)" style="fill: #0e1e2d"/>
    </g>
    <g class="AnimatedCS__buyer-arm-right">
      <g>
        <g>
          <polygon data-name="Shape" points="682.92 471 668.67 356.64 609.41 364.66 619.18 477.51 682.92 471" style="fill: #20ace8"/>
          <path data-name="Shape" d="M618.2,457.77l-.07,7.72s27.32-12.78,35.39-14.57c5.51-1.23,18.25-6.26,25.65-10l-4.56-36.6Z" style="fill: #006ebd"/>
          <path data-name="Shape" d="M674.61,404.35l4.56,36.6a16.89,16.89,0,0,0,7.64-7c8.75-16.31-2.57-38.54-2.57-38.54Z" style="fill: #bc8268"/>
          <path data-name="Shape" d="M618.2,457.77l-.07,7.72s-3-1.09-11,2.24C606.53,466.9,609,464,609,464S611.53,460.37,618.2,457.77Z" style="fill: #bc8268"/>
          <path data-name="Shape" d="M567.61,435.32s28.6-48,43.62-53.8c0,0-3.87,15.89,12.79,14.41s41.13-20.87,51.31-14.4,23.6,49.49-3.39,57.41-55.19,16-64.65,26.78Z" style="fill: #dba082"/>
        </g>
        <g>
          <path d="M580,506.16C502.11,612.73,426.7,712,354,656.13l26.33-61.07s40.48-51.86,102.5-82.93Z" style="fill: #06a797"/>
          <path id="Shape-14" data-name="Shape" d="M527.51,463.71c-95,118.1-217.38,150.82-173.55,192.42,25.61,24.31,75,3.94,125.33-44.37C556.17,537.93,612,468.48,612,468.48L558,428S534.86,454.57,527.51,463.71Z" style="fill: #14c4b3"/>
        </g>
      </g>
    </g>
    <g class="AnimatedCS__buyer-baloon-big">
      <g class="AnimatedCS__baloon-base">
        <path id="Shape-15" data-name="Shape" d="M682.43,274.22s19.13-18.3,14.86-43.74h0A45.49,45.49,0,0,1,651.8,185V98a45.49,45.49,0,0,1,45.49-45.49h88.4A45.49,45.49,0,0,1,831.18,98v87a45.49,45.49,0,0,1-45.49,45.49H754.82S733.58,274.22,682.43,274.22Z" style="fill: #ebf0f4"/>
      </g>
      <g class="AnimatedCS__buyer-mark-check">
        <path d="M721.56,192.72a11.12,11.12,0,0,1-7.86-3.25l-21-21a11.13,11.13,0,1,1,15.74-15.74L719,163.28C729.12,147,749.5,120.49,780.74,108A11.13,11.13,0,0,1,789,128.61c-37.5,15-57.14,57.18-57.34,57.6a11.16,11.16,0,0,1-10.13,6.51Z" style="fill: #14c4b3"/>
      </g>
      <g class="AnimatedCS__buyer-mark-question">
        <path d="M739.29,128.78c3.8-2.59,6.84-4.72,6.84-7.91,0-3.35-2.43-5.94-9-5.94a18.13,18.13,0,0,0-10.2,3.35,10.49,10.49,0,0,1-5.48,1.37,11.2,11.2,0,0,1-11.1-11.26A11,11,0,0,1,716,98.65a45,45,0,0,1,24-6.84c20.08,0,32.55,9.73,32.55,24.34,0,12.63-7.75,18.41-14.45,23.43-4.72,3.35-8.82,6.39-9.13,10.95,0,.46.15.76.15,1.22V153a11.93,11.93,0,0,1-11.41,9,10.8,10.8,0,0,1-10.65-9.28,13.53,13.53,0,0,1-.76-4.41C726.35,137.75,733.66,132.58,739.29,128.78ZM740.35,168a14.3,14.3,0,1,1-14.3,14.3A14.48,14.48,0,0,1,740.35,168Z" style="fill: #0e1e2d"/>
      </g>
    </g>
    <g class="AnimatedCS__buyer-baloon-small">
      <g>
        <path data-name="Shape" d="M622.06,345.34s8-7.69,6.24-18.37h0a19.1,19.1,0,0,1-19.1-19.09V271.37a19.1,19.1,0,0,1,19.1-19.1h83.16a19.1,19.1,0,0,1,19.1,19.1v36.51A19.1,19.1,0,0,1,711.46,327h-59S643.53,345.34,622.06,345.34Z" style="fill: #ebf0f4"/>
        <circle cx="693.34" cy="290.88" r="7.48" style="fill: #14c4b3"/>
        <circle cx="669.88" cy="290.88" r="7.48" style="fill: #14c4b3"/>
        <circle cx="646.42" cy="290.88" r="7.48" style="fill: #14c4b3"/>
      </g>
    </g>
  </g>
  <g class="AnimatedCS__cs">
    <g id="cs-cloud">
      <path id="Shape-17" data-name="Shape" d="M707.91,495.88s24.82-23.74,19.29-56.73h-30a29,29,0,0,1-29-29V156a29,29,0,0,1,29-29h327.95a29,29,0,0,1,29,29V410.17a29,29,0,0,1-29,29H801.82S774.26,495.88,707.91,495.88Z" style="fill: #ebf0f4"/>
    </g>
    <g class="AnimatedCS__cs-arm-right">
      <path d="M842.91 219.72s-85.58 32.9-89 26.32-32.18-70.73-32.18-70.73l-44.49 13.16s19.56 75.83 35.8 99.35 63.16 31.26 72.53 30.61 73.72-63.85 57.34-98.71z" fill="#006ebd"></path>
      <path d="M712.78 178a56.74 56.74 0 0 1 1-29c4.8-14.93 4-35.31-6.28-20.32s-10.84 16.65-29.74 1.43-39.35-20-44.2-10.54 1.84 17.07 16.24 23.52 33.16 34.14 33.67 43.61z" fill="#ffcaca"></path>
    </g>
    <g class="AnimatedCS__cs-body" data-name="body">
      <g>
        <g>
          <path id="Shape-20" data-name="Shape" d="M966.41,282s58.81,2.6,64.29,27.28-2.74,49.07-15.08,75.12-31.19,54.76-31.19,54.76H919.84a143.24,143.24,0,0,0,12.83-28.38C937.2,396,966.41,282,966.41,282Z" style="fill: #193856"/>
          <path id="Shape-21" data-name="Shape" d="M919.84,439.15h34.52s50.62-110.51,55.87-126.28-8.88-25.21-8.88-25.21h0A172.22,172.22,0,0,0,966.41,282s-29.22,114-33.74,128.78A142.91,142.91,0,0,1,919.84,439.15Z" style="fill: #df8a00"/>
          <path id="Shape-22" data-name="Shape" d="M955.44,232.43s52.1,6.86,58.95,21.94-.52,37.78-.52,37.78l-10.19-4.08s6.6-29.59-1.63-33.7-38.38-11-38.38-11Z" style="fill: #0e1e2d"/>
        </g>
        <g>
          <path id="Shape-23" data-name="Shape" d="M841.54,220.68c13.15-10.22,118.12,5.7,123.35,19.64S961.64,394.08,923,439.15H801.82c-19,34.76-48.09,46.39-48.09,46.39s40.49-62.78,33.38-153C787.11,332.56,773.51,273.6,841.54,220.68Z" style="fill: #20ace8"/>
          <path id="Shape-24" data-name="Shape" d="M928.3,226.38s-62.73,48.79-73.18,67.95c0,0,6.92-31.79,11.54-55.76,1.69-8.75,5.28-19.47,18.3-20h0s-10.67,16.54,3.27,18.28c15.94,2,29.43-7.12,32.14-12.27Z" style="fill: #ebf0f4"/>
          <path id="Shape-25" data-name="Shape" d="M881.15,231.63c3.39,8.73,17.51,5,17.51,5l0,8.91-10.45,5.22L882,265.21s-18.17,16.93-26.88,29.12l6.48-30.66,10.94-18.12v-8.72Z" style="fill: #193856"/>
          <path id="Shape-26" data-name="Shape" d="M778.58,351.78s-69.7-3.23-90.61,22.91,7.47,19.24,15.06,21.82,18.05-6.14,28.51-6.14,39.13-2.09,39.13-2.09Z" style="fill: #ffcaca"/>
          <path id="Shape-27" data-name="Shape" d="M954.07,231.63s23,10.43,17.79,38.31-12.61,115.31-89,125.71-113-1.79-113-1.79l7-48.79s95.83,7,106.29-17.43,29.49-89.06,45.17-101.26Z" style="fill: #006ebd"/>
        </g>
        <path id="Shape-28" data-name="Shape" d="M973.26,393.34s-91.16-5.44-113,7.93a60.24,60.24,0,0,0-27.64,37.88h24.74s4.19-23.19,33-23.19h76.07s6.85-1.41,9.6-11.31S973.26,393.34,973.26,393.34Z" style="fill: #193856"/>
        <g>
          <ellipse id="Shape-29" data-name="Shape" cx="874.29" cy="144.49" rx="22.65" ry="26.14" style="fill: #193856"/>
          <path id="Shape-30" data-name="Shape" d="M871.27,97.29s11.73,15.83,25.67,17.57S907.39,144.49,916.1,148s7,17.42,1.75,29.62-13.94,43.56,1.74,47,28,5.21,28,5.21,13.78-1.73,20.75-12.18,0-29.62-1.75-47,1.75-33.1,8.72-43.56,8.71-24.39-1.75-38.33S950,62.93,936.54,66.25s-25.66-.17-39.6-7.14S852.57,71,871.27,97.29Z" style="fill: #0e1e2d"/>
          <path id="Shape-31" data-name="Shape" d="M870.8,97.44l45.3,5.23L937,153.2l-16.43,71.19c-7.54,13-24.36,15.77-33.87,13.43-12-3-6.84-12-1.75-19.27L891.71,195c-12.2-1.75-24.45-8.72-29.62-29.63C858,148.74,870.8,97.44,870.8,97.44Z" style="fill: #ffcaca"/>
          <path id="Shape-32" data-name="Shape" d="M891.71,195l-2.66,9.26c28.61.83,35-16.69,35-16.69C904.82,196.35,899,195.19,891.71,195Z" style="fill: #edbcbc"/>
        </g>
      </g>
    </g>
    <g class="AnimatedCS__cs-mouth-talk-3">
      <path d="M895.4,173c3.64-14.15-10.38-6.82-16.73-11.81-14.93-11.71-13.51,5.57-11.09,11.69C873.61,188.15,891.49,188.15,895.4,173Z" style="fill: #193856"/>
    </g>
    <g class="AnimatedCS__cs-mouth-talk-2" data-name="mouth-talk-2">
      <path d="M868.29,168c0,9.73,6,16.52,14.1,16.52,7.2,0,10.47-4.74,10.46-11.32C892.85,165.44,868.29,156.36,868.29,168Z" style="fill: #193856"/>
    </g>
    <g class="AnimatedCS__cs-mouth-talk-1" data-name="mouth-talk-1">
      <path d="M865.36,158.63c-1.92,9.1,3.17,19.79,11.79,23.65,20.88,9.36,27.81-6,28.77-14.09C897.84,170.63,874.29,170.62,865.36,158.63Z" style="fill: #193856"/>
    </g>
    <g class="AnimatedCS__cs-headsets">
      <g>
        <path id="Shape-33" data-name="Shape" d="M932.68,67s29.76,6.07,35.5,23.94c5.26,16.35-1.22,41.57-11.68,60.74l-11.65-16.29S956.18,102.67,956.18,94s-8.49-20-33-26.55C923.19,67.4,926.56,66.08,932.68,67Z" style="fill: #df8a00"/>
        <ellipse id="Shape-34" data-name="Shape" cx="935.27" cy="160.17" rx="22.65" ry="26.14" style="fill: #193856"/>
        <ellipse id="Shape-35" data-name="Shape" cx="938.76" cy="160.17" rx="19.17" ry="26.14" style="fill: #006ebd"/>
        <path id="Shape-36" data-name="Shape" d="M920.82,176.78s-7.34,6.07-20.94,2.57-13.38-5.24-13.38-5.24,2.39-5-2.57-7.35-8-6.3-12.32.17c-3.07,4.57-2.62,6.69,3.88,10.8,8.69,5.5,8.84-.38,8.84-.38s12.84,13.09,40.62,4.59Z" style="fill: #20ace8"/>
      </g>
    </g>
    <g class="AnimatedCS__cs-baloon-cs">
      <g>
        <path id="Shape-37" data-name="Shape" d="M594.77,155.71s-8-7.69-6.24-18.36h0a19.1,19.1,0,0,0,19.1-19.1V81.74a19.1,19.1,0,0,0-19.1-19.1H505.37a19.1,19.1,0,0,0-19.1,19.1v36.51a19.1,19.1,0,0,0,19.1,19.1h59S573.29,155.71,594.77,155.71Z" style="fill: #ebf0f4"/>
        <circle cx="523.49" cy="101.25" r="7.48" style="fill: #20ace8"/>
        <circle cx="546.95" cy="101.25" r="7.48" style="fill: #20ace8"/>
        <circle cx="570.41" cy="101.25" r="7.48" style="fill: #20ace8"/>
      </g>
    </g>
  </g>
</svg>
