<svg xmlns="http://www.w3.org/2000/svg" viewBox="-350 0 1152 768">
    <g class="AnimatedPrinting__background">
      <path fill="#f3f3f3" d="M-350 0h1152v768H-350z" class="AnimatedPrinting__background"></path>
    </g>
    <g class="AnimatedPrinting__box-back">
      <g>
        <polygon points="447.26 364.52 65.7 364.52 116.6 300.74 396.36 300.74 447.26 364.52" style="fill: #ffc973" />
        <path d="M766.78,364.52l59.92-29.07A10.26,10.26,0,0,0,828.34,318L775.91,279a10.24,10.24,0,0,0-10.4-1.09l-49.63,22.79Z" transform="translate(-319.52)" style="fill: #df8a00" />
        <path d="M385.22,364.52,325.3,335.45A10.26,10.26,0,0,1,323.66,318L376.09,279a10.24,10.24,0,0,1,10.4-1.09l49.63,22.79Z" transform="translate(-319.52)" style="fill: #df8a00" />
      </g>
    </g>
    <g class="AnimatedPrinting__final-product">
      <g>
        <rect x="136.39" y="114.19" width="240.18" height="281.63" rx="13.17" style="fill: #c0c6cc" />
        <g>
          <path d="M682.92,83.14H662.24a4.39,4.39,0,0,0-1.89.43,220.46,220.46,0,0,1-84.11,20.87,3.84,3.84,0,0,1-.48,0,220.46,220.46,0,0,1-84.11-20.87,4.39,4.39,0,0,0-1.89-.43H469.08a13.17,13.17,0,0,0-13.17,13.17V377.6a13.17,13.17,0,0,0,13.17,13.17H682.92a13.17,13.17,0,0,0,13.17-13.17V96.31A13.17,13.17,0,0,0,682.92,83.14Z" transform="translate(-319.52)" style="fill: #1a2937" />
          <path d="M661.25,83.14C661.25,153.79,623.1,211,576,211s-85.25-57.22-85.25-127.87A220.31,220.31,0,0,0,576,104.45,220.31,220.31,0,0,0,661.25,83.14Z" transform="translate(-319.52)" style="fill: #263442" />
          <g class="AnimatedPrinting__final-product-logo" style="clip-path: url(#clip-path)">
            <g>
              <polygon points="229.16 276.81 164.63 407.98 293.69 407.98 229.16 276.81" style="fill: #c0c6cc" />
              <polygon points="229.16 313.2 182.53 407.98 275.79 407.98 229.16 313.2" style="fill: #ff6158" />
              <polygon points="299.87 326.74 251.41 407.98 348.33 407.98 299.87 326.74" style="fill: #ebf0f4" />
              <circle cx="309.32" cy="281.09" r="19.23" style="fill: #fff" />
            </g>
          </g>
        </g>
      </g>
    </g>
    <g class="AnimatedPrinting__box-front">
      <g>
        <path d="M65.7,364.52H447.26a0,0,0,0,1,0,0V685.41a6.21,6.21,0,0,1-6.21,6.21H71.92a6.21,6.21,0,0,1-6.21-6.21V364.52A0,0,0,0,1,65.7,364.52Z" style="fill: #e9b259" />
        <path d="M385.22,364.52H766.78L786.9,404.3a7.9,7.9,0,0,1-7,11.46H372.15a7.9,7.9,0,0,1-7-11.46Z" transform="translate(-319.52)" style="fill: #df8a00" />
      </g>
    </g>
    <g class="AnimatedPrinting__machine-group">
      <g class="AnimatedPrinting__screen-base">
        <polygon points="281.7 172.3 281.58 0 271.89 0.08 271.89 0.07 231.26 0.42 231.38 172.72 269.83 172.4 269.83 172.4 281.7 172.3" style="fill: #c0c6cc" />
        <path d="M798.56,176.43a19.9,19.9,0,0,0-20-19.86l-403.35,1a19.9,19.9,0,0,0-19.86,20l1.27,501.59A19.9,19.9,0,0,0,376.61,699L780,698a19.91,19.91,0,0,0,19.85-20Z" transform="translate(-319.52)" style="fill: #c0c6cc" />
      </g>
      <g class="AnimatedPrinting__shirt-hand-group">
        <g class="AnimatedPrinting__shirt">
          <g>
            <path d="M716.84,355.81C705,345.69,688.6,324.32,688.6,283.23V186.72a8.08,8.08,0,0,0-8.05-8.05H640.34A166.3,166.3,0,0,1,576,194.76a166.3,166.3,0,0,1-64.34-16.09H471.44a8.07,8.07,0,0,0-8,8.05v96.51c0,41.09-16.38,62.46-28.24,72.58a33,33,0,0,0-12,25.05V581.28a8,8,0,0,0,8,8.05H720.77a8,8,0,0,0,8-8.05V380.86A33,33,0,0,0,716.84,355.81Z" transform="translate(-319.52)" style="fill: #1a2937" />
            <path d="M640.34,178.67c0,53.33-28.79,96.52-64.34,96.52S511.66,232,511.66,178.67A166.3,166.3,0,0,0,576,194.76,166.3,166.3,0,0,0,640.34,178.67Z" transform="translate(-319.52)" style="fill: #263442" />
          </g>
        </g>
        <g class="AnimatedPrinting__logo">
          <g>
            <polygon points="235.86 368.71 187.15 467.72 284.57 467.72 235.86 368.71" style="fill: #c0c6cc" />
            <polygon points="235.86 396.18 200.66 467.72 271.06 467.72 235.86 396.18" style="fill: #ff6158" />
            <polygon points="289.23 406.4 252.66 467.72 325.81 467.72 289.23 406.4" style="fill: #ebf0f4" />
            <circle cx="296.37" cy="371.95" r="14.51" style="fill: #fff" />
          </g>
        </g>
        <g class="AnimatedPrinting__hand">
          <g>
            <path d="M527.79,764.1V608.7c0-5.1,1.78-9,4.81-14.11,1.44-2.15,2.62-3.85,3.77-5.75a1.74,1.74,0,0,0,.2-.3l30.66-53.1a13.7,13.7,0,0,0-5.89-19.16,12.87,12.87,0,0,0-5.94-1.38c-9.54,0-12.63,8.51-13.17,9.08V503.91h0v-28A13.87,13.87,0,0,0,529,461.92a13.57,13.57,0,0,0-8.26,2.48V463a13.86,13.86,0,0,0-13.3-13.94,14.8,14.8,0,0,0-9.24,3.25c-5.23,3.87-4.91,12.63-4.91,12.63l-1.43-.87a13,13,0,0,0-13.68,0l-.53.35-.29.19a12.85,12.85,0,0,0-5.53,10.59v3.61a13.65,13.65,0,0,0-15.72,0,15.72,15.72,0,0,0-5.82,11.89v75.74A45.56,45.56,0,0,0,460,594.73a22.76,22.76,0,0,1,4.7,14v155.4a3.89,3.89,0,0,0,3.89,3.88h55.29A3.89,3.89,0,0,0,527.79,764.1Z" transform="translate(-319.52)" style="fill: #eac2b2" />
            <g>
              <path d="M517.28,526V467.16a3,3,0,1,1,6.07,0V526a3,3,0,1,1-6.07,0Z" transform="translate(-319.52)" style="fill: #c69b8b" />
              <path d="M490.05,526.33v-58.4a3,3,0,1,1,6.06,0v58.4a3,3,0,1,1-6.06,0Z" transform="translate(-319.52)" style="fill: #c69b8b" />
              <path d="M468.76,530.2V482.07a3,3,0,1,1,6.07,0V530.2a3,3,0,0,1-6.07,0Z" transform="translate(-319.52)" style="fill: #c69b8b" />
            </g>
          </g>
        </g>
      </g>
    </g>
    <g class="AnimatedPrinting__screen-top">
      <g>
        <path d="M778.6,156.57l-403.35,1a19.9,19.9,0,0,0-19.86,20l1.27,501.59A19.9,19.9,0,0,0,376.61,699L780,698a19.91,19.91,0,0,0,19.85-20l-1.26-501.6A19.9,19.9,0,0,0,778.6,156.57ZM769.8,668l-383.17,1-1.21-481.42,383.16-1Z" transform="translate(-319.52)" style="fill: #0e1e2d" />
        <rect x="386.02" y="187.08" width="383.17" height="481.42" transform="translate(-320.6 1.46) rotate(-0.14)" style="fill: #c0c6cc;opacity: 0.9" />
        <g>
          <polygon points="237.43 412.55 188.97 511.68 286.39 511.43 237.43 412.55" style="fill: #ebf0f4" />
          <polygon points="237.5 440.02 202.48 511.65 272.87 511.47 237.5 440.02" style="fill: #ebf0f4" />
          <polygon points="290.9 450.1 254.47 511.51 327.63 511.33 290.9 450.1" style="fill: #ebf0f4" />
          <circle cx="297.94" cy="415.63" r="14.51" style="fill: #ebf0f4" />
        </g>
        <g class="AnimatedPrinting__screen-top-top-pipes">
          <path d="M231.26 0v159.64h-29.8V0zM311.5 0v159.64h-29.8V0z" style="fill: #0e1e2d"></path>
        </g>
      </g>
    </g>
    <g class="AnimatedPrinting__hands">
      <g>
        <g>
          <rect x="89.16" y="347.62" width="334.64" height="7.88" style="fill: #e9b259" />
          <path d="M89.16,433.63H423.8a0,0,0,0,1,0,0v8.86a22.68,22.68,0,0,1-22.68,22.68H111.84a22.68,22.68,0,0,1-22.68-22.68v-8.86a0,0,0,0,1,0,0Z" style="fill: #20ace8" />
          <rect x="89.16" y="355.51" width="334.64" height="86.98" style="fill: #193856" />
        </g>
        <g>
          <g>
            <path d="M503.61,768V550.16c0-5.1,1.78-9,4.81-14.11,1.44-2.16,2.62-3.86,3.77-5.75a1.74,1.74,0,0,0,.2-.3l30.66-53.11a13.7,13.7,0,0,0-5.89-19.16,12.93,12.93,0,0,0-5.94-1.37c-9.53,0-12.63,8.51-13.16,9.08V445.37h0v-28a13.86,13.86,0,0,0-13.28-13.95,13.57,13.57,0,0,0-8.26,2.48v-1.4a13.85,13.85,0,0,0-13.3-13.94,14.8,14.8,0,0,0-9.24,3.25c-5.23,3.87-4.91,12.63-4.91,12.63l-1.42-.87a13,13,0,0,0-13.69,0l-.52.35-.3.19a12.84,12.84,0,0,0-5.53,10.59v3.61a13.63,13.63,0,0,0-15.71,0,15.7,15.7,0,0,0-5.83,11.88v75.75a45.56,45.56,0,0,0,9.74,28.31,22.75,22.75,0,0,1,4.7,14V768Z" transform="translate(-319.52)" style="fill: #eac2b2" />
            <g>
              <path d="M493.1,467.44V408.62a3,3,0,1,1,6.07,0v58.82a3,3,0,0,1-6.07,0Z" transform="translate(-319.52)" style="fill: #c69b8b" />
              <path d="M465.87,467.79V409.38a3,3,0,0,1,6.07,0v58.41a3,3,0,0,1-6.07,0Z" transform="translate(-319.52)" style="fill: #c69b8b" />
              <path d="M444.58,471.66V423.52a3,3,0,0,1,6.07,0v48.14a3,3,0,0,1-6.07,0Z" transform="translate(-319.52)" style="fill: #c69b8b" />
            </g>
          </g>
          <g>
            <path d="M648.39,768V550.16c0-5.1-1.78-9-4.81-14.11-1.44-2.16-2.62-3.86-3.77-5.75a1.74,1.74,0,0,1-.2-.3l-30.66-53.11a13.7,13.7,0,0,1,5.89-19.16,12.93,12.93,0,0,1,5.94-1.37c9.53,0,12.63,8.51,13.16,9.08V445.37h0v-28a13.86,13.86,0,0,1,13.28-13.95,13.57,13.57,0,0,1,8.26,2.48v-1.4a13.85,13.85,0,0,1,13.3-13.94,14.8,14.8,0,0,1,9.24,3.25c5.23,3.87,4.91,12.63,4.91,12.63l1.42-.87a13,13,0,0,1,13.69,0l.52.35.3.19a12.84,12.84,0,0,1,5.53,10.59v3.61a13.63,13.63,0,0,1,15.71,0,15.7,15.7,0,0,1,5.83,11.88v75.75a45.56,45.56,0,0,1-9.74,28.31,22.75,22.75,0,0,0-4.7,14V768Z" transform="translate(-319.52)" style="fill: #eac2b2" />
            <g>
              <path d="M658.9,467.44V408.62a3,3,0,1,0-6.07,0v58.82a3,3,0,0,0,6.07,0Z" transform="translate(-319.52)" style="fill: #c69b8b" />
              <path d="M686.13,467.79V409.38a3,3,0,0,0-6.07,0v58.41a3,3,0,0,0,6.07,0Z" transform="translate(-319.52)" style="fill: #c69b8b" />
              <path d="M707.42,471.66V423.52a3,3,0,0,0-6.07,0v48.14a3,3,0,0,0,6.07,0Z" transform="translate(-319.52)" style="fill: #c69b8b" />
            </g>
          </g>
        </g>
      </g>
    </g>
  </svg>