<svg width="454" height="96" viewBox="0 0 454 96" fill="none" xmlns="http://www.w3.org/2000/svg">
<g clip-path="url(#clip0)">
<path d="M149.816 0H129.982V10.2692H149.816V0Z" fill="#193856"/>
<path d="M149.817 0H140.811V10.2692H149.817V0Z" fill="#193856"/>
<path d="M160.645 0H151.639V10.2692H160.645V0Z" fill="#193856"/>
<path d="M171.472 0H162.466V10.2692H171.472V0Z" fill="#193856"/>
<path d="M182.3 0H173.294V10.2692H182.3V0Z" fill="#193856"/>
<path d="M204.005 0H194.999V10.2692H204.005V0Z" fill="#193856"/>
<path d="M225.66 0H216.654V10.2692H225.66V0Z" fill="#193856"/>
<path d="M247.317 0H238.311V10.2692H247.317V0Z" fill="#193856"/>
<path d="M138.989 12.173H129.982V22.4423H138.989V12.173Z" fill="#34587B"/>
<path d="M160.645 12.173H151.639V22.4423H160.645V12.173Z" fill="#193856"/>
<path d="M171.472 12.173H162.466V22.4423H171.472V12.173Z" fill="#193856"/>
<path d="M182.3 12.173H173.294V22.4423H182.3V12.173Z" fill="#193856"/>
<path d="M193.124 12.173H184.118V22.4423H193.124V12.173Z" fill="#193856"/>
<path d="M214.833 12.173H205.827V22.4423H214.833V12.173Z" fill="#193856"/>
<path d="M225.66 12.173H216.654V22.4423H225.66V12.173Z" fill="#193856"/>
<path d="M247.317 12.173H238.311V22.4423H247.317V12.173Z" fill="#193856"/>
<path d="M268.968 12.173H259.962V22.4423H268.968V12.173Z" fill="#193856"/>
<path d="M138.989 24.4037H129.982V34.673H138.989V24.4037Z" fill="#193856"/>
<path d="M149.817 24.4037H140.811V34.673H149.817V24.4037Z" fill="#193856"/>
<path d="M160.645 24.4037H151.639V34.673H160.645V24.4037Z" fill="#193856"/>
<path d="M73.3 24.4037H64.2939V34.673H73.3V24.4037Z" fill="#0E2D49"/>
<path d="M193.124 24.4037H184.118V34.673H193.124V24.4037Z" fill="#193856"/>
<path d="M204.005 24.4037H194.999V34.673H204.005V24.4037Z" fill="#193856"/>
<path d="M236.488 24.4037H216.654V34.673H236.488V24.4037Z" fill="#193856"/>
<path d="M236.489 24.4037H227.482V34.673H236.489V24.4037Z" fill="#193856"/>
<path d="M247.317 24.4037H238.311V34.673H247.317V24.4037Z" fill="#193856"/>
<path d="M258.14 24.4037H249.134V34.673H258.14V24.4037Z" fill="#193856"/>
<path d="M268.968 24.4037H259.962V34.673H268.968V24.4037Z" fill="#193856"/>
<path d="M149.817 36.5771H140.811V46.8463H149.817V36.5771Z" fill="#193856"/>
<path d="M160.645 36.5771H151.639V46.8463H160.645V36.5771Z" fill="#193856"/>
<path d="M182.3 36.5771H162.466V71.1925H182.3V36.5771Z" fill="#193856"/>
<path d="M182.3 36.5771H173.294V46.8463H182.3V36.5771Z" fill="#193856"/>
<path d="M204.005 36.5771H194.999V46.8463H204.005V36.5771Z" fill="#193856"/>
<path d="M214.833 36.5771H205.827V46.8463H214.833V36.5771Z" fill="#193856"/>
<path d="M236.489 36.5771H227.482V46.8463H236.489V36.5771Z" fill="#193856"/>
<path d="M268.968 36.5771H259.962V46.8463H268.968V36.5771Z" fill="#193856"/>
<path d="M138.989 48.7501H129.982V59.0193H138.989V48.7501Z" fill="#193856"/>
<path d="M149.817 48.7501H140.811V59.0193H149.817V48.7501Z" fill="#193856"/>
<path d="M160.645 48.7501H151.639V59.0193H160.645V48.7501Z" fill="#193856"/>
<path d="M171.472 48.7501H162.466V59.0193H171.472V48.7501Z" fill="#193856"/>
<path d="M182.3 48.7501H173.294V59.0193H182.3V48.7501Z" fill="#193856"/>
<path d="M193.124 48.7501H184.118V59.0193H193.124V48.7501Z" fill="#193856"/>
<path d="M204.005 48.7501H194.999V59.0193H204.005V48.7501Z" fill="#193856"/>
<path d="M214.833 48.7501H205.827V59.0193H214.833V48.7501Z" fill="#193856"/>
<path d="M225.66 48.7501H216.654V59.0193H225.66V48.7501Z" fill="#193856"/>
<path d="M236.489 48.7501H227.482V59.0193H236.489V48.7501Z" fill="#193856"/>
<path d="M247.317 48.7501H238.311V59.0193H247.317V48.7501Z" fill="#34587B"/>
<path d="M268.968 48.7501H259.962V59.0193H268.968V48.7501Z" fill="#193856"/>
<path d="M138.989 60.9231H129.982V71.1923H138.989V60.9231Z" fill="#193856"/>
<path d="M149.817 60.9231H140.811V71.1923H149.817V60.9231Z" fill="#193856"/>
<path d="M171.472 60.9231H162.466V71.1923H171.472V60.9231Z" fill="#193856"/>
<path d="M182.3 60.9231H173.294V71.1923H182.3V60.9231Z" fill="#193856"/>
<path d="M193.124 60.9231H184.118V71.1923H193.124V60.9231Z" fill="#193856"/>
<path d="M225.661 60.9231H205.827V83.5385H225.661V60.9231Z" fill="#193856"/>
<path d="M225.66 60.9231H216.654V71.1923H225.66V60.9231Z" fill="#193856"/>
<path d="M247.317 60.9231H238.311V71.1923H247.317V60.9231Z" fill="#193856"/>
<path d="M258.14 60.9231H249.134V71.1923H258.14V60.9231Z" fill="#193856"/>
<path d="M138.989 73.1538H129.982V83.423H138.989V73.1538Z" fill="#193856"/>
<path d="M149.817 73.1538H140.811V83.423H149.817V73.1538Z" fill="#193856"/>
<path d="M160.645 73.1538H151.639V83.423H160.645V73.1538Z" fill="#193856"/>
<path d="M171.472 73.1538H162.466V83.423H171.472V73.1538Z" fill="#193856"/>
<path d="M193.124 73.1538H184.118V83.423H193.124V73.1538Z" fill="#193856"/>
<path d="M204.005 73.1538H194.999V83.423H204.005V73.1538Z" fill="#193856"/>
<path d="M214.833 73.1538H205.827V83.423H214.833V73.1538Z" fill="#193856"/>
<path d="M225.66 73.1538H216.654V83.423H225.66V73.1538Z" fill="#193856"/>
<path d="M247.317 73.1538H238.311V83.423H247.317V73.1538Z" fill="#193856"/>
<path d="M258.14 73.1538H249.134V83.423H258.14V73.1538Z" fill="#193856"/>
<path d="M268.968 73.1538H259.962V83.423H268.968V73.1538Z" fill="#193856"/>
<path d="M138.989 85.3268H129.982V95.596H138.989V85.3268Z" fill="#193856"/>
<path d="M149.817 85.3268H140.811V95.596H149.817V85.3268Z" fill="#193856"/>
<path d="M160.645 85.3268H151.639V95.596H160.645V85.3268Z" fill="#193856"/>
<path d="M182.3 85.3268H173.294V95.596H182.3V85.3268Z" fill="#193856"/>
<path d="M193.124 85.3268H184.118V95.596H193.124V85.3268Z" fill="#193856"/>
<path d="M204.005 85.3268H194.999V95.596H204.005V85.3268Z" fill="#34587B"/>
<path d="M225.66 85.3268H216.654V95.596H225.66V85.3268Z" fill="#193856"/>
<path d="M127.489 85.3268H118.482V95.5961H127.489V85.3268Z" fill="#0E2D49"/>
<path d="M258.14 85.3268H249.134V95.596H258.14V85.3268Z" fill="#193856"/>
<path d="M171.253 0H162.247V10.2692H171.253V0Z" fill="#0E2D49"/>
<path d="M291.081 0H282.075V10.2692H291.081V0Z" fill="#193856"/>
<path d="M323.565 0H314.559V10.2692H323.565V0Z" fill="#34587B"/>
<path d="M334.392 0H325.386V10.2692H334.392V0Z" fill="#193856"/>
<path d="M366.871 0H357.865V10.2692H366.871V0Z" fill="#193856"/>
<path d="M280.253 12.173H271.247V22.4423H280.253V12.173Z" fill="#193856"/>
<path d="M312.736 12.173H292.902V22.4423H312.736V12.173Z" fill="#193856"/>
<path d="M312.737 12.173H303.73V22.4423H312.737V12.173Z" fill="#193856"/>
<path d="M291.081 24.4037H282.075V34.673H291.081V24.4037Z" fill="#193856"/>
<path d="M356.048 24.4037H347.042V34.673H356.048V24.4037Z" fill="#193856"/>
<path d="M280.253 36.5771H271.247V46.8463H280.253V36.5771Z" fill="#193856"/>
<path d="M312.737 36.5771H303.73V46.8463H312.737V36.5771Z" fill="#193856"/>
<path d="M323.565 36.5771H314.559V46.8463H323.565V36.5771Z" fill="#0E2D49"/>
<path d="M236.22 36.5771H227.214V46.8463H236.22V36.5771Z" fill="#0E2D49"/>
<path d="M291.081 48.7501H282.075V59.0193H291.081V48.7501Z" fill="#193856"/>
<path d="M334.392 48.7501H325.386V59.0193H334.392V48.7501Z" fill="#193856"/>
<path d="M366.871 48.7501H357.865V59.0193H366.871V48.7501Z" fill="#193856"/>
<path d="M301.908 60.9231H271.247V71.1923H301.908V60.9231Z" fill="#0E2D49"/>
<path d="M323.565 60.9231H314.559V71.1923H323.565V60.9231Z" fill="#193856"/>
<path d="M345.22 60.9231H336.214V71.1923H345.22V60.9231Z" fill="#193856"/>
<path d="M312.737 73.1538H303.73V83.423H312.737V73.1538Z" fill="#193856"/>
<path d="M356.048 73.1538H347.042V83.423H356.048V73.1538Z" fill="#193856"/>
<path d="M280.253 85.3268H271.247V95.596H280.253V85.3268Z" fill="#193856"/>
<path d="M301.908 85.3268H292.902V95.596H301.908V85.3268Z" fill="#193856"/>
<path d="M323.565 85.3268H314.559V95.596H323.565V85.3268Z" fill="#193856"/>
<path d="M366.871 85.3268H357.865V95.596H366.871V85.3268Z" fill="#193856"/>
<path d="M410.69 0H401.684V10.2692H410.69V0Z" fill="#193856"/>
<path d="M432.345 0H423.339V10.2692H432.345V0Z" fill="#0E2D49"/>
<path d="M389.034 12.173H380.028V22.4423H389.034V12.173Z" fill="#193856"/>
<path d="M454.001 31.5001H444.995V41.7694H454.001V31.5001Z" fill="#193856"/>
<path d="M421.518 48.7501H412.512V59.0193H421.518V48.7501Z" fill="#34587B"/>
<path d="M399.409 60.9231H390.402V71.1923H399.409V60.9231Z" fill="#193856"/>
<path d="M389.034 85.3268H380.028V95.596H389.034V85.3268Z" fill="#193856"/>
<path d="M432.345 85.5578H423.339V95.827H432.345V85.5578Z" fill="#34587B"/>
<path d="M119.144 95.5708H128.15V85.3016H119.144V95.5708Z" fill="#193856"/>
<path d="M108.306 95.5708H139.018V85.3016H108.306V95.5708Z" fill="#193856"/>
<path d="M97.4792 95.5708H106.485V85.3016H97.4792V95.5708Z" fill="#193856"/>
<path d="M75.8181 95.5708H84.8242V85.3016H75.8181V95.5708Z" fill="#193856"/>
<path d="M64.9861 95.5708H73.9922V85.3016H64.9861V95.5708Z" fill="#193856"/>
<path d="M54.1531 95.5708H63.1592V85.3016H54.1531V95.5708Z" fill="#193856"/>
<path d="M43.3201 95.5708H52.3262V85.3016H43.3201V95.5708Z" fill="#193856"/>
<path d="M32.4919 95.5708H41.498V85.3016H32.4919V95.5708Z" fill="#193856"/>
<path d="M10.8269 95.5708H19.833V85.3016H10.8269L10.8269 95.5708Z" fill="#193856"/>
<path d="M108.312 83.3676H117.318V73.0984H108.312V83.3676Z" fill="#193856"/>
<path d="M97.4792 83.3676H106.485V73.0984H97.4792V83.3676Z" fill="#193856"/>
<path d="M86.6511 83.3676H95.6572V73.0984H86.6511V83.3676Z" fill="#193856"/>
<path d="M86.6511 95.9959H95.6572V85.7267H86.6511V95.9959Z" fill="#193856"/>
<path d="M75.8181 83.3676H84.8242V73.0984H75.8181V83.3676Z" fill="#193856"/>
<path d="M64.9861 83.3676H73.9922V73.0984H64.9861V83.3676Z" fill="#193856"/>
<path d="M54.4164 95.5557H95.6523V73.1134H54.4164V95.5557Z" fill="#193856"/>
<path d="M43.3201 83.3676H52.3262V73.0984H43.3201V83.3676Z" fill="#193856"/>
<path d="M32.4919 83.3676H41.498V73.0984H32.4919V83.3676Z" fill="#193856"/>
<path d="M21.8318 95.5708H30.8379V85.3016H21.8318V95.5708Z" fill="#193856"/>
<path d="M21.8318 83.3676H30.8379V73.0984H21.8318V83.3676Z" fill="#193856"/>
<path d="M10.8269 83.3676H19.833V73.0984H10.8269L10.8269 83.3676Z" fill="#193856"/>
<path d="M119.144 71.2224H128.15V60.9532H119.144V71.2224Z" fill="#193856"/>
<path d="M108.312 71.2224H117.318V60.9532H108.312V71.2224Z" fill="#193856"/>
<path d="M-11.5163 71.2224H8.31738L8.31738 60.9532H-11.5163V71.2224Z" fill="#0E2D49"/>
<path d="M86.6511 71.2224H95.6572V60.9532H86.6511V71.2224Z" fill="#193856"/>
<path d="M75.6657 71.2224H84.6719V60.9532H75.6657V71.2224Z" fill="#193856"/>
<path d="M64.9861 71.2224H73.9922V60.9532H64.9861V71.2224Z" fill="#193856"/>
<path d="M54.1531 71.2224H63.1592V60.9532H54.1531V71.2224Z" fill="#193856"/>
<path d="M43.3201 71.2224H52.3262V60.9532H43.3201V71.2224Z" fill="#193856"/>
<path d="M32.4919 71.2224H41.498V60.9532H32.4919V71.2224Z" fill="#193856"/>
<path d="M21.6599 71.2224H30.666V60.9532H21.6599V71.2224Z" fill="#193856"/>
<path d="M119.144 59.0187H128.15V48.7495H119.144V59.0187Z" fill="#193856"/>
<path d="M108.312 59.0187H117.318V48.7495H108.312V59.0187Z" fill="#193856"/>
<path d="M97.4792 59.0187H106.485V48.7495H97.4792V59.0187Z" fill="#193856"/>
<path d="M75.8181 59.0187H84.8242V48.7495H75.8181V59.0187Z" fill="#193856"/>
<path d="M64.9861 59.0187H73.9922V48.7495H64.9861V59.0187Z" fill="#193856"/>
<path d="M54.1531 59.0187H63.1592V48.7495H54.1531V59.0187Z" fill="#193856"/>
<path d="M43.3201 59.0187H52.3262V48.7495H43.3201V59.0187Z" fill="#193856"/>
<path d="M32.4284 59.0187H41.4346V48.7495H32.4284V59.0187Z" fill="#193856"/>
<path d="M21.6654 59.0187L63.1543 59.0187V48.7495L21.6654 48.7495V59.0187Z" fill="#34587B"/>
<path d="M10.8269 59.0187H19.833V48.7495H10.8269L10.8269 59.0187Z" fill="#193856"/>
<path d="M10.8269 71.2776H19.833V61.0084H10.8269L10.8269 71.2776Z" fill="#193856"/>
<path d="M0.00479507 95.5684L52.3213 95.5684L52.3213 61.0107L0.00479507 61.0107L0.00479507 95.5684Z" fill="#193856"/>
<path d="M119.144 46.8155H128.15V36.5463H119.144V46.8155Z" fill="#193856"/>
<path d="M108.312 46.8155H117.318V36.5463H108.312V46.8155Z" fill="#193856"/>
<path d="M97.5969 46.8155L128.106 46.8155V36.5463H97.5969V46.8155Z" fill="#193856"/>
<path d="M86.6511 46.8155H95.6572V36.5463H86.6511V46.8155Z" fill="#193856"/>
<path d="M75.8181 46.8155H84.8242V36.5463H75.8181V46.8155Z" fill="#193856"/>
<path d="M75.8181 34.6598H84.8242V24.3906H75.8181V34.6598Z" fill="#193856"/>
<path d="M64.9861 46.8155H73.9922V36.5463H64.9861V46.8155Z" fill="#193856"/>
<path d="M54.1531 46.8155H63.1592V36.5463H54.1531V46.8155Z" fill="#193856"/>
<path d="M43.3201 46.8155H52.3262V36.5463H43.3201V46.8155Z" fill="#193856"/>
<path d="M32.4919 46.8155H41.498V36.5463H32.4919V46.8155Z" fill="#193856"/>
<path d="M21.6599 46.8155H30.666V36.5463H21.6599V46.8155Z" fill="#193856"/>
<path d="M10.8269 46.8155H19.833V36.5463H10.8269L10.8269 46.8155Z" fill="#193856"/>
<path d="M119.144 34.6119H128.15V24.3426H119.144V34.6119Z" fill="#193856"/>
<path d="M97.4792 34.6119H106.485V24.3426H97.4792V34.6119Z" fill="#193856"/>
<path d="M86.6511 34.6119H95.6572V24.3426H86.6511V34.6119Z" fill="#193856"/>
<path d="M64.9861 34.6119H73.9922V24.3426H64.9861V34.6119Z" fill="#193856"/>
<path d="M54.1531 34.6119H63.1592V24.3426H54.1531V34.6119Z" fill="#193856"/>
<path d="M43.5857 34.6119H52.5918V24.3426H43.5857V34.6119Z" fill="#193856"/>
<path d="M32.4919 34.6119H41.498V24.3426H32.4919V34.6119Z" fill="#193856"/>
<path d="M21.6599 34.6119H30.666V24.3426H21.6599V34.6119Z" fill="#193856"/>
<path d="M10.8269 34.6119H19.833V24.3426H10.8269L10.8269 34.6119Z" fill="#193856"/>
<path d="M0.00849724 34.6545H19.6904L19.6904 12.2122L0.00849724 12.2122L0.00849724 34.6545Z" fill="#193856"/>
<path d="M-0.00169182 59.0378H19.832L19.832 36.5378H-0.00169182L-0.00169182 59.0378Z" fill="#193856"/>
<path d="M119.144 22.4667H128.15V12.1974L119.144 12.1974V22.4667Z" fill="#193856"/>
<path d="M108.312 22.4667H117.318V12.1974L108.312 12.1974V22.4667Z" fill="#193856"/>
<path d="M97.4792 22.4667H106.485V12.1974L97.4792 12.1974V22.4667Z" fill="#193856"/>
<path d="M86.6511 22.4667H95.6572V12.1974L86.6511 12.1974V22.4667Z" fill="#193856"/>
<path d="M75.8181 22.4667H84.8242V12.1974L75.8181 12.1974V22.4667Z" fill="#193856"/>
<path d="M64.8327 22.4667H73.8389V12.1974L64.8327 12.1974V22.4667Z" fill="#193856"/>
<path d="M54.1531 22.4667H63.1592V12.1974L54.1531 12.1974V22.4667Z" fill="#193856"/>
<path d="M43.3201 22.4667H52.3262V12.1974L43.3201 12.1974V22.4667Z" fill="#193856"/>
<path d="M32.4919 22.4667H41.498V12.1974L32.4919 12.1974V22.4667Z" fill="#193856"/>
<path d="M21.6599 22.4667H30.666V12.1974L21.6599 12.1974V22.4667Z" fill="#193856"/>
<path d="M10.9988 22.4667H20.0049V12.1974L10.9988 12.1974L10.9988 22.4667Z" fill="#193856"/>
<path d="M0.0206833 34.6396L41.459 34.6396L41.459 0.0242615L0.0206833 0.0242615L0.0206833 34.6396Z" fill="#0E2D49"/>
<path d="M119.144 10.2634L128.15 10.2634V-0.00580406L119.144 -0.00580406V10.2634Z" fill="#193856"/>
<path d="M108.312 10.2634L117.318 10.2634V-0.00580406L108.312 -0.00580406V10.2634Z" fill="#193856"/>
<path d="M97.4792 10.2634L106.485 10.2634V-0.00580406L97.4792 -0.00580406V10.2634Z" fill="#193856"/>
<path d="M86.6511 10.2634L95.6572 10.2634V-0.00580406L86.6511 -0.00580406V10.2634Z" fill="#193856"/>
<path d="M75.8231 22.4515L106.484 22.4515V0.00922775L75.8231 0.00922775V22.4515Z" fill="#193856"/>
<path d="M64.9861 10.2634L73.9922 10.2634V-0.00580406L64.9861 -0.00580406V10.2634Z" fill="#193856"/>
<path d="M54.1531 10.2634L63.1592 10.2634V-0.00580406L54.1531 -0.00580406V10.2634Z" fill="#193856"/>
<path d="M43.326 34.6396L73.9873 34.6396V0.0242615L43.326 0.0242615V34.6396Z" fill="#193856"/>
</g>
<defs>
<clipPath id="clip0">
<rect width="454" height="96" fill="white"/>
</clipPath>
</defs>
</svg>
