<svg width="454" height="96" viewBox="0 0 454 96" fill="none" xmlns="http://www.w3.org/2000/svg">
<g clip-path="url(#clip0)">
<path d="M304.184 0H324.018V10.2692H304.184V0Z" fill="#193856"/>
<path d="M304.183 0H313.189V10.2692H304.183V0Z" fill="#193856"/>
<path d="M293.355 0H302.361V10.2692H293.355V0Z" fill="#193856"/>
<path d="M282.528 0H291.534V10.2692H282.528V0Z" fill="#193856"/>
<path d="M271.7 0H280.706V10.2692H271.7V0Z" fill="#193856"/>
<path d="M249.995 0H259.001V10.2692H249.995V0Z" fill="#193856"/>
<path d="M228.34 0H237.346V10.2692H228.34V0Z" fill="#193856"/>
<path d="M206.683 0H215.689V10.2692H206.683V0Z" fill="#193856"/>
<path d="M315.012 12.173H324.018V22.4423H315.012V12.173Z" fill="#193856"/>
<path d="M293.355 12.173H302.361V22.4423H293.355V12.173Z" fill="#193856"/>
<path d="M282.528 12.173H291.534V22.4423H282.528V12.173Z" fill="#193856"/>
<path d="M271.7 12.173H280.706V22.4423H271.7V12.173Z" fill="#193856"/>
<path d="M260.876 12.173H269.882V22.4423H260.876V12.173Z" fill="#193856"/>
<path d="M239.167 12.173H248.173V22.4423H239.167V12.173Z" fill="#193856"/>
<path d="M228.34 12.173H237.346V22.4423H228.34V12.173Z" fill="#193856"/>
<path d="M206.683 12.173H215.689V22.4423H206.683V12.173Z" fill="#193856"/>
<path d="M185.032 12.173H194.038V22.4423H185.032V12.173Z" fill="#193856"/>
<path d="M315.012 24.4037H324.018V34.673H315.012V24.4037Z" fill="#193856"/>
<path d="M304.183 24.4037H313.189V34.673H304.183V24.4037Z" fill="#193856"/>
<path d="M293.355 24.4037H302.361V34.673H293.355V24.4037Z" fill="#193856"/>
<path d="M271.7 24.4037H280.706V34.673H271.7V24.4037Z" fill="#193856"/>
<path d="M260.876 24.4037H269.882V34.673H260.876V24.4037Z" fill="#193856"/>
<path d="M249.995 24.4037H259.001V34.673H249.995V24.4037Z" fill="#193856"/>
<path d="M217.512 24.4037H237.346V34.673H217.512V24.4037Z" fill="#34587B"/>
<path d="M217.511 24.4037H226.518V34.673H217.511V24.4037Z" fill="#34587B"/>
<path d="M206.683 24.4037H215.689V34.673H206.683V24.4037Z" fill="#193856"/>
<path d="M195.86 24.4037H204.866V34.673H195.86V24.4037Z" fill="#193856"/>
<path d="M185.032 24.4037H194.038V34.673H185.032V24.4037Z" fill="#193856"/>
<path d="M304.183 36.5771H313.189V46.8463H304.183V36.5771Z" fill="#193856"/>
<path d="M293.355 36.5771H302.361V46.8463H293.355V36.5771Z" fill="#193856"/>
<path d="M271.7 36.5771H291.534V71.1925H271.7V36.5771Z" fill="#193856"/>
<path d="M271.7 36.5771H280.706V46.8463H271.7V36.5771Z" fill="#193856"/>
<path d="M249.995 36.5771H259.001V46.8463H249.995V36.5771Z" fill="#193856"/>
<path d="M239.167 36.5771H248.173V46.8463H239.167V36.5771Z" fill="#193856"/>
<path d="M217.511 36.5771H226.518V46.8463H217.511V36.5771Z" fill="#193856"/>
<path d="M185.032 36.5771H194.038V46.8463H185.032V36.5771Z" fill="#193856"/>
<path d="M315.012 48.7501H324.018V59.0193H315.012V48.7501Z" fill="#193856"/>
<path d="M304.183 48.7501H313.189V59.0193H304.183V48.7501Z" fill="#193856"/>
<path d="M293.355 48.7501H302.361V59.0193H293.355V48.7501Z" fill="#193856"/>
<path d="M282.528 48.7501H291.534V59.0193H282.528V48.7501Z" fill="#193856"/>
<path d="M271.7 48.7501H280.706V59.0193H271.7V48.7501Z" fill="#193856"/>
<path d="M260.876 48.7501H269.882V59.0193H260.876V48.7501Z" fill="#193856"/>
<path d="M249.995 48.7501H259.001V59.0193H249.995V48.7501Z" fill="#193856"/>
<path d="M239.167 48.7501H248.173V59.0193H239.167V48.7501Z" fill="#193856"/>
<path d="M228.34 48.7501H237.346V59.0193H228.34V48.7501Z" fill="#193856"/>
<path d="M217.511 48.7501H226.518V59.0193H217.511V48.7501Z" fill="#193856"/>
<path d="M206.683 48.7501H215.689V59.0193H206.683V48.7501Z" fill="#193856"/>
<path d="M185.032 48.7501H194.038V59.0193H185.032V48.7501Z" fill="#193856"/>
<path d="M315.012 60.9231H324.018V71.1923H315.012V60.9231Z" fill="#193856"/>
<path d="M304.183 60.9231H313.189V71.1923H304.183V60.9231Z" fill="#193856"/>
<path d="M282.528 60.9231H291.534V71.1923H282.528V60.9231Z" fill="#193856"/>
<path d="M271.7 60.9231H280.706V71.1923H271.7V60.9231Z" fill="#193856"/>
<path d="M260.876 60.9231H269.882V71.1923H260.876V60.9231Z" fill="#193856"/>
<path d="M228.339 60.9231H248.173V83.5385H228.339V60.9231Z" fill="#0E2D49"/>
<path d="M206.683 60.9231H215.689V71.1923H206.683V60.9231Z" fill="#193856"/>
<path d="M195.86 60.9231H204.866V71.1923H195.86V60.9231Z" fill="#193856"/>
<path d="M315.012 73.1538H324.018V83.423H315.012V73.1538Z" fill="#193856"/>
<path d="M304.183 73.1538H313.189V83.423H304.183V73.1538Z" fill="#193856"/>
<path d="M293.355 73.1538H302.361V83.423H293.355V73.1538Z" fill="#193856"/>
<path d="M282.528 73.1538H291.534V83.423H282.528V73.1538Z" fill="#34587B"/>
<path d="M260.876 73.1538H269.882V83.423H260.876V73.1538Z" fill="#193856"/>
<path d="M249.995 73.1538H259.001V83.423H249.995V73.1538Z" fill="#193856"/>
<path d="M206.683 73.1538H215.689V83.423H206.683V73.1538Z" fill="#193856"/>
<path d="M195.86 73.1538H204.866V83.423H195.86V73.1538Z" fill="#193856"/>
<path d="M185.032 73.1538H194.038V83.423H185.032V73.1538Z" fill="#193856"/>
<path d="M315.012 85.3268H324.018V95.596H315.012V85.3268Z" fill="#193856"/>
<path d="M304.183 85.3268H313.189V95.596H304.183V85.3268Z" fill="#193856"/>
<path d="M293.355 85.3268H302.361V95.596H293.355V85.3268Z" fill="#193856"/>
<path d="M271.7 85.3268H280.706V95.596H271.7V85.3268Z" fill="#193856"/>
<path d="M260.876 85.3268H269.882V95.596H260.876V85.3268Z" fill="#193856"/>
<path d="M249.995 85.3268H259.001V95.596H249.995V85.3268Z" fill="#193856"/>
<path d="M228.34 85.3268H237.346V95.596H228.34V85.3268Z" fill="#193856"/>
<path d="M217.511 85.3268H226.518V95.596H217.511V85.3268Z" fill="#193856"/>
<path d="M195.86 85.3268H204.866V95.596H195.86V85.3268Z" fill="#193856"/>
<path d="M173.747 0H182.753V10.2692H173.747V0Z" fill="#193856"/>
<path d="M162.919 0H171.925V10.2692H162.919V0Z" fill="#193856"/>
<path d="M130.435 0H139.441V10.2692H130.435V0Z" fill="#193856"/>
<path d="M119.608 0H128.614V10.2692H119.608V0Z" fill="#193856"/>
<path d="M87.1287 0H96.1348V10.2692H87.1287V0Z" fill="#193856"/>
<path d="M173.747 12.173H182.753V22.4423H173.747V12.173Z" fill="#193856"/>
<path d="M141.264 12.173H161.098V22.4423H141.264V12.173Z" fill="#0E2D49"/>
<path d="M162.919 24.4037H171.925V34.673H162.919V24.4037Z" fill="#193856"/>
<path d="M97.9519 24.4037H106.958V34.673H97.9519V24.4037Z" fill="#193856"/>
<path d="M173.747 36.5771H182.753V46.8463H173.747V36.5771Z" fill="#193856"/>
<path d="M141.263 36.5771H150.27V46.8463H141.263V36.5771Z" fill="#193856"/>
<path d="M130.435 36.5771H139.441V46.8463H130.435V36.5771Z" fill="#193856"/>
<path d="M108.78 36.5771H117.786V46.8463H108.78V36.5771Z" fill="#193856"/>
<path d="M162.919 48.7501H171.925V59.0193H162.919V48.7501Z" fill="#193856"/>
<path d="M119.608 48.7501H128.614V59.0193H119.608V48.7501Z" fill="#34587B"/>
<path d="M87.1287 48.7501H96.1348V59.0193H87.1287V48.7501Z" fill="#193856"/>
<path d="M152.091 60.9231H182.753V71.1923H152.091V60.9231Z" fill="#193856"/>
<path d="M162.919 60.9231H171.925V71.1923H162.919V60.9231Z" fill="#193856"/>
<path d="M152.092 60.9231H161.098V71.1923H152.092V60.9231Z" fill="#193856"/>
<path d="M130.435 60.9231H139.441V71.1923H130.435V60.9231Z" fill="#193856"/>
<path d="M108.78 60.9231H117.786V71.1923H108.78V60.9231Z" fill="#193856"/>
<path d="M141.263 73.1538H150.27V83.423H141.263V73.1538Z" fill="#193856"/>
<path d="M97.9519 73.1538H106.958V83.423H97.9519V73.1538Z" fill="#193856"/>
<path d="M173.747 85.3268H182.753V95.596H173.747V85.3268Z" fill="#34587B"/>
<path d="M152.092 85.3268H161.098V95.596H152.092V85.3268Z" fill="#193856"/>
<path d="M130.435 85.3268H139.441V95.596H130.435V85.3268Z" fill="#193856"/>
<path d="M87.1287 85.3268H96.1348V95.596H87.1287V85.3268Z" fill="#193856"/>
<path d="M43.3103 0H52.3164V10.2692H43.3103V0Z" fill="#193856"/>
<path d="M21.655 0H30.6611V10.2692H21.655V0Z" fill="#224F79"/>
<path d="M64.9655 12.173H73.9717V22.4423H64.9655V12.173Z" fill="#193856"/>
<path d="M-0.00128174 31.5001H9.00488V41.7694H-0.00128174V31.5001Z" fill="#193856"/>
<path d="M32.4822 48.7501H41.4883V59.0193H32.4822V48.7501Z" fill="#193856"/>
<path d="M54.5915 60.9231H63.5977V71.1923H54.5915V60.9231Z" fill="#193856"/>
<path d="M64.9655 85.3268H73.9717V95.596H64.9655V85.3268Z" fill="#0E2D49"/>
<path d="M21.655 85.5578H30.6611V95.827H21.655V85.5578Z" fill="#193856"/>
<path d="M334.856 95.5708H325.85V85.3016H334.856V95.5708Z" fill="#193856"/>
<path d="M345.694 95.5708H314.982V85.3016H345.694V95.5708Z" fill="#193856"/>
<path d="M356.521 95.5708H347.515V85.3016H356.521V95.5708Z" fill="#193856"/>
<path d="M378.182 95.5708H369.176V85.3016H378.182V95.5708Z" fill="#193856"/>
<path d="M389.014 95.5708H380.008V85.3016H389.014V95.5708Z" fill="#193856"/>
<path d="M399.847 95.5708H390.841V85.3016H399.847V95.5708Z" fill="#193856"/>
<path d="M410.68 95.5708H401.674V85.3016H410.68V95.5708Z" fill="#193856"/>
<path d="M421.508 95.5708H412.502V85.3016H421.508V95.5708Z" fill="#193856"/>
<path d="M443.173 95.5708H434.167V85.3016H443.173V95.5708Z" fill="#193856"/>
<path d="M345.688 83.3676H336.682V73.0984H345.688V83.3676Z" fill="#193856"/>
<path d="M356.521 83.3676H347.515V73.0984H356.521V83.3676Z" fill="#193856"/>
<path d="M367.349 83.3676H358.343V73.0984H367.349V83.3676Z" fill="#193856"/>
<path d="M367.349 95.9959H358.343V85.7267H367.349V95.9959Z" fill="#193856"/>
<path d="M378.182 83.3676H369.176V73.0984H378.182V83.3676Z" fill="#193856"/>
<path d="M389.014 83.3676H380.008V73.0984H389.014V83.3676Z" fill="#193856"/>
<path d="M399.584 95.5557H358.348V73.1134H399.584V95.5557Z" fill="#193856"/>
<path d="M410.68 83.3676H401.674V73.0984H410.68V83.3676Z" fill="#193856"/>
<path d="M421.508 83.3676H412.502V73.0984H421.508V83.3676Z" fill="#193856"/>
<path d="M432.168 95.5708H423.162V85.3016H432.168V95.5708Z" fill="#193856"/>
<path d="M432.168 83.3676H423.162V73.0984H432.168V83.3676Z" fill="#193856"/>
<path d="M443.173 83.3676H434.167V73.0984H443.173V83.3676Z" fill="#193856"/>
<path d="M334.856 71.2224H325.85V60.9532H334.856V71.2224Z" fill="#193856"/>
<path d="M345.688 71.2224H336.682V60.9532H345.688V71.2224Z" fill="#193856"/>
<path d="M356.516 71.2224H336.683V60.9532H356.516V71.2224Z" fill="#193856"/>
<path d="M367.349 71.2224H358.343V60.9532H367.349V71.2224Z" fill="#193856"/>
<path d="M378.334 71.2224H369.328V60.9532H378.334V71.2224Z" fill="#193856"/>
<path d="M389.014 71.2224H380.008V60.9532H389.014V71.2224Z" fill="#193856"/>
<path d="M399.847 71.2224H390.841V60.9532H399.847V71.2224Z" fill="#193856"/>
<path d="M410.68 71.2224H401.674V60.9532H410.68V71.2224Z" fill="#193856"/>
<path d="M421.508 71.2224H412.502V60.9532H421.508V71.2224Z" fill="#193856"/>
<path d="M432.34 71.2224H423.334V60.9532H432.34V71.2224Z" fill="#193856"/>
<path d="M334.856 59.0187H325.85V48.7495H334.856V59.0187Z" fill="#193856"/>
<path d="M345.688 59.0187H336.682V48.7495H345.688V59.0187Z" fill="#193856"/>
<path d="M356.521 59.0187H347.515V48.7495H356.521V59.0187Z" fill="#193856"/>
<path d="M378.182 59.0187H369.176V48.7495H378.182V59.0187Z" fill="#34587B"/>
<path d="M389.014 59.0187H380.008V48.7495H389.014V59.0187Z" fill="#193856"/>
<path d="M399.847 59.0187H390.841V48.7495H399.847V59.0187Z" fill="#193856"/>
<path d="M410.68 59.0187H401.674V48.7495H410.68V59.0187Z" fill="#193856"/>
<path d="M421.572 59.0187H412.565V48.7495H421.572V59.0187Z" fill="#193856"/>
<path d="M432.335 59.0187L390.846 59.0187V48.7495L432.335 48.7495V59.0187Z" fill="#193856"/>
<path d="M443.173 59.0187H434.167V48.7495H443.173V59.0187Z" fill="#193856"/>
<path d="M443.173 71.2776H434.167V61.0084H443.173V71.2776Z" fill="#193856"/>
<path d="M453.995 95.5684L401.679 95.5684V61.0107L453.995 61.0107V95.5684Z" fill="#0E2D49"/>
<path d="M334.856 46.8155H325.85V36.5463H334.856V46.8155Z" fill="#193856"/>
<path d="M345.688 46.8155H336.682V36.5463H345.688V46.8155Z" fill="#193856"/>
<path d="M356.403 46.8155L325.894 46.8155V36.5463H356.403V46.8155Z" fill="#193856"/>
<path d="M367.349 46.8155H358.343V36.5463H367.349V46.8155Z" fill="#193856"/>
<path d="M378.182 46.8155H369.176V36.5463H378.182V46.8155Z" fill="#193856"/>
<path d="M378.182 34.6598H369.176V24.3906H378.182V34.6598Z" fill="#193856"/>
<path d="M389.014 46.8155H380.008V36.5463H389.014V46.8155Z" fill="#193856"/>
<path d="M399.847 46.8155H390.841V36.5463H399.847V46.8155Z" fill="#193856"/>
<path d="M410.68 46.8155H401.674V36.5463H410.68V46.8155Z" fill="#193856"/>
<path d="M421.508 46.8155H412.502V36.5463H421.508V46.8155Z" fill="#193856"/>
<path d="M432.34 46.8155H423.334V36.5463H432.34V46.8155Z" fill="#193856"/>
<path d="M443.173 46.8155H434.167V36.5463H443.173V46.8155Z" fill="#193856"/>
<path d="M334.856 34.6119H325.85V24.3426H334.856V34.6119Z" fill="#193856"/>
<path d="M356.521 34.6119H347.515V24.3426H356.521V34.6119Z" fill="#193856"/>
<path d="M367.349 34.6119H358.343V24.3426H367.349V34.6119Z" fill="#193856"/>
<path d="M389.014 34.6119H380.008V24.3426H389.014V34.6119Z" fill="#193856"/>
<path d="M399.847 34.6119H390.841V24.3426H399.847V34.6119Z" fill="#193856"/>
<path d="M410.414 34.6119H401.408V24.3426H410.414V34.6119Z" fill="#193856"/>
<path d="M421.508 34.6119H412.502V24.3426H421.508V34.6119Z" fill="#193856"/>
<path d="M432.34 34.6119H423.334V24.3426H432.34V34.6119Z" fill="#193856"/>
<path d="M443.173 34.6119H434.167V24.3426H443.173V34.6119Z" fill="#193856"/>
<path d="M453.992 34.6545H434.31V12.2122L453.992 12.2122V34.6545Z" fill="#193856"/>
<path d="M454.002 59.0378H434.168V36.5378H454.002V59.0378Z" fill="#193856"/>
<path d="M334.856 22.4667H325.85V12.1974L334.856 12.1974V22.4667Z" fill="#0E2D49"/>
<path d="M345.688 22.4667H336.682V12.1974L345.688 12.1974V22.4667Z" fill="#193856"/>
<path d="M356.521 22.4667H347.515V12.1974L356.521 12.1974V22.4667Z" fill="#193856"/>
<path d="M367.349 22.4667H358.343V12.1974L367.349 12.1974V22.4667Z" fill="#193856"/>
<path d="M378.182 22.4667H369.176V12.1974L378.182 12.1974V22.4667Z" fill="#193856"/>
<path d="M389.167 22.4667H380.161V12.1974L389.167 12.1974V22.4667Z" fill="#193856"/>
<path d="M399.847 22.4667H390.841V12.1974L399.847 12.1974V22.4667Z" fill="#193856"/>
<path d="M410.68 22.4667H401.674V12.1974L410.68 12.1974V22.4667Z" fill="#193856"/>
<path d="M421.508 22.4667H412.502V12.1974L421.508 12.1974V22.4667Z" fill="#193856"/>
<path d="M432.34 22.4667H423.334V12.1974L432.34 12.1974V22.4667Z" fill="#193856"/>
<path d="M443.001 22.4667H433.995V12.1974L443.001 12.1974V22.4667Z" fill="#193856"/>
<path d="M453.979 34.6396L412.541 34.6396V0.0242615L453.979 0.0242615V34.6396Z" fill="#193856"/>
<path d="M334.856 10.2634L325.85 10.2634V-0.00580406L334.856 -0.00580406V10.2634Z" fill="#193856"/>
<path d="M345.688 10.2634L336.682 10.2634V-0.00580406L345.688 -0.00580406V10.2634Z" fill="#34587B"/>
<path d="M356.521 10.2634L347.515 10.2634V-0.00580406L356.521 -0.00580406V10.2634Z" fill="#193856"/>
<path d="M367.349 10.2634L358.343 10.2634V-0.00580406L367.349 -0.00580406V10.2634Z" fill="#193856"/>
<path d="M378.177 22.4515L347.516 22.4515V0.00922775L378.177 0.00922775V22.4515Z" fill="#193856"/>
<path d="M389.014 10.2634L380.008 10.2634V-0.00580406L389.014 -0.00580406V10.2634Z" fill="#193856"/>
<path d="M399.847 10.2634L390.841 10.2634V-0.00580406L399.847 -0.00580406V10.2634Z" fill="#193856"/>
<path d="M410.674 34.6396L380.013 34.6396V0.0242615L410.674 0.0242615V34.6396Z" fill="#193856"/>
<path d="M421.508 10.2634L412.502 10.2634V-0.00580406L421.508 -0.00580406V10.2634Z" fill="#193856"/>
<path d="M432.319 10.2634L412.536 10.2634V-0.00580406L432.319 -0.00580406V10.2634Z" fill="#193856"/>
<path d="M443.173 10.2634L434.167 10.2634V-0.00580406L443.173 -0.00580406V10.2634Z" fill="#193856"/>
</g>
<defs>
<clipPath id="clip0">
<rect width="454" height="96" fill="white" transform="matrix(-1 0 0 1 454 0)"/>
</clipPath>
</defs>
</svg>
