<svg width="70" height="40" viewBox="0 0 70 40" fill="none" xmlns="http://www.w3.org/2000/svg">
<path fill-rule="evenodd" clip-rule="evenodd" d="M69.5426 29.6153L59.6043 39.5431C58.9944 40.1523 58.0056 40.1523 57.3957 39.5431L47.4574 29.6153C46.8475 29.0061 46.8475 28.0184 47.4574 27.4091C48.0673 26.7999 49.0561 26.7999 49.6659 27.4091L58.5 36.2338L67.3341 27.4091C67.9439 26.7999 68.9327 26.7999 69.5426 27.4091C70.1525 28.0184 70.1525 29.0061 69.5426 29.6153ZM56.9383 2.872L56.9383 1L60.0617 1L60.0617 2.872L56.9383 2.872ZM56.9383 10.36L56.9383 6.616L60.0617 6.616L60.0617 10.36L56.9383 10.36ZM56.9383 17.848L56.9383 14.104L60.0617 14.104L60.0617 17.848L56.9383 17.848ZM56.9383 25.336L56.9383 21.592L60.0617 21.592L60.0617 25.336L56.9383 25.336ZM56.9383 32.824L56.9383 29.08L60.0617 29.08L60.0617 32.824L56.9383 32.824Z" fill="#14C4B3"/>
<path fill-rule="evenodd" clip-rule="evenodd" d="M10.3957 0.456914C11.0056 -0.152304 11.9944 -0.152305 12.6043 0.456913L22.5426 10.3847C23.1525 10.9939 23.1525 11.9816 22.5426 12.5909C21.9327 13.2001 20.9439 13.2001 20.3341 12.5909L11.5 3.76617L2.66592 12.5909C2.05605 13.2001 1.06727 13.2001 0.4574 12.5909C-0.152467 11.9817 -0.152467 10.9939 0.4574 10.3847L10.3957 0.456914ZM9.93834 10.92L9.93834 7.176L13.0617 7.176L13.0617 10.92L9.93834 10.92ZM9.93834 18.408L9.93834 14.664H13.0617L13.0617 18.408L9.93834 18.408ZM9.93834 25.896V22.152L13.0617 22.152V25.896H9.93834ZM9.93834 33.384V29.64H13.0617V33.384H9.93834ZM9.93835 39L9.93834 37.128H13.0617V39H9.93835Z" fill="#14C4B3"/>
</svg>
