<svg width="62" height="62" viewBox="0 0 62 62" fill="none" xmlns="http://www.w3.org/2000/svg">
<path d="M33.2459 60.2423C42.6328 57.5676 49.3325 50.5089 51.3089 41.8679L51.3076 41.8676C51.4024 41.4724 51.4877 41.0741 51.5633 40.6728C51.8417 39.1938 50.6346 37.9102 49.1206 37.9098L34.7944 37.9065C34.1819 37.9063 33.6633 38.3353 33.4556 38.9079C32.6406 41.1545 30.8266 42.9127 28.3126 43.6735C23.9514 44.8398 19.7728 42.4193 18.441 37.8039C17.1092 33.1885 19.362 28.9354 23.6825 27.6279C26.3495 26.9147 28.9482 27.5428 30.8693 29.1939C31.3519 29.6087 32.0509 29.7215 32.5918 29.3854L44.6857 21.8721C45.9552 21.0834 46.3044 19.3854 45.3115 18.2716C44.9357 17.8501 44.5471 17.443 44.1464 17.0505L44.1473 17.0496C37.8901 10.8556 28.4174 8.30415 19.0305 10.9789C18.9836 10.9923 18.9367 11.0057 18.8899 11.0193C18.843 11.0324 18.7961 11.0457 18.7492 11.0591C9.36227 13.7338 2.68955 20.8858 0.686242 29.4335L0.687526 29.4338C-0.318182 33.623 -0.246702 38.171 1.07523 42.7521C2.39717 47.3333 4.76186 51.2279 7.84872 54.2509L7.8478 54.2518C14.1319 60.5391 23.5777 62.9973 32.9646 60.3225C33.0115 60.3092 33.0584 60.2957 33.1052 60.2821C33.1521 60.269 33.199 60.2557 33.2459 60.2423Z" fill="white"/>
<path d="M60.6982 7.6553e-07C61.4172 7.9665e-07 62 0.577146 62 1.28909V18.8024C62 19.9508 60.5977 20.526 59.7776 19.7139L42.0911 2.20061C41.271 1.38853 41.8518 -5.02006e-08 43.0117 0L60.6982 7.6553e-07Z" fill="white"/>
</svg>
