<svg width="44" height="44" viewBox="0 0 44 44" fill="none" xmlns="http://www.w3.org/2000/svg">
<path d="M23.5939 43.1764C30.2556 41.2594 35.0101 36.2004 36.4127 30.0074L36.4118 30.0071C36.4791 29.7239 36.5397 29.4385 36.5933 29.1509C36.7909 28.0908 35.9342 27.1709 34.8598 27.1706L24.6928 27.1682C24.2581 27.1681 23.8901 27.4755 23.7427 27.8859C23.1643 29.4961 21.877 30.7562 20.0928 31.3015C16.9978 32.1374 14.0323 30.4025 13.0871 27.0947C12.142 23.7868 13.7408 20.7386 16.8069 19.8015C18.6996 19.2903 20.5439 19.7405 21.9073 20.9239C22.2497 21.2211 22.7458 21.302 23.1297 21.0612L31.7125 15.6763C32.6134 15.1111 32.8612 13.8941 32.1565 13.0958C31.8899 12.7938 31.6141 12.5019 31.3297 12.2206L31.3303 12.22C26.8898 7.78072 20.1672 5.9521 13.5055 7.86909C13.4722 7.87868 13.439 7.88834 13.4058 7.89807C13.3725 7.90748 13.3392 7.91697 13.3059 7.92656C6.64419 9.84355 1.90871 14.9694 0.487011 21.0956L0.487922 21.0958C-0.225806 24.0982 -0.175079 27.3578 0.763069 30.6411C1.70122 33.9245 3.37938 36.7157 5.57006 38.8823L5.5694 38.883C10.0291 43.3891 16.7326 45.1509 23.3942 43.2339C23.4275 43.2243 23.4608 43.2146 23.494 43.2049C23.5273 43.1955 23.5606 43.186 23.5939 43.1764Z" fill="#0080FF"/>
<path d="M43.0761 0.00048883C43.5864 0.000488852 44 0.414131 44 0.924384V13.4762C44 14.2993 43.0048 14.7115 42.4228 14.1295L29.8711 1.57768C29.2891 0.995655 29.7013 0.000488245 30.5244 0.000488281L43.0761 0.00048883Z" fill="#0080FF"/>
</svg>
