<svg width="48" height="48" viewBox="0 0 48 48" fill="none" xmlns="http://www.w3.org/2000/svg">
<path opacity="0.85" d="M31.997 16.0026H23.998C18.0758 16.0026 12.9115 19.2181 10.1439 23.996C8.78174 26.3475 8 29.0738 8 31.9895V40.0145C8 41.1823 8.25268 42.287 8.70278 43.2892C9.06206 42.1253 9.54769 41.0166 10.1478 39.9829C12.1416 36.5425 15.3791 33.9109 19.2444 32.7075C20.7487 32.242 22.3437 31.9895 24.002 31.9895H32.001C35.2464 31.9895 38.0378 30.0562 39.2933 27.2786C39.7473 26.2765 40 25.1639 40 23.996C39.9961 19.5811 36.4151 16.0026 31.997 16.0026Z" fill="white"/>
<path opacity="0.75" d="M23.9984 31.9895C22.3401 31.9895 20.7451 32.242 19.2408 32.7075C18.2301 33.0232 17.2628 33.4374 16.3507 33.9346C16.0428 34.1042 15.7427 34.2818 15.4466 34.4672C15.4229 34.483 15.3992 34.4948 15.3755 34.5106C14.7912 34.8854 14.2306 35.2997 13.7015 35.7455C13.666 35.7731 13.6305 35.8047 13.5989 35.8323C13.3383 36.0572 13.0817 36.286 12.8369 36.5267C12.8329 36.5307 12.829 36.5346 12.829 36.5346C12.596 36.7634 12.3749 36.9962 12.1538 37.2369C12.1104 37.2882 12.063 37.3355 12.0196 37.3868C11.7985 37.6354 11.5853 37.8879 11.38 38.1522C11.3721 38.1601 11.3681 38.1719 11.3603 38.1798C11.1668 38.4284 10.9852 38.6848 10.8075 38.9413C10.7601 39.0084 10.7167 39.0754 10.6693 39.1425C10.4877 39.4148 10.314 39.6909 10.1482 39.975C9.54804 41.0087 9.06241 42.1174 8.70312 43.2813C9.9547 46.0628 12.75 48 15.9994 48C20.3029 48 23.8089 44.6069 23.9905 40.3498H23.9984V31.9895Z" fill="white"/>
<path d="M10.1439 23.9961C10.3334 23.6725 10.5308 23.3529 10.744 23.0452V23.0373C12.7576 20.0625 15.7384 17.8017 19.2405 16.7089C20.7447 16.2433 22.3398 15.9908 23.998 15.9908H31.997C35.2424 15.9908 38.0338 14.0575 39.2893 11.28C39.7434 10.2778 39.9961 9.16521 39.9961 7.99737C39.9961 3.5785 36.4151 0 31.997 0H23.998C18.5772 0 12.4141 4.07957 10.1439 7.99342C8.78174 10.3449 8 13.0751 8 15.9868V22.0076V24.0118V31.4726C8 31.4963 8.0079 31.52 8.0079 31.5436C8.08291 28.7976 8.85281 26.2252 10.1439 23.9961Z" fill="white"/>
</svg>
