<svg width="235" height="85" viewBox="0 0 235 85" fill="none" xmlns="http://www.w3.org/2000/svg">
<path d="M85.5294 73.3496C86.4492 73.3496 87.1391 73.6003 87.592 74.1017C88.0589 74.5962 88.2889 75.209 88.2889 75.9333C88.2889 76.6645 88.045 77.2635 87.5711 77.7509C87.0973 78.2245 86.3796 78.4683 85.4179 78.4683H84.2124V81.1634H82.6445V73.3566H85.5294V73.3496ZM85.4667 77.0476C86.2681 77.0476 86.6931 76.5392 86.6931 75.9054C86.6931 75.2856 86.2611 74.7982 85.5503 74.7982H84.2054V77.0476H85.4667Z" fill="white"/>
<path d="M97.1394 81.1564L95.488 78.315H94.5542V81.1564H92.9863V73.3496H95.9757C96.8398 73.3496 97.5088 73.5934 97.9617 74.0669C98.4147 74.5405 98.6516 75.1255 98.6516 75.8219C98.6516 76.8386 98.122 77.737 97.0628 78.1131L98.9582 81.1564H97.1394ZM94.5542 74.7982V76.9083H95.8364C96.6517 76.9083 97.0489 76.4417 97.0489 75.8428C97.0489 75.2508 96.6447 74.7982 95.9688 74.7982H94.5542Z" fill="white"/>
<path d="M103.725 73.3496H105.299V81.1564H103.725V73.3496Z" fill="white"/>
<path d="M115.743 73.3496H117.283V81.1564H116.217L112.168 76.3721V81.1564H110.621V73.3496H111.618L115.743 78.1758V73.3496Z" fill="white"/>
<path d="M124.126 74.8608H121.896V73.3496H127.945V74.8608H125.715V81.1564H124.126V74.8608Z" fill="white"/>
<path d="M139.117 80.1328C138.343 79.3598 137.953 78.4127 137.953 77.2775C137.953 76.1424 138.343 75.1883 139.124 74.3944C139.918 73.6004 140.88 73.2104 142.023 73.2104C143.165 73.2104 144.127 73.6004 144.908 74.3944C145.702 75.1883 146.092 76.1354 146.092 77.2566C146.092 78.3778 145.702 79.325 144.908 80.1119C144.127 80.8919 143.165 81.2819 142.009 81.2819C140.852 81.2819 139.883 80.9058 139.117 80.1328ZM143.758 75.4738C143.284 75.0002 142.712 74.7565 142.023 74.7565C141.333 74.7565 140.761 75.0002 140.288 75.4738C139.814 75.9474 139.577 76.5532 139.577 77.2566C139.577 77.967 139.807 78.5589 140.274 79.0325C140.747 79.506 141.333 79.7428 142.016 79.7428C142.706 79.7428 143.284 79.513 143.758 79.0325C144.232 78.5589 144.469 77.967 144.455 77.2566C144.462 76.5393 144.232 75.9474 143.758 75.4738Z" fill="white"/>
<path d="M156.083 73.3496H157.623V81.1564H156.557L152.508 76.3721V81.1564H150.961V73.3496H151.957L156.083 78.1758V73.3496Z" fill="white"/>
<path d="M169.156 81.1564V73.3496H172.208C173.379 73.3496 174.299 73.6978 174.968 74.4082C175.637 75.1046 175.971 76.0587 175.971 77.2704C175.971 78.4613 175.63 79.4154 174.947 80.1118C174.271 80.8082 173.337 81.1564 172.146 81.1564H169.156ZM170.724 79.6591H172.222C172.898 79.6591 173.414 79.4293 173.79 78.9697C174.16 78.517 174.348 77.932 174.348 77.2356C174.348 76.5462 174.16 75.989 173.79 75.5364C173.421 75.0837 172.905 74.8469 172.222 74.8469H170.724V79.6591Z" fill="white"/>
<path d="M180.891 81.1564V73.3496H186.187V74.8051H182.465V76.4835H185.915V77.939H182.465V79.6939H186.187V81.1494H180.891V81.1564Z" fill="white"/>
<path d="M191.217 81.1564V73.3496H192.255L195.321 77.7788L198.352 73.3496H199.412V81.1564H197.844V76.7272L195.572 79.9934H195.035L192.764 76.7272V81.1564H191.217Z" fill="white"/>
<path d="M209.496 81.1564L208.918 79.4641H206.193L205.587 81.1564H203.949L206.932 73.3496H208.214L211.154 81.1564H209.496ZM207.566 75.4737L206.632 78.0713H208.472L207.566 75.4737Z" fill="white"/>
<path d="M220.812 73.3496H222.359V81.1564H221.293L217.244 76.3721V81.1564H215.697V73.3496H216.694L220.819 78.1758V73.3496H220.812Z" fill="white"/>
<path d="M227.684 81.1564V73.3496H230.736C231.906 73.3496 232.826 73.6978 233.495 74.4082C234.164 75.1046 234.499 76.0587 234.499 77.2704C234.499 78.4613 234.157 79.4154 233.474 80.1118C232.798 80.8082 231.865 81.1564 230.673 81.1564H227.684ZM229.245 79.6591H230.743C231.419 79.6591 231.934 79.4293 232.311 78.9697C232.68 78.517 232.868 77.932 232.868 77.2356C232.868 76.5462 232.68 75.989 232.311 75.5364C231.941 75.0837 231.426 74.8469 230.743 74.8469H229.245V79.6591Z" fill="white"/>
<path d="M81.7656 61.3716V4.6416H120.712V16.6199H94.441V27.8253H117.562V39.727H94.441V61.3716H81.7656Z" fill="white"/>
<path d="M126.244 43.3276V19.3013H138.306V43.4042C138.306 48.2373 141.149 51.3851 145.985 51.3851C150.821 51.3851 153.665 48.2373 153.665 43.4042V19.3013H165.727V43.3276C165.727 55.5357 158.278 62.4442 145.985 62.4442C133.77 62.4442 126.244 55.3825 126.244 43.3276Z" fill="white"/>
<path d="M215.494 44.4069H184.54C185.997 49.7066 189.843 52.3112 195.982 52.3112C200.742 52.3112 205.125 50.9323 209.118 48.2441L213.877 56.4549C208.727 60.3687 202.588 62.2908 195.439 62.2908C187.99 62.2908 182.304 60.1389 178.311 55.9186C174.394 51.6983 172.395 46.4752 172.395 40.2563C172.395 33.8841 174.471 28.6609 178.541 24.5173C182.61 20.297 187.99 18.2217 194.596 18.2217C200.818 18.2217 205.884 20.1438 209.884 23.9044C213.877 27.6651 215.877 32.8116 215.877 39.337C215.877 40.7995 215.724 42.4848 215.494 44.4069ZM184.464 35.8062H204.282C203.132 30.973 199.599 27.9785 194.603 27.9785C189.683 27.9785 185.767 30.8895 184.464 35.8062Z" fill="white"/>
<path d="M235 61.3715H222.938V2.94922H235V61.3715Z" fill="white"/>
<path opacity="0.85" d="M42.3535 28.3755H28.2357C17.7832 28.3755 8.6686 34.0513 3.7838 42.4849C1.37973 46.6355 0 51.4477 0 56.5942V70.7593C0 72.8207 0.445973 74.7707 1.24036 76.5396C1.87448 74.4851 2.73159 72.5282 3.79077 70.7036C7.30978 64.6309 13.0238 59.9858 19.8458 57.8617C22.5007 57.0399 25.3159 56.5942 28.2426 56.5942H42.3605C48.0885 56.5942 53.0151 53.1818 55.231 48.279C56.0323 46.5101 56.4783 44.5462 56.4783 42.4849C56.4714 34.692 50.1511 28.3755 42.3535 28.3755Z" fill="white"/>
<path opacity="0.75" d="M28.2356 56.5942C25.3089 56.5942 22.4936 57.0399 19.8387 57.8617C18.0548 58.4188 16.3476 59.1501 14.7379 60.0276C14.1944 60.327 13.6648 60.6404 13.1421 60.9677C13.1003 60.9956 13.0585 61.0165 13.0167 61.0443C11.9854 61.7059 10.9959 62.4372 10.0621 63.2241C9.99943 63.2729 9.93671 63.3286 9.88097 63.3773C9.42106 63.7743 8.96811 64.1782 8.53608 64.603C8.52911 64.61 8.52214 64.6169 8.52214 64.6169C8.11101 65.0209 7.72078 65.4317 7.33056 65.8566C7.2539 65.9471 7.17028 66.0307 7.09363 66.1212C6.70341 66.5599 6.32712 67.0056 5.96476 67.4722C5.95083 67.4862 5.94386 67.5071 5.92992 67.521C5.58847 67.9597 5.26793 68.4124 4.95436 68.8651C4.87073 68.9835 4.79408 69.1018 4.71046 69.2202C4.38992 69.7008 4.08331 70.1883 3.79064 70.6897C2.73146 72.5143 1.87435 74.4712 1.24023 76.5256C3.4492 81.4354 8.38277 84.8548 14.1177 84.8548C21.7132 84.8548 27.9011 78.8656 28.2216 71.3513H28.2356V56.5942Z" fill="white"/>
<path d="M3.7838 42.4849C4.11828 41.9138 4.4667 41.3497 4.84299 40.8065V40.7926C8.39684 35.5416 13.6579 31.5511 19.8388 29.6221C22.4938 28.8003 25.309 28.3546 28.2357 28.3546H42.3535C48.0815 28.3546 53.0081 24.9422 55.224 20.0394C56.0254 18.2705 56.4714 16.3066 56.4714 14.2452C56.4714 6.44539 50.1511 0.128906 42.3535 0.128906H28.2357C18.6682 0.128906 7.79059 7.32984 3.7838 14.2383C1.37973 18.3889 0 23.2081 0 28.3476V38.9749V42.5127V55.6819C0 55.7237 0.0139367 55.7655 0.0139367 55.8073C0.146335 50.9602 1.50516 46.4196 3.7838 42.4849Z" fill="white"/>
</svg>
