<svg width="64" height="64" viewBox="0 0 64 64" fill="none" xmlns="http://www.w3.org/2000/svg">
<path d="M42.5 21.3334H32C24.2286 21.3334 17.4473 25.6226 13.8153 31.9906C12.0271 35.1244 11 38.7605 11 42.6416V53.3428C11 54.9002 11.3341 56.3761 11.9219 57.7074C12.3922 56.1563 13.0295 54.6804 13.8153 53.2988C16.4325 48.7144 20.6771 45.2038 25.7569 43.6024C27.7307 42.9807 29.8282 42.6416 32 42.6416H42.5C46.7631 42.6416 50.426 40.0668 52.0719 36.3615C52.6659 35.0239 53 33.5418 53 31.9843C53 26.0999 48.2976 21.3334 42.5 21.3334Z" fill="#E9088A"/>
<path d="M31.9996 42.6415C29.8279 42.6415 27.7303 42.9806 25.7565 43.6023C24.4263 44.0231 23.1578 44.5757 21.9637 45.2414C21.5615 45.4675 21.1655 45.7061 20.7757 45.9511C20.7448 45.9699 20.7138 45.9887 20.6829 46.0076C19.9157 46.51 19.1794 47.0626 18.4864 47.653C18.4431 47.6906 18.3936 47.7283 18.3502 47.7723C18.0099 48.0737 17.6696 48.3814 17.3479 48.7017C17.3417 48.708 17.3417 48.708 17.3355 48.7143C17.0323 49.0157 16.7353 49.3297 16.4507 49.65C16.3888 49.7191 16.3332 49.7819 16.2775 49.851C15.9805 50.1838 15.702 50.5229 15.4298 50.8683C15.4174 50.8809 15.4112 50.8935 15.405 50.906C15.1514 51.2389 14.9101 51.578 14.6811 51.9234C14.6192 52.0113 14.5636 52.1055 14.5017 52.1934C14.2666 52.5577 14.0314 52.9219 13.8211 53.2987C13.0353 54.6803 12.398 56.1561 11.9277 57.7073C13.5736 61.4188 17.2427 63.9999 21.5058 63.9999C27.1549 63.9999 31.7583 59.472 31.9934 53.8011H32.0058L31.9996 42.6415Z" fill="url(#paint0_linear)"/>
<path d="M13.8153 31.9843C14.0628 31.551 14.3226 31.1302 14.6011 30.7157V30.7094C17.2431 26.7467 21.1597 23.726 25.7569 22.2753C27.7307 21.6536 29.8282 21.3145 32 21.3145H42.5C46.7631 21.3145 50.426 18.7397 52.0719 15.0344C52.6659 13.6968 53 12.2147 53 10.6572C53 4.77284 48.2976 0 42.5 0H32C24.8845 0 16.7914 5.43852 13.8153 10.6572C12.0271 13.791 11 17.4271 11 21.3145V29.3404V32.0157V41.957C11 41.9884 11.0062 42.0198 11.0124 42.0512C11.1114 38.3899 12.1199 34.961 13.8153 31.9843Z" fill="#00ADEB"/>
<defs>
<linearGradient id="paint0_linear" x1="18.0613" y1="45.4416" x2="28.5247" y2="58.457" gradientUnits="userSpaceOnUse">
<stop stop-color="#ED9D40"/>
<stop offset="0.2957" stop-color="#F5BF3B"/>
<stop offset="0.5778" stop-color="#FEDC31"/>
<stop offset="0.7256" stop-color="#FFE72B"/>
</linearGradient>
</defs>
</svg>
