<svg width="24" height="25" viewBox="0 0 24 25" fill="none" xmlns="http://www.w3.org/2000/svg">
<path d="M11.1501 3.79372L7.43012 9.87372C7.02012 10.5337 7.50012 11.3937 8.28012 11.3937H15.7101C16.4901 11.3937 16.9701 10.5337 16.5601 9.87372L12.8501 3.79372C12.4601 3.15372 11.5401 3.15372 11.1501 3.79372Z" fill="#97A2AC"/>
<path d="M17.5 22.3938C19.9853 22.3938 22 20.3791 22 17.8938C22 15.4085 19.9853 13.3938 17.5 13.3938C15.0147 13.3938 13 15.4085 13 17.8938C13 20.3791 15.0147 22.3938 17.5 22.3938Z" fill="#97A2AC"/>
<path d="M4 21.8938H10C10.55 21.8938 11 21.4438 11 20.8938V14.8938C11 14.3438 10.55 13.8938 10 13.8938H4C3.45 13.8938 3 14.3438 3 14.8938V20.8938C3 21.4438 3.45 21.8938 4 21.8938Z" fill="#97A2AC"/>
</svg>
