<svg width="96" height="96" viewBox="0 0 96 96" fill="none" xmlns="http://www.w3.org/2000/svg">
<g clip-path="url(#clip0)">
<path d="M91.4252 52.575C91.4263 61.1735 88.8748 69.5788 84.0939 76.7256C79.313 83.8724 72.5181 89.439 64.5702 92.72L58.0702 82.175C57.9118 81.9194 57.6911 81.7082 57.4287 81.5613C57.1663 81.4144 56.8709 81.3365 56.5702 81.335H44.5952C44.3623 81.335 44.1318 81.2891 43.9167 81.1998C43.7016 81.1105 43.5063 80.9797 43.3418 80.8148C43.1774 80.6499 43.0472 80.4542 42.9585 80.2389C42.8698 80.0236 42.8245 79.7929 42.8252 79.56V65.53C42.8245 65.2972 42.8698 65.0665 42.9585 64.8511C43.0472 64.6358 43.1774 64.4401 43.3418 64.2752C43.5063 64.1103 43.7016 63.9795 43.9167 63.8902C44.1318 63.801 44.3623 63.755 44.5952 63.755H56.2752C56.6027 63.7539 56.9236 63.6622 57.2022 63.49C57.4808 63.3178 57.7064 63.0719 57.8539 62.7794C58.0014 62.487 58.0651 62.1595 58.038 61.833C58.0109 61.5066 57.894 61.1941 57.7002 60.93L52.5802 53.97C52.3043 53.5978 52.1863 53.1318 52.2519 52.6731C52.3174 52.2144 52.5611 51.8001 52.9302 51.52L66.5002 41.14C68.0816 43.9766 69.8279 46.7179 71.7302 49.35C74.5702 53.185 76.5002 54.68 78.6152 54.68C80.7302 54.68 82.6652 53.18 85.5002 49.35C87.1837 47.0351 88.7394 44.6298 90.1602 42.145C90.9994 45.5582 91.4241 49.0602 91.4252 52.575Z" fill="#14C4B3"/>
<path d="M58.05 82.175L64.55 92.72C55.2334 96.5569 44.8729 97.0371 35.2414 94.0783C25.6098 91.1195 17.3057 84.9057 11.75 76.5L29.75 70.5C30.1076 70.3902 30.4211 70.1699 30.6457 69.8707C30.8703 69.5716 30.9943 69.209 31 68.835V56.125C30.9998 55.8262 31.0748 55.5323 31.2181 55.2701C31.3614 55.008 31.5684 54.7861 31.82 54.625L38.935 50.085C39.1447 49.9536 39.324 49.7791 39.4611 49.573C39.5981 49.367 39.6898 49.1342 39.73 48.89L41.88 36.125C41.9387 35.7487 41.8752 35.3636 41.6988 35.0261C41.5224 34.6886 41.2424 34.4166 40.9 34.25L16.85 22.32C22.197 16.8215 28.9028 12.8344 36.2875 10.763C43.6722 8.69158 51.4733 8.60948 58.9 10.525C58.1292 12.7283 57.7354 15.0458 57.735 17.38C57.735 24.38 63.27 35.255 65.65 39.615C65.93 40.115 66.215 40.615 66.5 41.115L52.93 51.5C52.5609 51.7801 52.3172 52.1944 52.2516 52.6531C52.1861 53.1118 52.3041 53.5778 52.58 53.95L57.7 60.91C57.8938 61.1741 58.0107 61.4866 58.0378 61.813C58.0649 62.1394 58.0012 62.467 57.8537 62.7594C57.7062 63.0519 57.4806 63.2978 57.202 63.47C56.9234 63.6421 56.6025 63.7339 56.275 63.735H44.595C44.3621 63.735 44.1316 63.7809 43.9165 63.8702C43.7014 63.9595 43.5061 64.0903 43.3416 64.2552C43.1772 64.4201 43.0469 64.6158 42.9583 64.8311C42.8696 65.0464 42.8243 65.2771 42.825 65.51V79.54C42.8243 79.7729 42.8696 80.0036 42.9583 80.2189C43.0469 80.4342 43.1772 80.6299 43.3416 80.7948C43.5061 80.9597 43.7014 81.0905 43.9165 81.1798C44.1316 81.269 44.3621 81.315 44.595 81.315H56.545C56.8484 81.3177 57.1461 81.3982 57.4096 81.5488C57.6731 81.6994 57.8936 81.915 58.05 82.175Z" fill="#006EBD"/>
<path d="M31.0002 68.8349V56.1249C31.001 55.8258 31.077 55.5317 31.2212 55.2696C31.3653 55.0075 31.573 54.7858 31.8252 54.6249L38.9402 50.0849C39.1499 49.9535 39.3292 49.779 39.4663 49.573C39.6033 49.3669 39.695 49.1341 39.7352 48.8899L41.8802 36.1249C41.9405 35.7486 41.8778 35.3627 41.7012 35.0249C41.5246 34.6871 41.2437 34.4153 40.9002 34.2499L16.8502 22.3199C9.955 29.419 5.69112 38.66 4.76456 48.513C3.838 58.366 6.30434 68.2399 11.7552 76.4999L29.7552 70.4999C30.1118 70.3892 30.4243 70.1686 30.6479 69.8695C30.8715 69.5704 30.9948 69.2083 31.0002 68.8349Z" fill="#14C4B3"/>
<path d="M78.6149 0C74.0054 0 69.5847 1.8311 66.3253 5.09048C63.066 8.34987 61.2349 12.7705 61.2349 17.38C61.2349 22.5 65.1349 31.545 69.3049 38.99C73.0849 45.745 77.0899 51.18 78.6149 51.18C80.2549 51.18 84.7349 44.935 88.7399 37.52C92.5899 30.385 95.9999 22.165 95.9999 17.38C95.9985 12.7701 94.1663 8.34942 90.9061 5.09018C87.646 1.83094 83.2248 -1.90658e-07 78.6149 0V0ZM78.6149 9.145C80.2436 9.145 81.8357 9.62797 83.19 10.5328C84.5442 11.4377 85.5997 12.7239 86.223 14.2286C86.8463 15.7334 87.0094 17.3891 86.6916 18.9866C86.3739 20.584 85.5896 22.0513 84.4379 23.203C83.2862 24.3547 81.8189 25.139 80.2214 25.4568C78.624 25.7745 76.9682 25.6114 75.4635 24.9881C73.9587 24.3649 72.6726 23.3094 71.7677 21.9551C70.8628 20.6009 70.3799 19.0087 70.3799 17.38C70.393 15.2 71.2648 13.113 72.8063 11.5715C74.3479 10.0299 76.4349 9.15812 78.6149 9.145Z" fill="#006EBD"/>
<path d="M78.6149 9.14502C76.9862 9.14502 75.394 9.62799 74.0398 10.5329C72.6855 11.4377 71.63 12.7239 71.0067 14.2286C70.3835 15.7334 70.2204 17.3892 70.5381 18.9866C70.8559 20.584 71.6402 22.0514 72.7919 23.203C73.9436 24.3547 75.4109 25.139 77.0083 25.4568C78.6058 25.7745 80.2615 25.6115 81.7663 24.9882C83.271 24.3649 84.5572 23.3094 85.462 21.9551C86.3669 20.6009 86.8499 19.0087 86.8499 17.38C86.8505 16.2984 86.638 15.2273 86.2244 14.2278C85.8108 13.2284 85.2042 12.3204 84.4394 11.5555C83.6746 10.7907 82.7665 10.1841 81.7671 9.77053C80.7677 9.35692 79.6965 9.14436 78.6149 9.14502Z" fill="#F7F9FB"/>
</g>
<defs>
<clipPath id="clip0">
<rect width="96" height="96" fill="white"/>
</clipPath>
</defs>
</svg>
