<svg width="140" height="140" viewBox="0 0 140 140" fill="none" xmlns="http://www.w3.org/2000/svg">
<circle cx="70" cy="70" r="70" fill="#0E253C"/>
<path d="M53.28 70.96C54.04 73.56 56.27 75.53 59.01 75.92C61.16 80.02 65.02 83 70.5 83C79.36 83 84 75.2 84 67.5V59H82V67.5C82 74.21 78.05 81 70.5 81C66.36 81 63.31 78.95 61.39 76H65C65.06 76 65.11 75.98 65.17 75.97C65.58 77.14 66.69 78 68 78H73C74.65 78 76 76.65 76 75C76 73.35 74.65 72 73 72H68C66.69 72 65.58 72.86 65.17 74.03C65.11 74.02 65.06 74 65 74H60.32C59.45 71.99 59 69.75 59 67.5V59H57V67.5C57 69.57 57.35 71.65 58.01 73.58C56.24 72.81 55 71.05 55 69V64V55C55 46.45 61.45 40 70 40C78.82 40 86 46.73 86 55V70C86 70.55 86.45 71 87 71C90.42 71 93 68.64 93 65.5V62.5C93 59.68 90.91 57.49 88 57.08V55C88 45.63 79.92 38 70 38C60.47 38 53 45.47 53 55V57.08C50.09 57.49 48 59.68 48 62.5V65.5C48 68.41 50.23 70.66 53.28 70.96ZM68 74H73C73.55 74 74 74.45 74 75C74 75.55 73.55 76 73 76H68C67.45 76 67 75.55 67 75C67 74.45 67.45 74 68 74ZM91 62.5V65.5C91 67.22 89.78 68.53 88 68.89V59.11C89.78 59.47 91 60.78 91 62.5ZM50 62.5C50 60.78 51.22 59.47 53 59.11V64V68.89C51.22 68.53 50 67.22 50 65.5V62.5Z" fill="#EBF0F4"/>
<path d="M93.35 87.27L82.36 83.06C82.06 82.94 81.72 82.98 81.45 83.16C78.42 85.19 75.34 87 71 87C66.38 87 63.29 85.97 59.6 83.2C59.33 83 58.98 82.95 58.67 83.06L46.68 87.26C46.65 87.27 46.61 87.28 46.58 87.3C41.37 89.77 38 95.09 38 100.86V102H40V100.86C40 95.88 42.9 91.28 47.39 89.13L58.83 85.12C62.69 87.91 66.14 89 71 89C75.67 89 79.07 87.12 82.12 85.12L92.56 89.11C97.08 91.25 100 95.86 100 100.86V102H102V100.86C102 95.09 98.63 89.77 93.35 87.27Z" fill="#EBF0F4"/>
<path d="M79 50C79 49.56 78.71 49.17 78.29 49.04C77.87 48.91 77.41 49.08 77.17 49.44C74.68 53.18 68.41 55 58 55H57V57H58C67.51 57 73.87 55.46 77.32 52.31C77.93 54.56 79.54 57 83 57H84V55H83C79.07 55 79 50.2 79 50Z" fill="#EBF0F4"/>
<circle cx="20" cy="20" r="20" fill="#3CBFB3"/>
<path d="M17 24.17L12.83 20L11.41 21.41L17 27L29 15L27.59 13.59L17 24.17Z" fill="white"/>
</svg>
