<svg width="24" height="25" viewBox="0 0 24 25" fill="none" xmlns="http://www.w3.org/2000/svg">
<path d="M8.88 10.3299L9.41 10.8599C9.7 11.1499 10.18 11.1499 10.47 10.8599C10.76 10.5699 10.76 10.0899 10.47 9.79989L9.59 8.91989C9.2 8.52989 8.57 8.52989 8.18 8.91989L7.29 9.79989C7 10.0899 7 10.5699 7.29 10.8599C7.58 11.1499 8.06 11.1499 8.35 10.8599L8.88 10.3299ZM12 17.8899C14.03 17.8899 15.8 16.7799 16.75 15.1399C16.94 14.8099 16.7 14.3899 16.31 14.3899H7.69C7.31 14.3899 7.06 14.8099 7.25 15.1399C8.2 16.7799 9.97 17.8899 12 17.8899ZM13.53 10.8599C13.82 11.1499 14.3 11.1499 14.59 10.8599L15.12 10.3299L15.65 10.8599C15.94 11.1499 16.42 11.1499 16.71 10.8599C17 10.5699 17 10.0899 16.71 9.79989L15.83 8.91989C15.44 8.52989 14.81 8.52989 14.42 8.91989L13.54 9.79989C13.24 10.0899 13.24 10.5699 13.53 10.8599ZM11.99 2.38989C6.47 2.38989 2 6.85989 2 12.3899C2 17.9199 6.47 22.3899 11.99 22.3899C17.51 22.3899 22 17.9199 22 12.3899C22 6.85989 17.52 2.38989 11.99 2.38989ZM12 20.3899C7.58 20.3899 4 16.8099 4 12.3899C4 7.96989 7.58 4.38989 12 4.38989C16.42 4.38989 20 7.96989 20 12.3899C20 16.8099 16.42 20.3899 12 20.3899Z" fill="#97A2AC"/>
</svg>
