<svg width="40" height="40" viewBox="0 0 40 40" fill="none" xmlns="http://www.w3.org/2000/svg">
<path fill-rule="evenodd" clip-rule="evenodd" d="M11.0144 3.35454C13.2794 1.40114 16.434 0 20 0C26.7256 0 32.3082 4.9986 32.9142 11.4475C36.8952 12.0103 40 15.3414 40 19.4318C40 23.9237 36.2558 27.5 31.7188 27.5H25C24.3096 27.5 23.75 26.9404 23.75 26.25C23.75 25.5596 24.3096 25 25 25H31.7188C34.9482 25 37.5 22.4711 37.5 19.4318C37.5 16.3926 34.9482 13.8636 31.7188 13.8636H30.4688V12.6136C30.4688 7.06401 25.8183 2.5 20 2.5C17.0939 2.5 14.5063 3.64432 12.6472 5.24773C10.7558 6.87893 9.76562 8.84575 9.76562 10.3864V11.5065L8.6522 11.6289C5.15927 12.0128 2.5 14.8816 2.5 18.2955C2.5 21.9623 5.57648 25 9.45312 25H15C15.6904 25 16.25 25.5596 16.25 26.25C16.25 26.9404 15.6904 27.5 15 27.5H9.45312C4.26884 27.5 0 23.415 0 18.2955C0 13.8878 3.16465 10.2378 7.35557 9.31249C7.71199 7.15425 9.09963 5.00592 11.0144 3.35454Z" fill="#4B535A"/>
<path fill-rule="evenodd" clip-rule="evenodd" d="M19.1161 10.3661C19.6043 9.87796 20.3957 9.87796 20.8839 10.3661L28.3839 17.8661C28.872 18.3543 28.872 19.1457 28.3839 19.6339C27.8957 20.122 27.1043 20.122 26.6161 19.6339L21.25 14.2678V36.25C21.25 36.9404 20.6904 37.5 20 37.5C19.3096 37.5 18.75 36.9404 18.75 36.25V14.2678L13.3839 19.6339C12.8957 20.122 12.1043 20.122 11.6161 19.6339C11.128 19.1457 11.128 18.3543 11.6161 17.8661L19.1161 10.3661Z" fill="#4B535A"/>
</svg>
