<svg width="140" height="140" viewBox="0 0 140 140" fill="none" xmlns="http://www.w3.org/2000/svg">
<circle cx="70" cy="70" r="70" fill="#0E253C"/>
<path d="M98 64H48C45.79 64 44 65.79 44 68V98C44 100.21 45.79 102 48 102H98C100.21 102 102 100.21 102 98V68C102 65.79 100.21 64 98 64ZM100 98C100 99.1 99.1 100 98 100H48C46.9 100 46 99.1 46 98V68C46 66.9 46.9 66 48 66H98C99.1 66 100 66.9 100 68V98Z" fill="#EBF0F4"/>
<path d="M63 82C64.65 82 66 80.65 66 79V73C66 71.35 64.65 70 63 70H53C51.35 70 50 71.35 50 73V79C50 80.65 51.35 82 53 82H63ZM63 72C63.55 72 64 72.45 64 73V75H61V72H63ZM52 73C52 72.45 52.45 72 53 72H59V76C59 76.55 59.45 77 60 77H64V79C64 79.55 63.55 80 63 80H57V76C57 75.45 56.55 75 56 75H52V73ZM52 79V77H55V80H53C52.45 80 52 79.55 52 79Z" fill="#EBF0F4"/>
<path d="M52 88C51.45 88 51 88.45 51 89C51 89.55 51.45 90 52 90H58C58.55 90 59 89.55 59 89C59 88.45 58.55 88 58 88H52Z" fill="#EBF0F4"/>
<path d="M71 89C71 88.45 70.55 88 70 88H64C63.45 88 63 88.45 63 89C63 89.55 63.45 90 64 90H70C70.55 90 71 89.55 71 89Z" fill="#EBF0F4"/>
<path d="M76 90H82C82.55 90 83 89.55 83 89C83 88.45 82.55 88 82 88H76C75.45 88 75 88.45 75 89C75 89.55 75.45 90 76 90Z" fill="#EBF0F4"/>
<path d="M94 88H88C87.45 88 87 88.45 87 89C87 89.55 87.45 90 88 90H94C94.55 90 95 89.55 95 89C95 88.45 94.55 88 94 88Z" fill="#EBF0F4"/>
<path d="M63 94H52C51.45 94 51 94.45 51 95C51 95.55 51.45 96 52 96H63C63.55 96 64 95.55 64 95C64 94.45 63.55 94 63 94Z" fill="#EBF0F4"/>
<path d="M94 94H69C68.45 94 68 94.45 68 95C68 95.55 68.45 96 69 96H94C94.55 96 95 95.55 95 95C95 94.45 94.55 94 94 94Z" fill="#EBF0F4"/>
<path d="M40 72V55H94V62H96V42C96 39.79 94.21 38 92 38H42C39.79 38 38 39.79 38 42V72C38 74.21 39.79 76 42 76V74C40.9 74 40 73.1 40 72ZM40 53V48H94V53H40ZM42 40H92C93.1 40 94 40.9 94 42V46H40V42C40 40.9 40.9 40 42 40Z" fill="#EBF0F4"/>
<circle cx="20" cy="20" r="20" fill="#3CBFB3"/>
<path d="M17 24.17L12.83 20L11.41 21.41L17 27L29 15L27.59 13.59L17 24.17Z" fill="white"/>
</svg>
