<svg width="24" height="25" viewBox="0 0 24 25" fill="none" xmlns="http://www.w3.org/2000/svg">
<path d="M11.99 2.3938C6.47 2.3938 2 6.8738 2 12.3938C2 17.9138 6.47 22.3938 11.99 22.3938C17.52 22.3938 22 17.9138 22 12.3938C22 6.8738 17.52 2.3938 11.99 2.3938ZM15.22 17.7838L12 15.8438L8.78 17.7838C8.4 18.0138 7.93 17.6738 8.03 17.2438L8.88 13.5838L6.05 11.1338C5.72 10.8438 5.9 10.2938 6.34 10.2538L10.08 9.9338L11.54 6.4838C11.71 6.0738 12.29 6.0738 12.46 6.4838L13.92 9.9238L17.66 10.2438C18.1 10.2838 18.28 10.8338 17.94 11.1238L15.11 13.5738L15.96 17.2438C16.06 17.6738 15.6 18.0138 15.22 17.7838Z" fill="#97A2AC"/>
</svg>
