<svg width="24" height="25" viewBox="0 0 24 25" fill="none" xmlns="http://www.w3.org/2000/svg">
<path d="M21 8.3938C19.55 8.3938 18.74 9.8338 19.07 10.9038L15.52 14.4638C15.22 14.3738 14.78 14.3738 14.48 14.4638L11.93 11.9138C12.27 10.8438 11.46 9.3938 10 9.3938C8.55 9.3938 7.73 10.8338 8.07 11.9138L3.51 16.4638C2.44 16.1338 1 16.9438 1 18.3938C1 19.4938 1.9 20.3938 3 20.3938C4.45 20.3938 5.26 18.9538 4.93 17.8838L9.48 13.3238C9.78 13.4138 10.22 13.4138 10.52 13.3238L13.07 15.8738C12.73 16.9438 13.54 18.3938 15 18.3938C16.45 18.3938 17.27 16.9538 16.93 15.8738L20.49 12.3238C21.56 12.6538 23 11.8438 23 10.3938C23 9.2938 22.1 8.3938 21 8.3938Z" fill="#97A2AC"/>
<path d="M15 9.3938L15.94 7.3238L18 6.3938L15.94 5.4638L15 3.3938L14.08 5.4638L12 6.3938L14.08 7.3238L15 9.3938Z" fill="#97A2AC"/>
<path d="M3.5 11.3938L4 9.3938L6 8.8938L4 8.3938L3.5 6.3938L3 8.3938L1 8.8938L3 9.3938L3.5 11.3938Z" fill="#97A2AC"/>
</svg>
