<svg width="24" height="25" viewBox="0 0 24 25" fill="none" xmlns="http://www.w3.org/2000/svg">
<path d="M13 16.3899H11C10.45 16.3899 10 15.9399 10 15.3899H3.01V19.3899C3.01 20.4899 3.91 21.3899 5.01 21.3899H19C20.1 21.3899 21 20.4899 21 19.3899V15.3899H14C14 15.9399 13.55 16.3899 13 16.3899ZM20 7.38989H16C16 5.17989 14.21 3.38989 12 3.38989C9.79 3.38989 8 5.17989 8 7.38989H4C2.9 7.38989 2 8.28989 2 9.38989V12.3899C2 13.4999 2.89 14.3899 4 14.3899H10V13.3899C10 12.8399 10.45 12.3899 11 12.3899H13C13.55 12.3899 14 12.8399 14 13.3899V14.3899H20C21.1 14.3899 22 13.4899 22 12.3899V9.38989C22 8.28989 21.1 7.38989 20 7.38989ZM10 7.38989C10 6.28989 10.9 5.38989 12 5.38989C13.1 5.38989 14 6.28989 14 7.38989H9.99H10Z" fill="#97A2AC"/>
</svg>
