<svg width="96" height="96" viewBox="0 0 96 96" fill="none" xmlns="http://www.w3.org/2000/svg">
<g clip-path="url(#clip0)">
<path d="M47.9998 0C28.8298 0 12.7198 14.905 11.2598 33.75L14.7098 39.375H17.0698V36.56C17.0803 28.3928 20.3022 20.5573 26.0398 14.745L26.0898 14.695L26.1348 14.65C30.465 10.3333 35.9774 7.39663 41.9757 6.2109C47.974 5.02518 54.1891 5.64357 59.8361 7.98799C65.4831 10.3324 70.3088 14.2977 73.7036 19.383C77.0984 24.4684 78.91 30.4457 78.9098 36.56V36.635L78.8348 39.375H80.8598L84.7198 33.75C83.2598 14.905 67.1898 0 47.9998 0Z" fill="#14C4B3"/>
<path d="M77.7648 41.905L47.9998 42.47L17.9698 43.03L14.2598 85.67L48.0098 85.95L82.3198 86.23L77.7648 41.905Z" fill="#006EBD"/>
<path d="M82.3198 86.23L48.0098 85.95V42.47L77.7648 41.905L82.3198 86.23Z" fill="#006EBD"/>
<path d="M11.1102 33.75C11.0552 34.65 11.0352 35.605 11.0352 36.56V53.25C11.0352 54.0456 11.3512 54.8087 11.9138 55.3713C12.4764 55.9339 13.2395 56.25 14.0352 56.25H28.1702V33.75H11.1102Z" fill="#14C4B3"/>
<path d="M84.7199 33.75H67.5449V56.25H71.7249L72.5949 58.78L79.4149 56.25H81.7299C82.5256 56.25 83.2886 55.9339 83.8512 55.3713C84.4139 54.8087 84.7299 54.0456 84.7299 53.25C84.7399 47.295 84.7649 34.44 84.7199 33.75Z" fill="#14C4B3"/>
<path d="M61.96 72.955L61.51 72.9L59.26 64.24L56.22 65.7C55.905 65.85 55.585 65.985 55.26 66.115C54.935 66.245 54.6 66.37 54.26 66.48C52.9163 66.9289 51.5284 67.2323 50.12 67.385C49.4159 67.4607 48.7082 67.4991 48 67.5C45.1639 67.4992 42.3615 66.8852 39.785 65.7L36.75 64.24L34.5 72.9L34.05 72.955L31 80.155C34.435 86.155 40.9 90.375 48 90.375C55.595 90.375 62.4 85.61 65.66 78.975L61.96 72.955Z" fill="#F7F9FB"/>
<path d="M73.2103 39.375L69.1053 33.75H66.2353C62.9816 33.7406 59.7938 32.8321 57.0241 31.1247C54.2543 29.4174 52.0105 26.9776 50.5403 24.075L48.0003 18.955L45.5003 24.075C44.0282 26.9802 41.7811 29.4217 39.0076 31.1292C36.2341 32.8367 33.0423 33.7438 29.7853 33.75H28.0953L22.6953 39.375V46.875C22.6953 60.32 32.6953 71.795 45.5353 73.03C46.3803 73.09 47.1653 73.145 48.0353 73.145H48.0903C54.328 73.1611 60.3394 70.8095 64.9103 66.565C67.5336 64.1981 69.6326 61.3085 71.0724 58.0819C72.5122 54.8553 73.2608 51.3632 73.2703 47.83L73.2103 39.375Z" fill="#F7F9FB"/>
<path d="M48.0004 11.25C44.675 11.2435 41.3811 11.8937 38.3076 13.1633C35.2342 14.433 32.4417 16.2972 30.0906 18.6488C27.7394 21.0004 25.8758 23.7932 24.6067 26.8669C23.3377 29.9406 22.6881 33.2347 22.6954 36.56V39.375H29.7854C33.2947 39.3949 36.7618 38.6092 39.9197 37.0783C43.0777 35.5475 45.8421 33.3124 48.0004 30.545C50.1589 33.3145 52.9248 35.5511 56.0847 37.0821C59.2447 38.6131 62.7141 39.3976 66.2254 39.375H73.2004L73.2754 36.56C73.2727 29.8543 70.6101 23.4234 65.8717 18.6785C61.1333 13.9335 54.7061 11.262 48.0004 11.25Z" fill="#006EBD"/>
<path d="M79.4154 56.25C78.8395 57.8909 77.7691 59.3128 76.3517 60.3202C74.9342 61.3276 73.2393 61.8708 71.5004 61.875H53.8004C53.0546 61.875 52.3394 61.5791 51.8116 61.0523C51.2838 60.5254 50.9867 59.8107 50.9854 59.065C50.9867 58.3193 51.2838 57.6046 51.8116 57.0777C52.3394 56.5509 53.0546 56.255 53.8004 56.255L79.4154 56.25Z" fill="#14C4B3"/>
<path d="M90.2852 94.4249L90.2352 93.0749C90.0089 88.3477 88.1924 83.8355 85.0802 80.2699C82.1553 77.1199 77.8802 75.035 72.9302 74.36L61.9602 72.955L61.2302 75.095C60.0236 78.5019 57.5356 81.3038 54.2952 82.9049C53.9752 83.0649 53.6502 83.21 53.2952 83.345C52.6308 83.6125 51.9472 83.8298 51.2502 83.995C47.887 84.796 44.3466 84.3316 41.3037 82.6903C38.2608 81.049 35.9281 78.3455 34.7502 75.095L34.0202 72.955L22.9952 74.36C18.1002 75.04 13.8252 77.1199 10.9552 80.2699C7.86523 83.6449 6.06523 88.4049 5.78023 93.0199L5.61523 96.0199H90.3452L90.2852 94.4249Z" fill="#14C4B3"/>
</g>
<defs>
<clipPath id="clip0">
<rect width="96" height="96" fill="white"/>
</clipPath>
</defs>
</svg>
