<svg width="96" height="96" viewBox="0 0 96 96" fill="none" xmlns="http://www.w3.org/2000/svg">
<g clip-path="url(#clip0)">
<path d="M89.3349 20.13V58.945C85.6729 56.6 81.4 55.3883 77.0521 55.4618C72.7041 55.5352 68.4747 56.8907 64.8939 59.3581C61.3132 61.8255 58.5406 65.2951 56.9237 69.3319C55.3068 73.3687 54.9176 77.793 55.8049 82.05H8.86992C8.28645 82.05 7.72687 81.8182 7.31429 81.4056C6.90171 80.9931 6.66992 80.4335 6.66992 79.85V20.13H89.3349Z" fill="#14C4B3"/>
<path d="M89.335 20.13H6.66504L21.89 0.84C22.0962 0.578414 22.359 0.366939 22.6586 0.221455C22.9583 0.0759709 23.287 0.000257534 23.62 0L72.38 0C72.7131 0.000257534 73.0418 0.0759709 73.3414 0.221455C73.6411 0.366939 73.9038 0.578414 74.11 0.84L89.335 20.13Z" fill="#06A797"/>
<path d="M55.4398 0H40.5598L37.3848 20.13H58.6148L55.4398 0Z" fill="#006EBD"/>
<path d="M58.6148 40.665L47.9998 31.93L37.3848 40.665V20.13H58.6148V40.665Z" fill="#006EBD"/>
<path d="M29.7754 57H16.2004C15.6899 57 15.2002 56.7972 14.8392 56.4362C14.4782 56.0752 14.2754 55.5856 14.2754 55.075C14.2754 54.5645 14.4782 54.0748 14.8392 53.7138C15.2002 53.3528 15.6899 53.15 16.2004 53.15H29.7754C30.2859 53.15 30.7756 53.3528 31.1366 53.7138C31.4976 54.0748 31.7004 54.5645 31.7004 55.075C31.7004 55.5856 31.4976 56.0752 31.1366 56.4362C30.7756 56.7972 30.2859 57 29.7754 57Z" fill="#006EBD"/>
<path d="M29.7754 65.5H16.2004C15.6899 65.5 15.2002 65.2972 14.8392 64.9362C14.4782 64.5752 14.2754 64.0856 14.2754 63.575C14.2754 63.0645 14.4782 62.5748 14.8392 62.2138C15.2002 61.8528 15.6899 61.65 16.2004 61.65H29.7754C30.2859 61.65 30.7756 61.8528 31.1366 62.2138C31.4976 62.5748 31.7004 63.0645 31.7004 63.575C31.7004 64.0856 31.4976 64.5752 31.1366 64.9362C30.7756 65.2972 30.2859 65.5 29.7754 65.5Z" fill="#006EBD"/>
<path d="M36.925 74.03H16.2C15.7057 74.0049 15.2401 73.7908 14.8992 73.4321C14.5583 73.0734 14.3682 72.5974 14.3682 72.1025C14.3682 71.6077 14.5583 71.1317 14.8992 70.773C15.2401 70.4143 15.7057 70.2002 16.2 70.175H36.925C37.4192 70.2002 37.8849 70.4143 38.2258 70.773C38.5667 71.1317 38.7568 71.6077 38.7568 72.1025C38.7568 72.5974 38.5667 73.0734 38.2258 73.4321C37.8849 73.7908 37.4192 74.0049 36.925 74.03Z" fill="#006EBD"/>
<path d="M96.0001 77.525C96.001 81.7538 94.5596 85.8565 91.9141 89.1557C89.2685 92.4548 85.5769 94.753 81.4488 95.6708C77.3208 96.5887 73.0031 96.0712 69.2088 94.204C65.4146 92.3367 62.3705 89.2313 60.5794 85.4005C58.7883 81.5697 58.3572 77.2425 59.3573 73.1336C60.3574 69.0247 62.7289 65.3798 66.0802 62.8006C69.4315 60.2214 73.5621 58.8623 77.7901 58.9476C82.0181 59.033 86.0906 60.5577 89.3351 63.27C91.4214 65.0136 93.0996 67.1939 94.2512 69.657C95.4029 72.1201 95.9999 74.806 96.0001 77.525Z" fill="#006EBD"/>
<path d="M88.2047 76.955L78.9997 67.5C78.8859 67.3842 78.7403 67.3047 78.5812 67.2717C78.4222 67.2387 78.2569 67.2537 78.1064 67.3148C77.9559 67.3758 77.827 67.4802 77.7359 67.6147C77.6448 67.7491 77.5956 67.9076 77.5947 68.07V87C77.5995 87.1608 77.6514 87.3165 77.744 87.448C77.8365 87.5794 77.9657 87.6808 78.1155 87.7394C78.2652 87.798 78.4288 87.8113 78.5861 87.7776C78.7433 87.744 78.8871 87.6648 78.9997 87.55L88.2197 78.095C88.3668 77.9408 88.4475 77.7351 88.4447 77.522C88.4419 77.3089 88.3558 77.1054 88.2047 76.955Z" fill="#F7F9FB"/>
<path d="M81.3653 73.405H67.2203C66.7702 73.405 66.4053 73.7699 66.4053 74.22V80.83C66.4053 81.2801 66.7702 81.645 67.2203 81.645H81.3653C81.8154 81.645 82.1803 81.2801 82.1803 80.83V74.22C82.1803 73.7699 81.8154 73.405 81.3653 73.405Z" fill="#F7F9FB"/>
</g>
<defs>
<clipPath id="clip0">
<rect width="96" height="96" fill="white"/>
</clipPath>
</defs>
</svg>
