<svg width="32" height="32" viewBox="0 0 32 32" fill="none" xmlns="http://www.w3.org/2000/svg">
<path d="M7.77099 9.33336L11.1523 12.7147L9.26699 14.6L2.66699 8.00002L9.26699 1.40002L11.1523 3.28536L7.77099 6.66669H17.3337C20.1626 6.66669 22.8757 7.7905 24.8761 9.79088C26.8765 11.7913 28.0003 14.5044 28.0003 17.3334C28.0003 20.1623 26.8765 22.8754 24.8761 24.8758C22.8757 26.8762 20.1626 28 17.3337 28H5.33366V25.3334H17.3337C19.4554 25.3334 21.4902 24.4905 22.9905 22.9902C24.4908 21.4899 25.3337 19.4551 25.3337 17.3334C25.3337 15.2116 24.4908 13.1768 22.9905 11.6765C21.4902 10.1762 19.4554 9.33336 17.3337 9.33336H7.77099Z" fill="#193856"/>
</svg>
