<svg width="24" height="25" viewBox="0 0 24 25" fill="none" xmlns="http://www.w3.org/2000/svg">
<path d="M12 13.1399C13.63 13.1399 15.07 13.5299 16.24 14.0399C17.32 14.5199 18 15.5999 18 16.7699V17.3899C18 17.9399 17.55 18.3899 17 18.3899H7C6.45 18.3899 6 17.9399 6 17.3899V16.7799C6 15.5999 6.68 14.5199 7.76 14.0499C8.93 13.5299 10.37 13.1399 12 13.1399ZM4 13.3899C5.1 13.3899 6 12.4899 6 11.3899C6 10.2899 5.1 9.38989 4 9.38989C2.9 9.38989 2 10.2899 2 11.3899C2 12.4899 2.9 13.3899 4 13.3899ZM5.13 14.4899C4.76 14.4299 4.39 14.3899 4 14.3899C3.01 14.3899 2.07 14.5999 1.22 14.9699C0.48 15.2899 0 16.0099 0 16.8199V17.3899C0 17.9399 0.45 18.3899 1 18.3899H4.5V16.7799C4.5 15.9499 4.73 15.1699 5.13 14.4899ZM20 13.3899C21.1 13.3899 22 12.4899 22 11.3899C22 10.2899 21.1 9.38989 20 9.38989C18.9 9.38989 18 10.2899 18 11.3899C18 12.4899 18.9 13.3899 20 13.3899ZM24 16.8199C24 16.0099 23.52 15.2899 22.78 14.9699C21.93 14.5999 20.99 14.3899 20 14.3899C19.61 14.3899 19.24 14.4299 18.87 14.4899C19.27 15.1699 19.5 15.9499 19.5 16.7799V18.3899H23C23.55 18.3899 24 17.9399 24 17.3899V16.8199ZM12 6.38989C13.66 6.38989 15 7.72989 15 9.38989C15 11.0499 13.66 12.3899 12 12.3899C10.34 12.3899 9 11.0499 9 9.38989C9 7.72989 10.34 6.38989 12 6.38989Z" fill="#97A2AC"/>
</svg>
