<svg width="96" height="96" viewBox="0 0 96 96" fill="none" xmlns="http://www.w3.org/2000/svg">
<g clip-path="url(#clip0)">
<path d="M48.0004 84.755C68.5122 84.755 85.1404 68.1268 85.1404 47.615C85.1404 27.1031 68.5122 10.475 48.0004 10.475C27.4885 10.475 10.8604 27.1031 10.8604 47.615C10.8604 68.1268 27.4885 84.755 48.0004 84.755Z" fill="#006EBD"/>
<path fill-rule="evenodd" clip-rule="evenodd" d="M94.7801 39.5C91.4251 41.235 84.7001 44.745 81.4451 46.425C80.1801 47.14 79.1701 46.89 78.7501 45.705C77.0001 42.5 73.3101 35.5 73.3101 35.5V90.605C73.3101 92.105 72.1751 93.105 70.1851 93.105H25.8251C23.9101 93.105 22.7651 92.105 22.7651 90.605V35.5C22.7651 35.5 19.0401 42.5 17.2901 45.72C16.8401 46.905 15.8301 47.155 14.5551 46.44C11.3001 44.76 4.57007 41.25 1.25007 39.5C-0.0899342 38.79 -0.409934 37.57 0.570066 35.84C3.74507 29.05 12.1251 11.57 14.2351 9.79C16.8101 7.59 22.2051 7.035 36.0001 2.875C39.8751 9.93 56.1251 10.085 60.1451 2.875C73.8901 7.035 79.2751 7.59 81.8601 9.79C83.9051 11.57 92.2701 29.05 95.4251 35.855C96.4251 37.585 96.1101 38.805 94.8001 39.515L94.7801 39.5Z" fill="#14C4B3"/>
<path d="M48.5554 27.5549L51.6554 33.8399C51.7008 33.9301 51.7671 34.0081 51.8489 34.0673C51.9307 34.1264 52.0255 34.1651 52.1254 34.1799L59.0604 35.1799C59.1741 35.1975 59.2806 35.2463 59.3681 35.3209C59.4557 35.3955 59.5207 35.493 59.556 35.6025C59.5913 35.712 59.5954 35.8291 59.5679 35.9408C59.5404 36.0525 59.4824 36.1543 59.4004 36.2349L54.4004 41.1299C54.3283 41.1993 54.2743 41.2852 54.2429 41.3802C54.2116 41.4751 54.2038 41.5763 54.2204 41.6749L55.4054 48.5849C55.4242 48.6987 55.4109 48.8155 55.367 48.9222C55.323 49.0288 55.2502 49.1211 55.1567 49.1887C55.0632 49.2562 54.9527 49.2963 54.8376 49.3045C54.7226 49.3127 54.6075 49.2886 54.5054 49.2349L48.2904 45.9999C48.2009 45.9531 48.1014 45.9286 48.0004 45.9286C47.8994 45.9286 47.7999 45.9531 47.7104 45.9999L41.5004 49.2399C41.3983 49.2936 41.2832 49.3177 41.1682 49.3095C41.0531 49.3013 40.9426 49.2612 40.8491 49.1937C40.7556 49.1261 40.6828 49.0338 40.6388 48.9272C40.5949 48.8205 40.5816 48.7037 40.6004 48.5899L41.7854 41.6799C41.802 41.5813 41.7942 41.4801 41.7629 41.3852C41.7315 41.2902 41.6774 41.2043 41.6054 41.1349L36.6054 36.2399C36.5233 36.1593 36.4653 36.0575 36.4379 35.9458C36.4104 35.8341 36.4145 35.717 36.4498 35.6075C36.4851 35.498 36.5501 35.4005 36.6376 35.3259C36.7252 35.2513 36.8317 35.2025 36.9454 35.1849L43.8804 34.1849C43.9802 34.1701 44.0751 34.1314 44.1569 34.0722C44.2386 34.0131 44.305 33.9351 44.3504 33.8449L47.4504 27.5599C47.5018 27.4578 47.5805 27.3718 47.6778 27.3116C47.775 27.2514 47.887 27.2193 48.0014 27.2188C48.1157 27.2182 48.228 27.2494 48.3258 27.3087C48.4236 27.368 48.503 27.4533 48.5554 27.5549Z" fill="#006EBD"/>
<path d="M65.5349 55.795H30.4648V20.73H65.5349V55.795ZM31.4648 54.795H64.5349V21.73H31.4648V54.795Z" fill="#F7F9FB"/>
<path d="M33.1851 19.01H28.7451V23.45H33.1851V19.01Z" fill="#F7F9FB"/>
<path d="M67.2554 19.01H62.8154V23.45H67.2554V19.01Z" fill="#F7F9FB"/>
<path d="M67.2554 53.075H62.8154V57.5149H67.2554V53.075Z" fill="#F7F9FB"/>
<path d="M33.1851 53.075H28.7451V57.5149H33.1851V53.075Z" fill="#F7F9FB"/>
</g>
<defs>
<clipPath id="clip0">
<rect width="96" height="96" fill="white"/>
</clipPath>
</defs>
</svg>
