<svg width="96" height="96" viewBox="0 0 96 96" fill="none" xmlns="http://www.w3.org/2000/svg">
<g clip-path="url(#clip0)">
<path d="M87.2804 4.775L95.8904 48.935C96.0415 49.6962 96.0404 50.4798 95.8874 51.2406C95.7344 52.0014 95.4324 52.7245 94.9988 53.3681C94.5652 54.0117 94.0086 54.5633 93.361 54.9909C92.7134 55.4186 91.9876 55.714 91.2254 55.86L20.8705 69.575C20.1092 69.726 19.3257 69.725 18.5648 69.5719C17.804 69.4189 17.081 69.1169 16.4373 68.6833C15.7937 68.2497 15.2422 67.6931 14.8145 67.0456C14.3869 66.398 14.0915 65.6722 13.9454 64.91L5.33545 20.75C5.18649 19.9889 5.18903 19.206 5.34292 18.4459C5.49681 17.6858 5.79904 16.9636 6.23231 16.3204C6.66558 15.6772 7.2214 15.1258 7.86797 14.6976C8.51454 14.2694 9.23918 13.9729 10.0004 13.825L80.3555 0.109998C81.8924 -0.189461 83.4853 0.133758 84.7839 1.00858C86.0825 1.8834 86.9805 3.23818 87.2804 4.775Z" fill="#006EBD"/>
<path d="M88.2222 9.51641L6.25 25.4948L8.08479 34.9076L90.057 18.9293L88.2222 9.51641Z" fill="#14C4B3"/>
<path d="M77.605 95.9999H5.905C5.12936 96.0006 4.3612 95.8483 3.64448 95.5518C2.92775 95.2553 2.27653 94.8203 1.72807 94.2719C1.17961 93.7234 0.744675 93.0722 0.448154 92.3555C0.151633 91.6387 -0.000655481 90.8706 2.12064e-06 90.0949V45.0949C2.12064e-06 43.5288 0.622134 42.0269 1.72954 40.9195C2.83694 39.8121 4.3389 39.1899 5.905 39.1899H77.605C79.1694 39.1926 80.6688 39.8159 81.774 40.923C82.8792 42.0301 83.5 43.5306 83.5 45.0949V90.0949C83.5 91.6593 82.8792 93.1598 81.774 94.2669C80.6688 95.374 79.1694 95.9973 77.605 95.9999Z" fill="#14C4B3"/>
<path d="M57.1402 62.4301C61.1111 62.4301 64.3302 59.211 64.3302 55.2401C64.3302 51.2691 61.1111 48.05 57.1402 48.05C53.1693 48.05 49.9502 51.2691 49.9502 55.2401C49.9502 59.211 53.1693 62.4301 57.1402 62.4301Z" fill="#006EBD"/>
<path d="M67.4654 62.4301C71.4363 62.4301 74.6554 59.211 74.6554 55.2401C74.6554 51.2691 71.4363 48.05 67.4654 48.05C63.4945 48.05 60.2754 51.2691 60.2754 55.2401C60.2754 59.211 63.4945 62.4301 67.4654 62.4301Z" fill="#06A797"/>
<path d="M24.7099 73.3399H10.7449C9.96253 73.3399 9.21219 73.0291 8.65896 72.4759C8.10572 71.9227 7.79492 71.1723 7.79492 70.3899C7.79492 69.6075 8.10572 68.8572 8.65896 68.304C9.21219 67.7507 9.96253 67.4399 10.7449 67.4399H24.7099C25.4923 67.4399 26.2427 67.7507 26.7959 68.304C27.3491 68.8572 27.6599 69.6075 27.6599 70.3899C27.6599 71.1723 27.3491 71.9227 26.7959 72.4759C26.2427 73.0291 25.4923 73.3399 24.7099 73.3399Z" fill="#F7F9FB"/>
<path d="M37.1855 58.19H10.7455C10.3475 58.2064 9.95037 58.1421 9.57787 58.0011C9.20538 57.8601 8.86523 57.6453 8.57786 57.3695C8.2905 57.0937 8.06185 56.7627 7.90566 56.3963C7.74946 56.0299 7.66895 55.6358 7.66895 55.2375C7.66895 54.8392 7.74946 54.445 7.90566 54.0786C8.06185 53.7122 8.2905 53.3812 8.57786 53.1054C8.86523 52.8297 9.20538 52.6148 9.57787 52.4738C9.95037 52.3328 10.3475 52.2686 10.7455 52.285H37.1855C37.5834 52.2686 37.9806 52.3328 38.3531 52.4738C38.7256 52.6148 39.0657 52.8297 39.3531 53.1054C39.6404 53.3812 39.8691 53.7122 40.0253 54.0786C40.1815 54.445 40.262 54.8392 40.262 55.2375C40.262 55.6358 40.1815 56.0299 40.0253 56.3963C39.8691 56.7627 39.6404 57.0937 39.3531 57.3695C39.0657 57.6453 38.7256 57.8601 38.3531 58.0011C37.9806 58.1421 37.5834 58.2064 37.1855 58.19Z" fill="#F7F9FB"/>
<path d="M19.3897 88.5H10.7397C9.97769 88.4686 9.2573 88.1438 8.72922 87.5936C8.20113 87.0433 7.90625 86.3101 7.90625 85.5475C7.90625 84.7848 8.20113 84.0517 8.72922 83.5014C9.2573 82.9511 9.97769 82.6263 10.7397 82.595H19.3897C20.1518 82.6263 20.8721 82.9511 21.4002 83.5014C21.9283 84.0517 22.2232 84.7848 22.2232 85.5475C22.2232 86.3101 21.9283 87.0433 21.4002 87.5936C20.8721 88.1438 20.1518 88.4686 19.3897 88.5Z" fill="#F7F9FB"/>
<path d="M37.1846 88.5H28.5346C27.7726 88.4687 27.0522 88.1439 26.5241 87.5936C25.9961 87.0433 25.7012 86.3102 25.7012 85.5475C25.7012 84.7849 25.9961 84.0517 26.5241 83.5014C27.0522 82.9512 27.7726 82.6264 28.5346 82.595H37.1846C37.5826 82.5786 37.9797 82.6429 38.3522 82.7839C38.7247 82.9249 39.0649 83.1397 39.3523 83.4155C39.6396 83.6913 39.8683 84.0223 40.0245 84.3887C40.1807 84.7551 40.2612 85.1492 40.2612 85.5475C40.2612 85.9458 40.1807 86.34 40.0245 86.7064C39.8683 87.0728 39.6396 87.4038 39.3523 87.6796C39.0649 87.9553 38.7247 88.1702 38.3522 88.3112C37.9797 88.4522 37.5826 88.5164 37.1846 88.5Z" fill="#F7F9FB"/>
<path d="M55.0004 88.5H46.3304C45.9325 88.5164 45.5353 88.4522 45.1628 88.3112C44.7903 88.1702 44.4502 87.9553 44.1628 87.6796C43.8755 87.4038 43.6468 87.0728 43.4906 86.7064C43.3344 86.34 43.2539 85.9458 43.2539 85.5475C43.2539 85.1492 43.3344 84.7551 43.4906 84.3887C43.6468 84.0223 43.8755 83.6913 44.1628 83.4155C44.4502 83.1397 44.7903 82.9249 45.1628 82.7839C45.5353 82.6429 45.9325 82.5786 46.3304 82.595H55.0004C55.7625 82.6264 56.4829 82.9512 57.0109 83.5014C57.539 84.0517 57.8339 84.7849 57.8339 85.5475C57.8339 86.3102 57.539 87.0433 57.0109 87.5936C56.4829 88.1439 55.7625 88.4687 55.0004 88.5Z" fill="#F7F9FB"/>
<path d="M72.7696 88.5H64.1196C63.3576 88.4687 62.6372 88.1439 62.1091 87.5936C61.581 87.0433 61.2861 86.3102 61.2861 85.5475C61.2861 84.7849 61.581 84.0517 62.1091 83.5014C62.6372 82.9512 63.3576 82.6264 64.1196 82.595H72.7696C73.1676 82.5786 73.5647 82.6429 73.9372 82.7839C74.3097 82.9249 74.6499 83.1397 74.9372 83.4155C75.2246 83.6913 75.4532 84.0223 75.6094 84.3887C75.7656 84.7551 75.8461 85.1492 75.8461 85.5475C75.8461 85.9458 75.7656 86.34 75.6094 86.7064C75.4532 87.0728 75.2246 87.4038 74.9372 87.6796C74.6499 87.9553 74.3097 88.1702 73.9372 88.3112C73.5647 88.4522 73.1676 88.5164 72.7696 88.5Z" fill="#F7F9FB"/>
</g>
<defs>
<clipPath id="clip0">
<rect width="96" height="96" fill="white"/>
</clipPath>
</defs>
</svg>
