<svg width="140" height="140" viewBox="0 0 140 140" fill="none" xmlns="http://www.w3.org/2000/svg">
<circle cx="70" cy="70" r="70" fill="#0E253C"/>
<path d="M51 81C47.48 81 44.57 83.61 44.08 87H40V89H44.08C44.57 92.39 47.48 95 51 95C54.86 95 58 91.86 58 88C58 84.14 54.86 81 51 81ZM51 93C48.24 93 46 90.76 46 88C46 85.24 48.24 83 51 83C53.76 83 56 85.24 56 88C56 90.76 53.76 93 51 93Z" fill="#EBF0F4"/>
<path d="M90 70H88C86.9 70 86 69.1 86 68V66C86 65.45 85.55 65 85 65C84.45 65 84 65.45 84 66V68C84 70.21 85.79 72 88 72H90C90.55 72 91 71.55 91 71C91 70.45 90.55 70 90 70Z" fill="#EBF0F4"/>
<path d="M100.27 70.65L88.95 57.71C88 56.62 86.63 56 85.18 56H79V46C79 45.45 78.55 45 78 45H43V47H77V56V58V87H62V89H77H78H83.08C83.57 92.39 86.48 95 90 95C93.52 95 96.43 92.39 96.92 89H98C100.21 89 102 87.21 102 85V75.25C102 73.56 101.38 71.92 100.27 70.65ZM90 93C87.24 93 85 90.76 85 88C85 85.24 87.24 83 90 83C92.76 83 95 85.24 95 88C95 90.76 92.76 93 90 93ZM100 85C100 86.1 99.1 87 98 87H96.92C96.43 83.61 93.52 81 90 81C86.48 81 83.57 83.61 83.08 87H79V58H85.18C86.05 58 86.87 58.37 87.44 59.02L98.76 71.96C99.56 72.87 100 74.04 100 75.25V85Z" fill="#EBF0F4"/>
<path d="M74 66C74 65.65 73.82 65.33 73.52 65.15L60.52 57.15C60.21 56.96 59.82 56.95 59.51 57.13C59.2 57.3 59 57.64 59 58V60H48V62H60C60.55 62 61 61.55 61 61V59.79L71.09 66L61 72.21V71C61 70.45 60.55 70 60 70H46V72H59V74C59 74.36 59.2 74.7 59.51 74.87C59.66 74.96 59.83 75 60 75C60.18 75 60.36 74.95 60.52 74.85L73.52 66.85C73.82 66.67 74 66.35 74 66Z" fill="#EBF0F4"/>
<path d="M44 60H38V62H44V60Z" fill="#EBF0F4"/>
<circle cx="20" cy="20" r="20" fill="#3CBFB3"/>
<path d="M17 24.17L12.83 20L11.41 21.41L17 27L29 15L27.59 13.59L17 24.17Z" fill="white"/>
</svg>
