<svg width="140" height="140" viewBox="0 0 140 140" fill="none" xmlns="http://www.w3.org/2000/svg">
<circle cx="70" cy="70" r="70" fill="#0E253C"/>
<path d="M101.23 43.0361L80.23 38.0366C79.93 37.9666 79.62 38.0366 79.38 38.2265C79.14 38.4165 79 38.6965 79 39.0065C79 43.966 74.96 48.0055 70 48.0055C65.04 48.0055 61 43.966 61 39.0065C61 38.6965 60.86 38.4165 60.62 38.2165C60.38 38.0266 60.06 37.9566 59.77 38.0266L38.77 43.0261C38.32 43.136 38 43.546 38 44.006V58.0045C38 58.5545 38.45 59.0044 39 59.0044H48V85.0017H50V58.0045C50 57.4546 49.55 57.0046 49 57.0046H40V44.7959L59.07 40.2563C59.69 45.7358 64.36 50.0053 70 50.0053C75.64 50.0053 80.31 45.7358 80.93 40.2563L100 44.7959V57.0046H91C90.45 57.0046 90 57.4546 90 58.0045V61.0042H92V59.0044H101C101.55 59.0044 102 58.5545 102 58.0045V44.006C102 43.546 101.68 43.136 101.23 43.0361Z" fill="#EBF0F4"/>
<path d="M97 65.0038H94.66C93.32 65.0038 92.07 65.5238 91.12 66.4637L90.88 66.7037C90.69 66.8937 90.43 67.0036 90.17 67.0036H88.83C88.57 67.0036 88.31 66.8937 88.12 66.7137L87.29 65.8838C86.73 65.3138 85.97 65.0038 85.17 65.0038H83C81.9 65.0038 81 65.9038 81 67.0036H76C75.45 67.0036 75 67.4536 75 68.0035V99.0004C75 99.5503 75.45 100 76 100H81C81 101.1 81.9 102 83 102H85.17C85.97 102 86.72 101.69 87.29 101.12L88.12 100.29C88.31 100.1 88.56 100 88.83 100H90.17C90.43 100 90.69 100.11 90.88 100.29L91.71 101.12C92.28 101.69 93.03 102 93.83 102H97C99.76 102 102 99.7603 102 97.0006V70.0033C102 67.2436 99.76 65.0038 97 65.0038ZM77 98.0005V69.0034H81V98.0005H77ZM100 97.0006C100 98.6504 98.65 100 97 100H93.83C93.57 100 93.31 99.8903 93.12 99.7103L92.29 98.8804C92.2 98.7904 92.1 98.7204 92 98.6404V95.0008C92 94.4508 91.55 94.0009 91 94.0009C90.45 94.0009 90 94.4508 90 95.0008V98.0005H88.83C88.03 98.0005 87.28 98.3104 86.71 98.8804L85.88 99.7103C85.69 99.8903 85.43 100 85.17 100H83V67.0036H85.17C85.43 67.0036 85.69 67.1136 85.88 67.2936L86.71 68.1235C87.28 68.6935 88.03 69.0034 88.83 69.0034H90V81.0022C90 81.5521 90.45 82.0021 91 82.0021C91.55 82.0021 92 81.5521 92 81.0022V68.3635C92.1 68.2835 92.2 68.2135 92.29 68.1235L92.53 67.8835C93.1 67.3136 93.86 67.0036 94.66 67.0036H97C98.65 67.0036 100 68.3535 100 70.0033V97.0006Z" fill="#EBF0F4"/>
<path d="M70 98.0004H53C51.35 98.0004 50 96.6506 50 95.0007C50 93.3509 51.35 92.0011 53 92.0011H64C66.21 92.0011 68 90.2112 68 88.0015C68 85.7917 66.21 84.0019 64 84.0019H60.5C59.12 84.0019 58 82.882 58 81.5021C58 80.1223 59.12 79.0024 60.5 79.0024H63C65.76 79.0024 68 76.7626 68 74.0029C68 72.4631 68.77 71.0232 70.05 70.1733L70.55 69.8333C71.01 69.5234 71.13 68.9034 70.83 68.4435C70.52 67.9835 69.9 67.8635 69.44 68.1635L68.94 68.5035C67.1 69.7333 66 71.7931 66 74.0029C66 75.6527 64.65 77.0026 63 77.0026H60.5C58.02 77.0026 56 79.0224 56 81.5021C56 83.9819 58.02 86.0017 60.5 86.0017H64C65.1 86.0017 66 86.9016 66 88.0015C66 89.1014 65.1 90.0013 64 90.0013H53C50.24 90.0013 48 92.241 48 95.0007C48 97.7605 50.24 100 53 100H70C70.55 100 71 99.5503 71 99.0003C71 98.4504 70.55 98.0004 70 98.0004Z" fill="#EBF0F4"/>
<circle cx="20" cy="20" r="20" fill="#3CBFB3"/>
<path d="M17 24.17L12.83 20L11.41 21.41L17 27L29 15L27.59 13.59L17 24.17Z" fill="white"/>
</svg>
