<svg width="96" height="96" viewBox="0 0 96 96" fill="none" xmlns="http://www.w3.org/2000/svg">
<g clip-path="url(#clip0)">
<path d="M82.7452 19.35H70.0652C69.8812 24.694 67.7572 29.7882 64.0902 33.68C63.9802 33.8066 63.8652 33.9266 63.7452 34.04C63.6252 34.165 63.5052 34.285 63.3802 34.405C59.2652 38.4157 53.7464 40.6603 48.0002 40.6603C42.254 40.6603 36.7351 38.4157 32.6202 34.405C32.4952 34.285 32.3752 34.165 32.2552 34.04C32.1352 33.915 32.0202 33.805 31.9102 33.68C28.2341 29.7919 26.101 24.6974 25.9102 19.35H14.1802C12.5889 19.35 11.0628 19.9821 9.93753 21.1073C8.81232 22.2326 8.18018 23.7587 8.18018 25.35V90C8.18018 91.5913 8.81232 93.1174 9.93753 94.2426C11.0628 95.3678 12.5889 96 14.1802 96H82.7452C84.3365 96 85.8626 95.3678 86.9878 94.2426C88.113 93.1174 88.7452 91.5913 88.7452 90V25.35C88.7452 23.7587 88.113 22.2326 86.9878 21.1073C85.8626 19.9821 84.3365 19.35 82.7452 19.35Z" fill="#14C4B3"/>
<path d="M66.2599 66.9351H30.6699V96.0001H66.2599V66.9351Z" fill="#006EBD"/>
<path d="M64.09 33.6801C63.98 33.8067 63.865 33.9267 63.745 34.0401C63.625 34.1651 63.505 34.2851 63.38 34.4051C59.2651 38.4158 53.7462 40.6604 48 40.6604C42.2539 40.6604 36.735 38.4158 32.62 34.4051C32.495 34.2851 32.375 34.1651 32.255 34.0401C32.135 33.9151 32.02 33.8051 31.91 33.6801H0.0400391V47.0001V47.3601C0.199474 49.4501 1.10557 51.413 2.59277 52.8901C4.07997 54.3672 6.04898 55.2599 8.14004 55.4051C8.35004 55.4051 8.56004 55.4051 8.77504 55.4051C10.6019 55.4182 12.3869 54.8585 13.8793 53.8047C15.3716 52.751 16.4962 51.256 17.095 49.5301C17.356 52.001 18.4847 54.2994 20.2806 56.0166C22.0765 57.7337 24.4231 58.7584 26.9033 58.9083C29.3835 59.0583 31.8365 58.3238 33.8262 56.8355C35.8159 55.3473 37.2133 53.2016 37.77 50.7801C38.3048 53.0926 39.6074 55.1556 41.4652 56.6328C43.323 58.1101 45.6265 58.9142 48 58.9142C50.3736 58.9142 52.6771 58.1101 54.5349 56.6328C56.3927 55.1556 57.6952 53.0926 58.23 50.7801C58.7868 53.2016 60.1842 55.3473 62.1739 56.8355C64.1636 58.3238 66.6166 59.0583 69.0968 58.9083C71.577 58.7584 73.9236 57.7337 75.7195 56.0166C77.5154 54.2994 78.6441 52.001 78.905 49.5301C79.5009 51.2518 80.6196 52.7445 82.105 53.7995C83.5903 54.8546 85.3681 55.4194 87.19 55.4151C87.7116 55.4167 88.2322 55.3699 88.745 55.2751C90.6513 54.9367 92.3909 53.9738 93.6899 52.5382C94.9889 51.1025 95.7734 49.2756 95.92 47.3451H95.96V33.6801H64.09Z" fill="#006EBD"/>
<path d="M37.1748 33.68C37.3498 33.805 37.5198 33.925 37.6998 34.04L38.2598 34.405C41.1915 36.2103 44.5668 37.1661 48.0098 37.1661C51.4527 37.1661 54.8281 36.2103 57.7598 34.405C57.9498 34.285 58.1398 34.165 58.3248 34.04C58.5098 33.915 58.6748 33.805 58.8248 33.68C61.1206 32.0382 63.0112 29.8938 64.3526 27.4104C65.6939 24.927 66.4505 22.1702 66.5648 19.35C66.5648 19.095 66.5648 18.85 66.5648 18.58C66.5648 13.6523 64.6073 8.92638 61.1228 5.44196C57.6384 1.95753 52.9125 0 47.9848 0C43.0571 0 38.3312 1.95753 34.8467 5.44196C31.3623 8.92638 29.4048 13.6523 29.4048 18.58C29.4048 18.84 29.4048 19.08 29.4048 19.35C29.5236 22.1725 30.2853 24.9305 31.6319 27.4139C32.9784 29.8974 34.8742 32.0405 37.1748 33.68Z" fill="#006EBD"/>
<path d="M56.1199 16.44H50.5099L52.0799 2.755L39.8799 20.72H45.4899L43.9199 34.405L56.1199 16.44Z" fill="#F7F9FB"/>
</g>
<defs>
<clipPath id="clip0">
<rect width="96" height="96" fill="white"/>
</clipPath>
</defs>
</svg>
