<svg width="280" height="64" viewBox="0 0 280 64" fill="none" xmlns="http://www.w3.org/2000/svg">
<path fill-rule="evenodd" clip-rule="evenodd" d="M123.655 1.25729L124.957 0.622039L126.752 3.01587L125.45 3.65112L123.655 1.25729ZM118.449 3.7983L121.052 2.52779L122.847 4.92162L120.244 6.19213L118.449 3.7983ZM113.242 6.3393L115.846 5.0688L117.64 7.46263L115.037 8.73313L113.242 6.3393ZM108.036 8.88031L110.639 7.6098L112.434 10.0036L109.831 11.2741L108.036 8.88031ZM102.829 11.4213L105.432 10.1508L107.227 12.5446L104.624 13.8151L102.829 11.4213ZM97.6226 13.9623L100.226 12.6918L102.021 15.0856L99.4175 16.3561L97.6226 13.9623ZM92.416 16.5033L95.0193 15.2328L96.8143 17.6267L94.211 18.8972L92.416 16.5033ZM87.2095 19.0443L89.8127 17.7738L91.6077 20.1677L89.0044 21.4382L87.2095 19.0443ZM82.0029 21.5853L84.6062 20.3148L86.4012 22.7087L83.7979 23.9792L82.0029 21.5853ZM76.7963 24.1263L79.3996 22.8558L81.1946 25.2497L78.5913 26.5202L76.7963 24.1263ZM71.5898 26.6673L74.1931 25.3968L75.988 27.7907L73.3848 29.0612L71.5898 26.6673ZM66.3832 29.2084L68.9865 27.9378L70.7815 30.3317L68.1782 31.6022L66.3832 29.2084ZM61.1767 31.7494L63.78 30.4789L65.5749 32.8727L62.9717 34.1432L61.1767 31.7494ZM55.9701 34.2904L58.5734 33.0199L60.3684 35.4137L57.7651 36.6842L55.9701 34.2904ZM50.7636 36.8314L53.3668 35.5609L55.1618 37.9547L52.5586 39.2252L50.7636 36.8314ZM45.557 39.3724L48.1603 38.1019L49.9553 40.4957L47.352 41.7662L45.557 39.3724ZM40.3505 41.9134L42.9537 40.6429L44.7487 43.0367L42.1454 44.3072L40.3505 41.9134ZM35.1439 44.4544L37.7472 43.1839L39.5422 45.5777L36.9389 46.8482L35.1439 44.4544ZM29.9374 46.9954L32.5406 45.7249L34.3356 48.1187L31.7324 49.3892L29.9374 46.9954ZM24.7308 49.5364L27.3341 48.2659L29.1291 50.6597L26.5258 51.9302L24.7308 49.5364ZM19.5243 52.0774L22.1276 50.8069L23.9225 53.2007L21.3193 54.4712L19.5243 52.0774ZM14.3177 54.6184L16.921 53.3479L18.716 55.7417L16.1127 57.0122L14.3177 54.6184ZM9.1112 57.1594L11.7145 55.8889L13.5094 58.2827L10.9062 59.5532L9.1112 57.1594ZM3.90465 59.7004L6.50792 58.4299L8.30291 60.8237L5.69963 62.0942L3.90465 59.7004ZM-0.000319439 61.6062L1.30137 60.9709L3.09636 63.3647L1.79466 64L-0.000319439 61.6062Z" fill="#14C4B3"/>
<path fill-rule="evenodd" clip-rule="evenodd" d="M157.141 3.04115L155.81 2.3873L157.613 0L158.944 0.653852L157.141 3.04115ZM162.462 5.65656L159.801 4.34885L161.604 1.96156L164.265 3.26926L162.462 5.65656ZM167.783 8.27197L165.122 6.96426L166.925 4.57697L169.586 5.88467L167.783 8.27197ZM173.104 10.8874L170.444 9.57967L172.246 7.19238L174.907 8.50008L173.104 10.8874ZM178.425 13.5028L175.765 12.1951L177.568 9.80779L180.228 11.1155L178.425 13.5028ZM183.746 16.1182L181.086 14.8105L182.889 12.4232L185.549 13.7309L183.746 16.1182ZM189.068 18.7336L186.407 17.4259L188.21 15.0386L190.87 16.3463L189.068 18.7336ZM194.389 21.349L191.728 20.0413L193.531 17.654L196.192 18.9617L194.389 21.349ZM199.71 23.9644L197.049 22.6567L198.852 20.2694L201.513 21.5771L199.71 23.9644ZM205.031 26.5798L202.37 25.2721L204.173 22.8848L206.834 24.1925L205.031 26.5798ZM210.352 29.1952L207.692 27.8875L209.494 25.5002L212.155 26.8079L210.352 29.1952ZM215.673 31.8106L213.013 30.5029L214.816 28.1156L217.476 29.4233L215.673 31.8106ZM220.994 34.4261L218.334 33.1184L220.137 30.7311L222.797 32.0388L220.994 34.4261ZM226.316 37.0415L223.655 35.7338L225.458 33.3465L228.118 34.6542L226.316 37.0415ZM231.637 39.6569L228.976 38.3492L230.779 35.9619L233.439 37.2696L231.637 39.6569ZM236.958 42.2723L234.297 40.9646L236.1 38.5773L238.761 39.885L236.958 42.2723ZM242.279 44.8877L239.618 43.58L241.421 41.1927L244.082 42.5004L242.279 44.8877ZM247.6 47.5031L244.939 46.1954L246.742 43.8081L249.403 45.1158L247.6 47.5031ZM252.921 50.1185L250.261 48.8108L252.063 46.4235L254.724 47.7312L252.921 50.1185ZM258.242 52.7339L255.582 51.4262L257.385 49.0389L260.045 50.3466L258.242 52.7339ZM263.564 55.3493L260.903 54.0416L262.706 51.6543L265.366 52.962L263.564 55.3493ZM268.885 57.9647L266.224 56.657L268.027 54.2697L270.687 55.5774L268.885 57.9647ZM274.206 60.5802L271.545 59.2724L273.348 56.8852L276.009 58.1929L274.206 60.5802ZM278.197 62.5417L276.866 61.8879L278.669 59.5006L279.999 60.1544L278.197 62.5417Z" fill="#14C4B3"/>
</svg>
