<svg width="288" height="83" viewBox="0 0 288 83" fill="none" xmlns="http://www.w3.org/2000/svg">
<path d="M90.3126 26.0127C99.3937 26.0127 106.615 32.4286 106.615 41.4488C106.615 50.5272 99.3937 56.8849 90.3126 56.8849C81.2902 56.8849 74.0693 50.5272 74.0693 41.4488C74.084 32.4141 81.3049 26.0127 90.3126 26.0127ZM90.3126 50.629C95.1461 50.629 99.1593 46.9336 99.1593 41.4343C99.1593 35.9931 95.1461 32.2395 90.3126 32.2395C85.5378 32.2395 81.5246 35.9931 81.5246 41.4343C81.5246 46.9336 85.5378 50.629 90.3126 50.629Z" fill="white"/>
<path d="M125.787 26.0127C134.868 26.0127 142.089 32.4286 142.089 41.4488C142.089 50.5272 134.868 56.8849 125.787 56.8849C116.765 56.8849 109.544 50.5272 109.544 41.4488C109.559 32.4141 116.779 26.0127 125.787 26.0127ZM125.787 50.629C130.621 50.629 134.634 46.9336 134.634 41.4343C134.634 35.9931 130.621 32.2395 125.787 32.2395C121.012 32.2395 116.999 35.9931 116.999 41.4343C116.999 46.9336 121.027 50.629 125.787 50.629Z" fill="white"/>
<path d="M147.655 46.8176C147.655 46.8176 151.434 51.1531 156.502 51.1531C158.772 51.1531 160.515 50.222 160.515 48.258C160.515 44.097 144.857 44.1552 144.857 34.6113C144.857 28.7191 150.218 25.9985 156.384 25.9985C160.398 25.9985 166.798 27.3225 166.798 32.1235V35.1933H160.28V33.753C160.28 32.3708 158.186 31.6725 156.56 31.6725C153.938 31.6725 152.137 32.6036 152.137 34.3349C152.137 38.9614 167.911 38.0303 167.911 47.8651C167.911 53.4082 162.961 56.8853 156.502 56.8853C148.358 56.8853 144.169 51.6187 144.169 51.6187L147.655 46.8176Z" fill="white"/>
<path d="M172.027 22.652C172.027 21.7791 171.558 21.3863 170.753 21.3863H168.424V15.1304H175.469C178.208 15.1304 179.424 16.3379 179.424 19.0003V29.3444C179.424 30.7847 179.306 31.8322 179.306 31.8322H179.424C180.815 28.9952 184.491 25.9982 189.603 25.9982C196.238 25.9982 199.958 29.4026 199.958 37.2152V48.7232C199.958 49.5379 200.427 49.9889 201.233 49.9889H203.562V56.1721H196.516C193.777 56.1721 192.62 55.0228 192.62 52.244V38.7137C192.62 35.1348 191.624 32.7051 187.904 32.7051C184.008 32.7051 180.976 35.2511 179.878 38.8301C179.526 39.9795 179.409 41.2597 179.409 42.6419V56.1721H172.012V22.652H172.027Z" fill="white"/>
<path d="M207.238 34.2182C207.238 33.3598 206.769 32.9525 205.964 32.9525H203.635V26.7111H210.68C213.419 26.7111 214.576 27.9186 214.576 30.6392V48.7377C214.576 49.5525 215.045 50.0035 215.85 50.0035H218.179V56.1866H211.134C208.395 56.1866 207.238 55.0373 207.238 52.2585V34.2182ZM207.589 15.1304H213.99V21.8955H207.589V15.1304Z" fill="white"/>
<path d="M223.159 34.2182C223.159 33.3598 222.69 32.9524 221.885 32.9524H219.556V26.7111H226.308C228.93 26.7111 230.262 27.8022 230.262 30.29V32.0213C230.262 33.1125 230.145 33.869 230.145 33.869H230.262C231.595 29.6499 235.154 26.3037 239.695 26.3037C240.339 26.3037 241.028 26.4201 241.028 26.4201V33.6508C241.028 33.6508 240.266 33.5344 239.226 33.5344C236.077 33.5344 232.474 35.3239 231.141 39.7176C230.731 41.1579 230.497 42.7873 230.497 44.5186V56.2012H223.159V34.2182Z" fill="white"/>
<path d="M247.253 32.5309H243.416V26.6969H247.429V18.666H254.65V26.6969H261.402V32.5309H254.65V44.4462C254.65 49.3055 258.488 49.9892 260.523 49.9892C261.344 49.9892 261.871 49.8728 261.871 49.8728V56.2888C261.871 56.2888 260.934 56.4634 259.601 56.4634C255.47 56.4634 247.268 55.2558 247.268 45.3628V32.5309H247.253Z" fill="white"/>
<path d="M267.744 46.8176C267.744 46.8176 271.523 51.1531 276.59 51.1531C278.861 51.1531 280.604 50.222 280.604 48.258C280.604 44.097 264.946 44.1552 264.946 34.6113C264.946 28.7191 270.307 25.9985 276.473 25.9985C280.486 25.9985 286.887 27.3225 286.887 32.1235V35.1933H280.369V33.753C280.369 32.3708 278.275 31.6725 276.649 31.6725C274.027 31.6725 272.226 32.6036 272.226 34.3349C272.226 38.9614 288 38.0303 288 47.8651C288 53.4082 283.05 56.8853 276.59 56.8853C268.447 56.8853 264.258 51.6187 264.258 51.6187L267.744 46.8176Z" fill="white"/>
<path d="M58.4842 13.4868H4.17383V61.2064H58.4842V13.4868Z" fill="url(#paint0_linear)"/>
<path d="M52.7432 28.6899C48.0563 25.2128 42.4758 22.8559 36.4121 21.9976C36.002 24.4126 33.8782 26.2603 31.3296 26.2603C28.7664 26.2603 26.6573 24.4126 26.2472 21.9976C20.1834 22.8559 14.603 25.2128 9.91602 28.6899L14.2515 36.1534C16.1116 35.1495 18.0596 34.3203 20.0955 33.651V52.6952H42.5637V33.651C44.5996 34.3203 46.5477 35.1495 48.4078 36.1534L52.7432 28.6899Z" fill="white"/>
<path d="M62.6736 64.3193H0V70.5462H8.08503L5.18497 82.9998H11.6296L14.515 70.5462H28.1951V77.8059H34.4639V70.5462H48.1587L51.0441 82.9998H57.474L54.5886 70.5462H62.6736V64.3193Z" fill="white"/>
<path d="M32.6328 10.3732H39.0627L36.6606 0H26.0124L23.5957 10.3732H30.0256L30.9923 6.22682H31.6807L32.6328 10.3732Z" fill="white"/>
<defs>
<linearGradient id="paint0_linear" x1="31.3334" y1="61.2138" x2="31.3334" y2="13.4896" gradientUnits="userSpaceOnUse">
<stop stop-color="#43B3E6"/>
<stop offset="1" stop-color="#4896D1"/>
</linearGradient>
</defs>
</svg>
