<svg width="872" height="101" viewBox="0 0 872 101" fill="none" xmlns="http://www.w3.org/2000/svg">
<path d="M24.08 98.42V67.06H46.76C67.76 67.06 79.2403 52.92 79.2403 36.12C79.2403 19.18 67.76 5.04 46.76 5.04H0V98.42H24.08ZM43.54 46.06H24.08V26.04H43.54C49.98 26.04 54.74 29.68 54.74 36.12C54.74 42.42 49.98 46.06 43.54 46.06ZM110.961 98.42V55.3C113.761 51.52 121.181 49.14 126.781 49.14C129.021 49.14 130.841 49.42 132.101 49.7V28.98C123.981 28.98 115.441 33.6 110.961 39.06V30.8H89.4013V98.42H110.961ZM174.241 100.1C197.481 100.1 211.201 83.58 211.201 64.54C211.201 45.5 197.481 29.12 174.241 29.12C151.281 29.12 137.421 45.5 137.421 64.54C137.421 83.58 151.281 100.1 174.241 100.1ZM174.241 81.06C164.861 81.06 159.681 73.64 159.681 64.54C159.681 55.58 164.861 48.16 174.241 48.16C183.761 48.16 189.081 55.58 189.081 64.54C189.081 73.64 183.761 81.06 174.241 81.06ZM289.485 98.42V5.04H268.065V38.78C262.605 32.06 255.465 29.12 248.045 29.12C231.105 29.12 218.085 42.42 218.085 64.54C218.085 87.5 231.385 100.1 248.045 100.1C255.605 100.1 262.465 97.02 268.065 90.58V98.42H289.485ZM255.045 81.06C246.505 81.06 240.205 74.62 240.205 64.54C240.205 54.46 246.505 48.16 255.045 48.16C259.665 48.16 265.265 50.54 268.065 54.18V74.9C265.265 78.54 259.665 81.06 255.045 81.06ZM372.48 98.42V30.8H350.92V74.48C348.4 77.7 344.2 81.06 338.04 81.06C331.04 81.06 326.84 78.26 326.84 70.14V30.8H305.28V78.96C305.28 91.42 312.14 100.1 327.54 100.1C338.88 100.1 346.72 95.06 350.92 90.3V98.42H372.48ZM420.611 100.1C435.171 100.1 444.271 93.52 448.331 87.64L434.331 74.48C431.671 78.26 427.331 81.06 421.591 81.06C412.631 81.06 405.771 74.76 405.771 64.54C405.771 54.32 412.631 48.16 421.591 48.16C427.331 48.16 431.671 50.68 434.331 54.6L448.331 41.58C444.271 35.56 435.171 29.12 420.611 29.12C399.471 29.12 383.651 43.4 383.651 64.54C383.651 85.82 399.471 100.1 420.611 100.1ZM483.751 100.1C491.731 100.1 497.051 98.14 499.711 95.62L495.511 79.38C494.811 80.22 492.431 81.06 490.051 81.06C486.271 81.06 484.031 78.12 484.031 74.2V49.56H497.751V30.8H484.031V12.32H462.611V30.8H451.411V49.56H462.611V80.22C462.611 93.24 470.031 100.1 483.751 100.1ZM606.561 98.42V77.42H569.041V5.04H544.961V98.42H606.561ZM629.282 24.78C636.142 24.78 641.602 19.18 641.602 12.32C641.602 5.46 636.142 0 629.282 0C622.422 0 616.962 5.46 616.962 12.32C616.962 19.18 622.422 24.78 629.282 24.78ZM640.062 98.42V30.8H618.502V98.42H640.062ZM723.03 98.42V50.54C723.03 38.08 716.03 29.12 700.63 29.12C689.29 29.12 681.31 34.3 677.25 39.06V30.8H655.69V98.42H677.25V54.74C679.77 51.66 683.97 48.16 690.41 48.16C697.13 48.16 701.47 51.1 701.47 59.36V98.42H723.03ZM808.118 98.42L781.938 61.6L806.858 30.8H780.818L760.238 57.82V5.04H738.678V98.42H760.238V82.18L766.678 74.48L781.518 98.42H808.118ZM841.004 100.1C860.464 100.1 871.804 90.58 871.804 77.7C871.804 49.98 832.464 57.68 832.464 49.84C832.464 47.04 835.964 44.94 841.004 44.94C849.124 44.94 856.824 48.44 860.884 52.36L869.144 38.08C861.864 32.76 852.204 29.12 840.864 29.12C822.104 29.12 811.884 39.48 811.884 51.38C811.884 78.54 851.224 69.86 851.224 78.68C851.224 81.76 848.564 83.86 842.124 83.86C834.144 83.86 823.364 79.38 818.324 74.9L809.364 89.74C816.504 96.04 828.964 100.1 841.004 100.1Z" fill="url(#paint0_linear)"/>
<defs>
<linearGradient id="paint0_linear" x1="10.3383" y1="54.42" x2="846.61" y2="172.695" gradientUnits="userSpaceOnUse">
<stop stop-color="#2197EC"/>
<stop offset="0.35016" stop-color="#24CBFF"/>
<stop offset="0.692708" stop-color="#14C4B3"/>
<stop offset="1" stop-color="#EAD51E"/>
</linearGradient>
</defs>
</svg>
