<svg width="39" height="20" viewBox="0 0 39 20" fill="none" xmlns="http://www.w3.org/2000/svg">
<path d="M30.3448 1.32758L37.5431 8.52585C38.3578 9.34051 38.3578 10.6595 37.5431 11.4741L30.3448 18.6767L26.75 16.6077L32.3017 11.056C32.8836 10.4741 32.8836 9.53447 32.3017 8.95258L26.75 3.39654L30.3448 1.32758Z" fill="#14C4B3"/>
<path d="M27.586 8.94825L19.073 0.435324C18.4911 -0.146573 17.5515 -0.146573 16.9696 0.435324L11.8877 5.51722L15.3187 8.94825C15.9006 9.53015 15.9006 10.4698 15.3187 11.0517L11.8877 14.4827L16.9696 19.5646C17.5515 20.1465 18.4911 20.1465 19.073 19.5646L27.586 11.0517C28.1679 10.4698 28.1679 9.53015 27.586 8.94825Z" fill="#0E1E2D"/>
<path d="M15.3191 8.94829L11.888 5.51726L8.92683 2.55605C8.34493 1.97415 7.40527 1.97415 6.82338 2.55605L0.435446 8.94829C-0.146451 9.53019 -0.146451 10.4698 0.435446 11.0517L6.82769 17.444C7.40958 18.0259 8.34924 18.0259 8.93114 17.444L11.8923 14.4828L15.3234 11.0517C15.901 10.4698 15.901 9.53019 15.3191 8.94829Z" fill="#24CBFF"/>
</svg>
