<svg width="160" height="20" viewBox="0 0 160 20" fill="none" xmlns="http://www.w3.org/2000/svg">
<g clip-path="url(#clip0)">
<path d="M55.8901 8.77407C53.5369 8.26209 52.6444 8.00845 52.6444 6.95632C52.6444 5.80554 53.5651 4.88492 55.7398 4.88492C57.938 4.88492 58.8351 5.78206 59.2156 7.03147H62.9216C62.5129 4.06764 60.5167 1.48426 55.7116 1.48426C52.3109 1.48426 48.962 3.34899 48.962 7.11132C48.962 10.6388 51.8271 11.6862 55.0211 12.3532C58.1682 13.0437 59.4176 13.2222 59.4176 14.5514C59.4176 15.829 58.3419 16.5993 56.2706 16.5993C53.7388 16.5993 52.6632 15.7022 52.1794 13.9408H48.4969C48.9056 17.0362 51.0521 20 56.294 20C59.3095 20 63.0953 18.5674 63.0953 14.4011C63.1 10.8455 60.6717 9.79803 55.8901 8.77407ZM72.3485 8.69422C73.8328 8.69422 75.162 9.43635 75.5942 10.9723H79.3518C78.8163 7.39314 75.7727 5.32175 72.3438 5.32175C68.0977 5.32175 65.0023 8.49225 65.0023 12.6632C65.0023 16.8295 68.0977 20 72.3156 20C75.6928 20 78.7835 18.0319 79.3471 14.3213H75.5895C75.1526 15.8572 73.8234 16.6228 72.3156 16.6228C70.1691 16.6228 68.6848 15.0117 68.7083 12.6585C68.6895 10.3335 70.1221 8.69422 72.3485 8.69422ZM91.9023 7.59511C90.93 6.23767 89.4457 5.31705 87.4542 5.31705C83.8469 5.31705 81.0615 8.30906 81.0615 12.6585C81.0615 16.9798 83.7999 19.9953 87.4824 19.9953C89.4504 19.9953 90.9112 19.1263 91.8788 17.7971V19.69H95.5378L95.5613 5.62705H91.907V7.59511H91.9023ZM88.2997 16.5195C86.2799 16.5195 84.744 14.9836 84.744 12.6585C84.744 10.357 86.2518 8.79756 88.2997 8.79756C90.3476 8.79756 91.907 10.357 91.907 12.6585C91.9023 14.9883 90.3429 16.5195 88.2997 16.5195ZM98.5392 19.69H102.198V0L98.5392 1.70503V19.69ZM115.467 7.59511C114.495 6.23767 113.011 5.31705 111.019 5.31705C107.412 5.31705 104.627 8.30906 104.627 12.6585C104.627 16.9798 107.365 19.9953 111.047 19.9953C113.015 19.9953 114.476 19.1263 115.444 17.7971V19.69H119.103L119.126 5.62705H115.472V7.59511H115.467ZM111.86 16.5195C109.84 16.5195 108.304 14.9836 108.304 12.6585C108.304 10.357 109.812 8.79756 111.86 8.79756C113.908 8.79756 115.467 10.357 115.467 12.6585C115.467 14.9883 113.903 16.5195 111.86 16.5195ZM130.202 5.32175C128.234 5.32175 126.726 6.24237 125.754 7.59981V0L122.095 1.70503V19.69H125.754V17.8018C126.75 19.131 128.21 20 130.202 20C133.856 20 136.618 16.9845 136.618 12.6632C136.618 8.31376 133.805 5.32175 130.202 5.32175ZM129.356 16.5195C127.309 16.5195 125.749 14.9836 125.749 12.6585C125.749 10.357 127.309 8.79756 129.356 8.79756C131.404 8.79756 132.912 10.357 132.912 12.6585C132.912 14.9883 131.376 16.5195 129.356 16.5195ZM139.084 19.69H142.743V0L139.084 1.70033V19.69ZM152.466 5.32175C148.168 5.32175 145.124 8.46876 145.124 12.6867C145.124 16.8812 148.14 20 152.541 20C155.557 20 158.37 18.5439 159.422 15.2184H155.636C155.153 16.3457 153.922 16.9845 152.518 16.9845C150.625 16.9845 149.089 15.8572 148.859 13.6073H159.648C160.009 8.97604 157.116 5.32175 152.466 5.32175ZM149.037 10.9206C149.497 9.41287 150.648 8.33725 152.438 8.33725C154.204 8.33725 155.355 9.38469 155.763 10.9206H149.037Z" fill="white"/>
<path d="M27.2522 11.3856L19.3424 19.2954C18.5486 20.0892 17.2616 20.0892 16.4631 19.2954L8.55331 11.3856C7.75951 10.5918 7.75951 9.30484 8.55331 8.50634L16.4631 0.596525C17.2569 -0.197275 18.5439 -0.197275 19.3424 0.596525L27.2522 8.50634C28.046 9.30014 28.046 10.5918 27.2522 11.3856Z" fill="white"/>
<path d="M30.9535 2.26397C30.8643 2.32034 30.7844 2.39079 30.7046 2.46595L27.8628 5.30766L31.348 8.79286C31.9821 9.42696 31.9821 10.4603 31.348 11.0944L27.8628 14.5796L30.7046 17.4213C30.7797 17.4965 30.8643 17.5669 30.9535 17.6233L37.2006 11.3762C37.9944 10.5824 37.9944 9.29544 37.2006 8.49695L30.9535 2.26397Z" fill="#14C4B3"/>
<path d="M15.4392 11.0991L9.10756 17.426C8.47346 18.0601 7.44011 18.0601 6.80601 17.426L0.474402 11.0991C-0.159698 10.465 -0.159698 9.43166 0.474402 8.79756L6.80601 2.46595C7.44011 1.83185 8.47346 1.83185 9.10756 2.46595L15.4392 8.79756C16.0733 9.43166 16.0733 10.4603 15.4392 11.0991Z" fill="#24CBFF"/>
</g>
<defs>
<clipPath id="clip0">
<rect width="159.681" height="20" fill="white"/>
</clipPath>
</defs>
</svg>
