<svg width="160" height="20" viewBox="0 0 160 20" fill="none" xmlns="http://www.w3.org/2000/svg">
<g clip-path="url(#clip0)">
<path d="M55.8888 8.77407C53.5355 8.26209 52.6431 8.00845 52.6431 6.95632C52.6431 5.80554 53.5637 4.88492 55.7385 4.88492C57.9367 4.88492 58.8338 5.78206 59.2143 7.03147H62.9202C62.5116 4.06764 60.5153 1.48426 55.7103 1.48426C52.3096 1.48426 48.9606 3.34899 48.9606 7.11132C48.9606 10.6388 51.8258 11.6862 55.0198 12.3532C58.1668 13.0437 59.4162 13.2222 59.4162 14.5514C59.4162 15.829 58.3406 16.5993 56.2692 16.5993C53.7375 16.5993 52.6619 15.7022 52.1781 13.9408H48.4956C48.9043 17.0362 51.0508 20 56.2927 20C59.3082 20 63.094 18.5674 63.094 14.4011C63.0987 10.8455 60.6704 9.79803 55.8888 8.77407ZM72.3472 8.69422C73.8315 8.69422 75.1607 9.43635 75.5929 10.9723H79.3505C78.815 7.39314 75.7713 5.32175 72.3425 5.32175C68.0964 5.32175 65.001 8.49225 65.001 12.6632C65.001 16.8295 68.0964 20 72.3143 20C75.6915 20 78.7821 18.0319 79.3458 14.3213H75.5882C75.1513 15.8572 73.8221 16.6228 72.3143 16.6228C70.1678 16.6228 68.6835 15.0117 68.707 12.6585C68.6882 10.3335 70.1208 8.69422 72.3472 8.69422ZM91.901 7.59511C90.9287 6.23767 89.4444 5.31705 87.4529 5.31705C83.8456 5.31705 81.0602 8.30906 81.0602 12.6585C81.0602 16.9798 83.7986 19.9953 87.4811 19.9953C89.4491 19.9953 90.9099 19.1263 91.8775 17.7971V19.69H95.5365L95.56 5.62705H91.9057V7.59511H91.901ZM88.2983 16.5195C86.2786 16.5195 84.7427 14.9836 84.7427 12.6585C84.7427 10.357 86.2504 8.79756 88.2983 8.79756C90.3463 8.79756 91.9057 10.357 91.9057 12.6585C91.901 14.9883 90.3416 16.5195 88.2983 16.5195ZM98.5379 19.69H102.197V0L98.5379 1.70503V19.69ZM115.466 7.59511C114.494 6.23767 113.009 5.31705 111.018 5.31705C107.411 5.31705 104.625 8.30906 104.625 12.6585C104.625 16.9798 107.364 19.9953 111.046 19.9953C113.014 19.9953 114.475 19.1263 115.443 17.7971V19.69H119.102L119.125 5.62705H115.471V7.59511H115.466ZM111.859 16.5195C109.839 16.5195 108.303 14.9836 108.303 12.6585C108.303 10.357 109.811 8.79756 111.859 8.79756C113.907 8.79756 115.466 10.357 115.466 12.6585C115.466 14.9883 113.902 16.5195 111.859 16.5195ZM130.201 5.32175C128.233 5.32175 126.725 6.24237 125.753 7.59981V0L122.094 1.70503V19.69H125.753V17.8018C126.748 19.131 128.209 20 130.201 20C133.855 20 136.617 16.9845 136.617 12.6632C136.617 8.31376 133.803 5.32175 130.201 5.32175ZM129.355 16.5195C127.307 16.5195 125.748 14.9836 125.748 12.6585C125.748 10.357 127.307 8.79756 129.355 8.79756C131.403 8.79756 132.911 10.357 132.911 12.6585C132.911 14.9883 131.375 16.5195 129.355 16.5195ZM139.083 19.69H142.742V0L139.083 1.70033V19.69ZM152.465 5.32175C148.167 5.32175 145.123 8.46876 145.123 12.6867C145.123 16.8812 148.139 20 152.54 20C155.555 20 158.369 18.5439 159.421 15.2184H155.635C155.151 16.3457 153.921 16.9845 152.516 16.9845C150.623 16.9845 149.087 15.8572 148.857 13.6073H159.646C160.008 8.97604 157.115 5.32175 152.465 5.32175ZM149.036 10.9206C149.496 9.41287 150.647 8.33725 152.436 8.33725C154.203 8.33725 155.353 9.38469 155.762 10.9206H149.036Z" fill="#0E1E2D"/>
<path d="M27.2509 11.3856L19.3411 19.2954C18.5473 20.0892 17.2603 20.0892 16.4618 19.2954L8.55198 11.3856C7.75818 10.5918 7.75818 9.30484 8.55198 8.50634L16.4618 0.596525C17.2556 -0.197275 18.5426 -0.197275 19.3411 0.596525L27.2509 8.50634C28.0447 9.30014 28.0447 10.5918 27.2509 11.3856Z" fill="#0E1E2D"/>
<path d="M30.9522 2.26398C30.8629 2.32034 30.7831 2.3908 30.7032 2.46595L27.8615 5.30766L31.3467 8.79286C31.9808 9.42696 31.9808 10.4603 31.3467 11.0944L27.8615 14.5796L30.7032 17.4213C30.7784 17.4965 30.8629 17.5669 30.9522 17.6233L37.1992 11.3762C37.993 10.5824 37.993 9.29545 37.1992 8.49695L30.9522 2.26398Z" fill="#14C4B3"/>
<path d="M15.4378 11.0991L9.10624 17.426C8.47213 18.0601 7.43879 18.0601 6.80469 17.426L0.473075 11.0991C-0.161026 10.465 -0.161026 9.43166 0.473075 8.79756L6.80469 2.46595C7.43879 1.83185 8.47213 1.83185 9.10624 2.46595L15.4378 8.79756C16.0719 9.43166 16.0719 10.4603 15.4378 11.0991Z" fill="#24CBFF"/>
</g>
<defs>
<clipPath id="clip0">
<rect width="159.681" height="20" fill="white"/>
</clipPath>
</defs>
</svg>
