<svg width="333" height="72" viewBox="0 0 333 72" fill="none" xmlns="http://www.w3.org/2000/svg">
<path d="M87.7889 18.8491C87.17 18.0638 86.3572 17.4416 85.3543 16.9749C84.3514 16.5119 83.3858 16.2823 82.4537 16.2823C81.9728 16.2823 81.4881 16.323 80.9923 16.4082C80.5001 16.4934 80.0565 16.6527 79.6613 16.8934C79.2661 17.1342 78.9343 17.4416 78.6658 17.8194C78.3974 18.1972 78.2632 18.6824 78.2632 19.2713C78.2632 19.775 78.3676 20.1973 78.5801 20.5306C78.7926 20.8677 79.102 21.1603 79.5121 21.4122C79.9222 21.6677 80.4069 21.8974 80.9736 22.1085C81.5403 22.3196 82.1741 22.5344 82.8787 22.7604C83.8966 23.0974 84.9554 23.4678 86.0552 23.8753C87.1551 24.2827 88.158 24.8197 89.0602 25.4939C89.9624 26.168 90.7118 27.0013 91.3046 27.9977C91.8974 28.994 92.1919 30.2348 92.1919 31.7238C92.1919 33.435 91.875 34.9129 91.2412 36.1611C90.6074 37.4093 89.7536 38.4427 88.6799 39.2538C87.6062 40.0687 86.3796 40.6687 84.9964 41.0613C83.6132 41.4539 82.1853 41.6502 80.7201 41.6502C78.5763 41.6502 76.4997 41.2799 74.4976 40.5354C72.4918 39.7946 70.8253 38.7353 69.498 37.3611L74.2404 32.5646C74.9749 33.4609 75.9405 34.2128 77.1447 34.8166C78.3452 35.4203 79.5382 35.7203 80.7238 35.7203C81.2607 35.7203 81.7826 35.6647 82.2897 35.5536C82.7967 35.4425 83.2404 35.261 83.6244 35.0055C84.0047 34.7499 84.3067 34.4165 84.5341 33.9943C84.7615 33.5758 84.8734 33.0683 84.8734 32.4794C84.8734 31.9201 84.7317 31.4423 84.4521 31.0497C84.1687 30.6571 83.7661 30.2978 83.2441 29.9756C82.7222 29.6533 82.0734 29.3607 81.298 29.094C80.5188 28.8274 79.6389 28.5422 78.6509 28.231C77.6927 27.9236 76.7532 27.5569 75.8361 27.1347C74.9189 26.7161 74.0987 26.1754 73.3792 25.5124C72.6596 24.8531 72.0817 24.0567 71.6418 23.116C71.2056 22.1752 70.9856 21.0344 70.9856 19.6861C70.9856 18.0305 71.3249 16.6119 71.9997 15.4378C72.6782 14.2599 73.5656 13.2932 74.6691 12.5339C75.769 11.7783 77.0105 11.2228 78.3937 10.8746C79.7768 10.5264 81.1749 10.3486 82.5879 10.3486C84.2843 10.3486 86.0105 10.6561 87.7739 11.2746C89.5374 11.8932 91.0846 12.8043 92.4119 14.0081L87.7889 18.8491Z" fill="white"/>
<path d="M110.151 26.7164C109.755 26.2127 109.218 25.8052 108.54 25.4941C107.861 25.1867 107.172 25.0311 106.463 25.0311C105.729 25.0311 105.065 25.1793 104.472 25.4719C103.88 25.7645 103.373 26.1608 102.948 26.6497C102.523 27.1423 102.191 27.709 101.952 28.3535C101.713 28.998 101.594 29.6869 101.594 30.4166C101.594 31.1463 101.706 31.8315 101.933 32.476C102.161 33.1241 102.489 33.6908 102.929 34.1797C103.365 34.6724 103.891 35.0576 104.495 35.3391C105.099 35.6206 105.788 35.7576 106.549 35.7576C107.257 35.7576 107.955 35.6243 108.644 35.3576C109.338 35.0909 109.893 34.7057 110.318 34.1983L114.173 38.8689C113.297 39.7134 112.168 40.369 110.784 40.8468C109.401 41.3246 107.932 41.5616 106.381 41.5616C104.715 41.5616 103.16 41.306 101.717 40.8023C100.271 40.2986 99.0179 39.5615 97.9554 38.5948C96.8891 37.6281 96.0503 36.4576 95.4425 35.0835C94.8311 33.7094 94.5254 32.15 94.5254 30.4129C94.5254 28.7017 94.8311 27.1609 95.4425 25.783C96.0503 24.4089 96.8891 23.2384 97.9554 22.2717C99.0179 21.3013 100.274 20.5605 101.717 20.042C103.16 19.5234 104.704 19.2642 106.34 19.2642C107.101 19.2642 107.858 19.3345 108.607 19.4753C109.353 19.616 110.076 19.8049 110.766 20.042C111.459 20.279 112.093 20.5753 112.671 20.9235C113.249 21.2754 113.748 21.6606 114.173 22.0828L110.151 26.7164Z" fill="white"/>
<path d="M115.569 22.8011C116.81 21.6233 118.257 20.738 119.908 20.1491C121.56 19.5602 123.245 19.2676 124.968 19.2676C126.746 19.2676 128.252 19.4824 129.479 19.9195C130.709 20.3528 131.701 21.0269 132.465 21.9381C133.226 22.8492 133.785 24.0012 134.135 25.3864C134.489 26.7754 134.665 28.4236 134.665 30.3311V40.8909H128.312V38.6612H128.185C127.648 39.5316 126.835 40.2057 125.75 40.6798C124.662 41.1576 123.484 41.3946 122.212 41.3946C121.366 41.3946 120.49 41.2835 119.588 41.0576C118.685 40.8354 117.858 40.4687 117.112 39.9649C116.363 39.4612 115.751 38.7871 115.27 37.9463C114.789 37.1055 114.551 36.0684 114.551 34.835C114.551 33.3202 114.965 32.0979 115.8 31.1756C116.635 30.2496 117.705 29.5348 119.021 29.031C120.333 28.5273 121.795 28.1903 123.405 28.0199C125.012 27.8532 126.582 27.768 128.107 27.768V27.431C128.107 26.3939 127.738 25.6309 127.003 25.1383C126.269 24.6493 125.366 24.4012 124.293 24.4012C123.305 24.4012 122.35 24.6123 121.433 25.0308C120.516 25.4494 119.733 25.9568 119.084 26.5457L115.569 22.8011ZM128.319 31.7645H127.428C126.668 31.7645 125.896 31.8016 125.12 31.8682C124.345 31.9386 123.651 32.0719 123.044 32.2682C122.436 32.4646 121.936 32.7535 121.541 33.1313C121.146 33.5091 120.948 34.0091 120.948 34.6239C120.948 35.0165 121.042 35.3536 121.224 35.6351C121.407 35.9129 121.638 36.1388 121.922 36.3092C122.201 36.4759 122.529 36.5981 122.895 36.6648C123.264 36.7351 123.614 36.7685 123.953 36.7685C125.363 36.7685 126.444 36.3833 127.193 35.6129C127.943 34.8425 128.315 33.798 128.315 32.4757V31.7645H128.319Z" fill="white"/>
<path d="M138.902 40.895V9.08594H145.975V40.895H138.902Z" fill="white"/>
<path d="M150.129 22.8011C151.371 21.6233 152.817 20.738 154.469 20.1491C156.12 19.5602 157.806 19.2676 159.528 19.2676C161.306 19.2676 162.813 19.4824 164.039 19.9195C165.27 20.3528 166.261 21.0269 167.026 21.9381C167.786 22.8492 168.345 24.0012 168.696 25.3864C169.05 26.7754 169.225 28.4236 169.225 30.3311V40.8909H162.872V38.6612H162.746C162.209 39.5316 161.396 40.2057 160.311 40.6798C159.222 41.1576 158.044 41.3946 156.773 41.3946C155.927 41.3946 155.05 41.2835 154.148 41.0576C153.246 40.8354 152.418 40.4687 151.673 39.9649C150.923 39.4612 150.312 38.7871 149.831 37.9463C149.35 37.1055 149.111 36.0684 149.111 34.835C149.111 33.3202 149.525 32.0979 150.36 31.1756C151.195 30.2496 152.265 29.5348 153.581 29.031C154.894 28.5273 156.355 28.1903 157.966 28.0199C159.573 27.8532 161.142 27.768 162.667 27.768V27.431C162.667 26.3939 162.298 25.6309 161.564 25.1383C160.829 24.6493 159.927 24.4012 158.853 24.4012C157.865 24.4012 156.911 24.6123 155.994 25.0308C155.077 25.4494 154.294 25.9568 153.645 26.5457L150.129 22.8011ZM162.876 31.7645H161.985C161.224 31.7645 160.453 31.8016 159.677 31.8682C158.902 31.9386 158.208 32.0719 157.601 32.2682C156.993 32.4646 156.493 32.7535 156.098 33.1313C155.703 33.5091 155.505 34.0091 155.505 34.6239C155.505 35.0165 155.598 35.3536 155.781 35.6351C155.964 35.9129 156.195 36.1388 156.478 36.3092C156.758 36.4759 157.086 36.5981 157.451 36.6648C157.821 36.7351 158.171 36.7685 158.51 36.7685C159.92 36.7685 161.001 36.3833 161.75 35.6129C162.499 34.8425 162.872 33.798 162.872 32.4757V31.7645H162.876Z" fill="white"/>
<path d="M196.886 30.3352C196.886 31.7945 196.658 33.1983 196.207 34.5428C195.756 35.891 195.1 37.0763 194.238 38.0985C193.374 39.1208 192.322 39.9431 191.081 40.5579C189.839 41.1765 188.426 41.4839 186.845 41.4839C185.436 41.4839 184.098 41.195 182.841 40.6209C181.585 40.0468 180.619 39.2245 179.941 38.1615H179.855V40.895H173.461V9.08594H180.407V22.1718H180.492C181.085 21.4681 181.917 20.8236 182.994 20.2347C184.068 19.6457 185.38 19.3531 186.931 19.3531C188.456 19.3531 189.835 19.6457 191.062 20.2347C192.292 20.8236 193.333 21.6236 194.197 22.6311C195.055 23.6385 195.722 24.8127 196.185 26.1461C196.654 27.4832 196.886 28.8758 196.886 30.3352ZM190.193 30.3352C190.193 29.6611 190.089 29.0055 189.876 28.361C189.664 27.7165 189.347 27.1498 188.922 26.6572C188.497 26.1646 187.975 25.7646 187.356 25.4572C186.737 25.1497 186.014 24.9942 185.197 24.9942C184.407 24.9942 183.702 25.1497 183.084 25.4572C182.461 25.7646 181.932 26.172 181.495 26.6794C181.059 27.1832 180.72 27.761 180.478 28.4055C180.239 29.0499 180.12 29.7092 180.12 30.3833C180.12 31.0574 180.239 31.7167 180.478 32.3575C180.72 33.0057 181.055 33.5798 181.495 34.0835C181.932 34.5872 182.461 34.9947 183.084 35.3058C183.702 35.6132 184.411 35.7688 185.197 35.7688C186.018 35.7688 186.737 35.6169 187.356 35.3058C187.979 34.9984 188.501 34.591 188.922 34.0835C189.343 33.5798 189.664 32.9983 189.876 32.3353C190.089 31.676 190.193 31.0093 190.193 30.3352Z" fill="white"/>
<path d="M200.355 40.895V9.08594H207.428V40.895H200.355Z" fill="white"/>
<path d="M232.798 30.6722C232.798 30.9499 232.798 31.2351 232.798 31.5129C232.798 31.7944 232.783 32.0611 232.757 32.313H217.468C217.524 32.9019 217.699 33.4353 217.997 33.9131C218.295 34.3909 218.676 34.8057 219.138 35.1539C219.604 35.5057 220.126 35.7798 220.704 35.9724C221.282 36.1687 221.882 36.265 222.505 36.265C223.605 36.265 224.537 36.065 225.301 35.6539C226.065 35.2465 226.684 34.7205 227.165 34.076L231.993 37.1058C231.005 38.5355 229.7 39.6356 228.075 40.406C226.453 41.1764 224.566 41.5653 222.423 41.5653C220.842 41.5653 219.343 41.3208 217.934 40.8282C216.521 40.3393 215.287 39.6245 214.228 38.6837C213.169 37.7429 212.338 36.5873 211.73 35.2131C211.122 33.839 210.82 32.2648 210.82 30.5018C210.82 28.7906 211.115 27.2386 211.708 25.8497C212.3 24.4607 213.106 23.2829 214.12 22.3162C215.138 21.3457 216.338 20.5976 217.721 20.0642C219.104 19.5308 220.6 19.2642 222.21 19.2642C223.765 19.2642 225.189 19.5234 226.486 20.042C227.784 20.5605 228.899 21.3124 229.831 22.2939C230.763 23.2755 231.49 24.4681 232.012 25.8682C232.534 27.2794 232.798 28.8758 232.798 30.6722ZM226.401 28.0202C226.401 26.9275 226.054 25.9867 225.361 25.2015C224.667 24.4163 223.631 24.0237 222.247 24.0237C221.569 24.0237 220.95 24.1274 220.383 24.3385C219.817 24.5496 219.324 24.8348 218.899 25.2015C218.478 25.5682 218.139 25.9941 217.885 26.4868C217.632 26.9757 217.49 27.4905 217.464 28.0202H226.401Z" fill="white"/>
<path d="M246.053 40.8951V11.1084H253.338V34.6281H264.94V40.8988H246.053V40.8951Z" fill="white"/>
<path d="M266.637 22.8011C267.878 21.6233 269.325 20.738 270.977 20.1491C272.628 19.5602 274.313 19.2676 276.036 19.2676C277.814 19.2676 279.32 19.4824 280.547 19.9195C281.777 20.3528 282.769 21.0269 283.533 21.9381C284.294 22.8492 284.853 24.0012 285.204 25.3864C285.558 26.7754 285.733 28.4236 285.733 30.3311V40.8909H279.38V38.6612H279.253C278.716 39.5316 277.904 40.2057 276.819 40.6798C275.73 41.1576 274.552 41.3946 273.281 41.3946C272.434 41.3946 271.558 41.2835 270.656 41.0576C269.754 40.8354 268.926 40.4687 268.18 39.9649C267.431 39.4612 266.82 38.7871 266.339 37.9463C265.858 37.1055 265.619 36.0684 265.619 34.835C265.619 33.3202 266.033 32.0979 266.868 31.1756C267.703 30.2496 268.773 29.5348 270.089 29.031C271.402 28.5273 272.863 28.1903 274.474 28.0199C276.081 27.8532 277.65 27.768 279.175 27.768V27.431C279.175 26.3939 278.806 25.6309 278.071 25.1383C277.337 24.6493 276.435 24.4012 275.361 24.4012C274.373 24.4012 273.419 24.6123 272.501 25.0308C271.584 25.4494 270.801 25.9568 270.153 26.5457L266.637 22.8011ZM279.384 31.7645H278.493C277.732 31.7645 276.96 31.8016 276.185 31.8682C275.41 31.9386 274.716 32.0719 274.108 32.2682C273.501 32.4646 273.001 32.7535 272.606 33.1313C272.211 33.5091 272.013 34.0091 272.013 34.6239C272.013 35.0165 272.106 35.3536 272.289 35.6351C272.472 35.9129 272.703 36.1388 272.986 36.3092C273.266 36.4759 273.594 36.5981 273.959 36.6648C274.328 36.7351 274.679 36.7685 275.018 36.7685C276.427 36.7685 277.509 36.3833 278.258 35.6129C279.007 34.8425 279.38 33.798 279.38 32.4757V31.7645H279.384Z" fill="white"/>
<path d="M313.393 30.3352C313.393 31.7945 313.166 33.1983 312.715 34.5428C312.264 35.891 311.608 37.0763 310.746 38.0985C309.881 39.1208 308.83 39.9431 307.588 40.5579C306.347 41.1765 304.934 41.4839 303.353 41.4839C301.944 41.4839 300.605 41.195 299.349 40.6209C298.093 40.0468 297.127 39.2245 296.448 38.1615H296.363V40.895H289.969V9.08594H296.914V22.1718H297C297.593 21.4681 298.424 20.8236 299.502 20.2347C300.576 19.6457 301.888 19.3531 303.439 19.3531C304.964 19.3531 306.343 19.6457 307.57 20.2347C308.8 20.8236 309.84 21.6236 310.705 22.6311C311.563 23.6385 312.23 24.8127 312.692 26.1461C313.162 27.4832 313.393 28.8758 313.393 30.3352ZM306.701 30.3352C306.701 29.6611 306.597 29.0055 306.384 28.361C306.172 27.7165 305.855 27.1498 305.43 26.6572C305.005 26.1646 304.483 25.7646 303.864 25.4572C303.245 25.1497 302.522 24.9942 301.705 24.9942C300.915 24.9942 300.21 25.1497 299.591 25.4572C298.969 25.7646 298.439 26.172 298.003 26.6794C297.567 27.1832 297.228 27.761 296.985 28.4055C296.747 29.0499 296.627 29.7092 296.627 30.3833C296.627 31.0574 296.747 31.7167 296.985 32.3575C297.228 33.0057 297.563 33.5798 298.003 34.0835C298.439 34.5872 298.969 34.9947 299.591 35.3058C300.21 35.6132 300.919 35.7688 301.705 35.7688C302.525 35.7688 303.245 35.6169 303.864 35.3058C304.487 34.9984 305.009 34.591 305.43 34.0835C305.851 33.5798 306.172 32.9983 306.384 32.3353C306.597 31.676 306.701 31.0093 306.701 30.3352Z" fill="white"/>
<path d="M329.189 26.1273C328.622 25.5939 327.959 25.1457 327.198 24.7791C326.438 24.4161 325.632 24.2309 324.786 24.2309C324.137 24.2309 323.537 24.3568 322.985 24.6087C322.433 24.8605 322.161 25.2976 322.161 25.9124C322.161 26.5014 322.463 26.9199 323.071 27.1718C323.679 27.4236 324.659 27.7051 326.012 28.0126C326.803 28.1829 327.601 28.42 328.406 28.7274C329.211 29.0348 329.938 29.4423 330.587 29.946C331.236 30.4534 331.758 31.0683 332.153 31.7979C332.548 32.5276 332.746 33.398 332.746 34.4055C332.746 35.7241 332.477 36.8389 331.94 37.7501C331.404 38.6612 330.706 39.3983 329.845 39.9576C328.984 40.5206 328.018 40.9243 326.945 41.1762C325.871 41.4281 324.797 41.5577 323.723 41.5577C322.001 41.5577 320.316 41.2836 318.664 40.7354C317.012 40.1873 315.637 39.3835 314.533 38.3168L318.429 34.2351C319.048 34.9092 319.812 35.4722 320.715 35.9204C321.617 36.3685 322.579 36.5945 323.593 36.5945C324.16 36.5945 324.715 36.4611 325.267 36.1945C325.819 35.9278 326.091 35.4574 326.091 34.787C326.091 34.1425 325.752 33.6647 325.077 33.3573C324.398 33.0499 323.339 32.7276 321.9 32.3869C321.166 32.2202 320.431 31.9942 319.697 31.7127C318.962 31.435 318.306 31.0535 317.728 30.5794C317.15 30.1016 316.673 29.5126 316.308 28.8126C315.939 28.1089 315.756 27.2681 315.756 26.2865C315.756 25.0235 316.025 23.9531 316.561 23.0679C317.098 22.1863 317.792 21.4604 318.638 20.9011C319.484 20.3381 320.424 19.927 321.453 19.6603C322.482 19.3936 323.507 19.2603 324.525 19.2603C326.106 19.2603 327.653 19.5047 329.163 19.9973C330.673 20.4899 331.952 21.2233 332.996 22.2048L329.189 26.1273Z" fill="white"/>
<g opacity="0.6">
<path opacity="0.6" d="M225.272 55.6064C224.75 55.6064 224.299 55.7398 223.915 56.0102C223.535 56.2806 223.233 56.6509 223.013 57.1287V57.0361L222.904 55.7509H222.155H220.984V56.388L222.155 56.4806V62.7624L220.984 62.855V63.4846H224.187V62.855L223.013 62.7624V58.1473C223.162 57.6177 223.408 57.2028 223.758 56.8991C224.105 56.5954 224.549 56.4435 225.093 56.4435L225.734 56.488L225.85 55.6879C225.783 55.6694 225.697 55.6509 225.593 55.6361C225.488 55.6139 225.384 55.6064 225.272 55.6064Z" fill="white"/>
<path opacity="0.6" d="M155.143 57.6769C154.226 57.4473 153.566 57.1843 153.156 56.8806C152.746 56.5768 152.541 56.199 152.541 55.7472C152.541 55.236 152.742 54.8249 153.145 54.5064C153.547 54.1915 154.125 54.0323 154.878 54.0323C155.352 54.0323 155.77 54.0915 156.131 54.2101C156.489 54.3286 156.78 54.4804 156.992 54.6619L157.257 56.1472H158.327V54.2101C157.962 53.8545 157.481 53.5508 156.877 53.2989C156.277 53.047 155.609 52.9248 154.875 52.9248C153.764 52.9248 152.858 53.1952 152.164 53.736C151.471 54.2767 151.12 54.9545 151.12 55.7694C151.12 56.5398 151.434 57.1806 152.056 57.6917C152.679 58.2029 153.544 58.5881 154.651 58.851C155.561 59.0696 156.198 59.34 156.556 59.6622C156.914 59.9844 157.097 60.3844 157.097 60.8585C157.097 61.3734 156.888 61.7808 156.474 62.0808C156.06 62.3808 155.494 62.5327 154.782 62.5327C154.252 62.5327 153.801 62.4623 153.421 62.3179C153.04 62.1734 152.716 61.9919 152.444 61.7697L152.172 60.277H151.105V62.2142C151.497 62.6364 152.008 62.9809 152.634 63.2439C153.26 63.5068 153.976 63.6365 154.782 63.6365C155.893 63.6365 156.795 63.3809 157.481 62.8735C158.171 62.3623 158.514 61.6882 158.514 60.8511C158.514 60.0696 158.226 59.414 157.652 58.8844C157.082 58.351 156.243 57.951 155.143 57.6769Z" fill="white"/>
<path opacity="0.6" d="M229.996 55.6064C229.09 55.6064 228.318 55.9694 227.677 56.6991C227.035 57.4288 226.715 58.3436 226.715 59.4511V59.8437C226.715 60.9438 227.035 61.8512 227.68 62.5624C228.322 63.2735 229.134 63.6291 230.111 63.6291C230.73 63.6291 231.263 63.5402 231.707 63.3624C232.154 63.1846 232.523 62.9439 232.814 62.6364L232.449 62.0512C232.18 62.329 231.856 62.5401 231.48 62.6883C231.099 62.8364 230.644 62.9105 230.111 62.9105C229.354 62.9105 228.739 62.6179 228.273 62.029C227.807 61.4401 227.572 60.7141 227.572 59.8474V59.64H233.068V58.9103C233.068 57.9103 232.796 57.1102 232.248 56.5102C231.7 55.9065 230.95 55.6064 229.996 55.6064ZM232.21 58.914H227.651L227.636 58.877C227.707 58.1473 227.96 57.5436 228.396 57.0584C228.829 56.5732 229.362 56.3324 229.996 56.3324C230.678 56.3324 231.215 56.5583 231.614 57.0102C232.013 57.4621 232.21 58.0251 232.21 58.6955V58.914Z" fill="white"/>
<path opacity="0.6" d="M239.573 60.0252C239.11 59.6696 238.421 59.3918 237.492 59.1844C236.683 59.0066 236.143 58.8029 235.87 58.5696C235.598 58.3362 235.464 58.0399 235.464 57.6843C235.464 57.3213 235.621 57.0065 235.934 56.7361C236.247 56.4657 236.717 56.3324 237.347 56.3324C237.772 56.3324 238.152 56.3954 238.48 56.5176C238.808 56.6398 239.08 56.8139 239.297 57.0399L239.397 58.1325H240.102L240.065 56.5695C239.766 56.2731 239.382 56.0398 238.909 55.8657C238.435 55.6916 237.913 55.6064 237.343 55.6064C236.519 55.6064 235.856 55.8102 235.352 56.2176C234.849 56.625 234.595 57.125 234.595 57.714C234.595 58.3103 234.819 58.7733 235.266 59.1029C235.714 59.4326 236.4 59.6992 237.328 59.8993C238.111 60.0696 238.652 60.2919 238.95 60.5623C239.248 60.8326 239.401 61.1512 239.401 61.5142C239.401 61.8994 239.222 62.229 238.86 62.4994C238.503 62.7698 238.01 62.9068 237.384 62.9068C237 62.9068 236.631 62.855 236.281 62.755C235.93 62.6512 235.636 62.4883 235.408 62.2586L235.285 61.1586H234.588V62.7179C234.935 63.0068 235.341 63.2328 235.814 63.392C236.288 63.5513 236.81 63.6328 237.384 63.6328C238.245 63.6328 238.942 63.4328 239.468 63.0365C239.994 62.6401 240.255 62.1179 240.255 61.4771C240.262 60.8623 240.031 60.3808 239.573 60.0252Z" fill="white"/>
<path opacity="0.6" d="M246.799 60.0252C246.337 59.6696 245.647 59.3918 244.719 59.1844C243.91 59.0066 243.369 58.8029 243.097 58.5696C242.825 58.3362 242.691 58.0399 242.691 57.6843C242.691 57.3213 242.847 57.0065 243.16 56.7361C243.474 56.4657 243.943 56.3324 244.573 56.3324C244.998 56.3324 245.379 56.3954 245.707 56.5176C246.035 56.6398 246.307 56.8139 246.523 57.0399L246.624 58.1325H247.329L247.291 56.5695C246.993 56.2731 246.609 56.0398 246.136 55.8657C245.662 55.6916 245.14 55.6064 244.57 55.6064C243.746 55.6064 243.082 55.8102 242.579 56.2176C242.075 56.625 241.822 57.125 241.822 57.714C241.822 58.3103 242.046 58.7733 242.493 59.1029C242.94 59.4326 243.626 59.6992 244.555 59.8993C245.338 60.0696 245.878 60.2919 246.177 60.5623C246.475 60.8326 246.628 61.1512 246.628 61.5142C246.628 61.8994 246.449 62.229 246.087 62.4994C245.729 62.7698 245.237 62.9068 244.611 62.9068C244.227 62.9068 243.858 62.855 243.507 62.755C243.157 62.6512 242.862 62.4883 242.635 62.2586L242.512 61.1586H241.814V62.7179C242.161 63.0068 242.568 63.2328 243.041 63.392C243.515 63.5513 244.036 63.6328 244.611 63.6328C245.472 63.6328 246.169 63.4328 246.695 63.0365C247.22 62.6401 247.481 62.1179 247.481 61.4771C247.489 60.8623 247.258 60.3808 246.799 60.0252Z" fill="white"/>
<path opacity="0.6" d="M198.623 52.332H196.035V53.2395L197.206 53.4395V62.3807L196.035 62.5807V63.4808H199.797V62.5807L198.623 62.3807V52.332Z" fill="white"/>
<path opacity="0.6" d="M177.853 52.332H175.266V53.2395L176.436 53.4395V62.3807L175.266 62.5807V63.4808H179.027V62.5807L177.853 62.3807V52.332Z" fill="white"/>
<path opacity="0.6" d="M186.29 62.2142C186.287 62.1179 186.287 62.0216 186.287 61.9216V58.1992C186.287 57.3658 186.014 56.725 185.466 56.2768C184.918 55.8287 184.206 55.6064 183.323 55.6064C182.734 55.6064 182.185 55.6916 181.682 55.8583C181.179 56.0287 180.75 56.2546 180.396 56.5324V58.0325H181.488L181.641 57.2176C181.809 57.0621 182.029 56.9361 182.297 56.8472C182.569 56.7584 182.883 56.7102 183.237 56.7102C183.751 56.7102 184.15 56.8435 184.437 57.1065C184.724 57.3695 184.87 57.7288 184.87 58.1806V59.0807H183.408C182.368 59.0807 181.548 59.2807 180.951 59.677C180.355 60.0733 180.057 60.64 180.057 61.3734C180.057 62.0883 180.269 62.6401 180.69 63.0365C181.112 63.4291 181.727 63.6254 182.54 63.6254C183.006 63.6254 183.442 63.5105 183.852 63.2772C184.262 63.0476 184.605 62.7587 184.877 62.4105C184.888 62.5772 184.903 62.7438 184.929 62.9105C184.952 63.0772 184.985 63.2661 185.03 63.4735H186.887V62.5735L186.313 62.4957C186.301 62.4068 186.294 62.3105 186.29 62.2142ZM184.87 61.3067C184.702 61.6216 184.422 61.8919 184.035 62.1142C183.647 62.3364 183.218 62.4512 182.748 62.4512C182.32 62.4512 182.003 62.3623 181.79 62.1846C181.578 62.0068 181.473 61.7475 181.473 61.4104C181.473 61.0289 181.641 60.7067 181.98 60.44C182.32 60.1733 182.778 60.04 183.356 60.04H184.866V61.3067H184.87Z" fill="white"/>
<path opacity="0.6" d="M191.985 55.6063C191.501 55.6063 191.079 55.6952 190.718 55.8767C190.356 56.0582 190.054 56.3211 189.808 56.6619V52.332H187.217V53.2395L188.387 53.4395V63.4808H189.61L189.741 62.4881C189.991 62.8659 190.3 63.1474 190.677 63.3437C191.049 63.5363 191.493 63.6326 192 63.6326C192.943 63.6326 193.685 63.2919 194.226 62.6066C194.767 61.9214 195.035 61.0251 195.035 59.9102V59.7621C195.035 58.5175 194.766 57.5175 194.23 56.7545C193.693 55.9878 192.947 55.6063 191.985 55.6063ZM193.611 59.9065C193.611 60.6843 193.45 61.3066 193.126 61.7807C192.802 62.2511 192.306 62.4881 191.642 62.4881C191.206 62.4881 190.837 62.3844 190.531 62.1733C190.225 61.9622 189.987 61.6807 189.808 61.3214V57.9064C189.987 57.5545 190.225 57.273 190.524 57.0619C190.822 56.8545 191.191 56.7471 191.627 56.7471C192.298 56.7471 192.798 57.0249 193.122 57.5842C193.447 58.1397 193.611 58.8657 193.611 59.7546V59.9065Z" fill="white"/>
<path opacity="0.6" d="M204.058 55.6064C203.156 55.6064 202.376 55.9731 201.716 56.7028C201.057 57.4325 200.729 58.351 200.729 59.4511V59.7659C200.729 60.9104 201.049 61.8401 201.69 62.5549C202.332 63.2735 203.193 63.6291 204.278 63.6291C204.919 63.6291 205.471 63.5365 205.929 63.355C206.388 63.1735 206.757 62.9476 207.033 62.6809L206.481 61.766C206.216 62.0031 205.903 62.192 205.542 62.3253C205.18 62.4586 204.759 62.529 204.278 62.529C203.622 62.529 203.111 62.2883 202.745 61.8105C202.38 61.3327 202.194 60.7215 202.179 59.977L202.201 59.94H207.249V59.0622C207.249 58.014 206.981 57.1769 206.44 56.5472C205.896 55.9213 205.102 55.6064 204.058 55.6064ZM205.825 58.8436H202.235L202.22 58.8066C202.298 58.2066 202.503 57.7065 202.839 57.3102C203.174 56.9139 203.581 56.7139 204.054 56.7139C204.639 56.7139 205.079 56.8991 205.378 57.2695C205.676 57.6399 205.825 58.1029 205.825 58.6547V58.8436Z" fill="white"/>
<path opacity="0.6" d="M164.971 61.0361C164.971 61.4547 164.792 61.8103 164.434 62.0955C164.077 62.3844 163.663 62.5288 163.193 62.5288C162.444 62.5288 161.914 62.2658 161.597 61.7399C161.28 61.2139 161.124 60.5546 161.124 59.762V59.462C161.124 58.6916 161.284 58.0397 161.601 57.5063C161.922 56.9767 162.451 56.71 163.193 56.71C163.525 56.71 163.819 56.7619 164.084 56.8619C164.349 56.9619 164.565 57.0915 164.733 57.2545L165.042 58.4694H166.172L166.108 56.7545C165.784 56.3989 165.37 56.1174 164.874 55.91C164.379 55.7062 163.819 55.6025 163.197 55.6025C162.071 55.6025 161.206 55.9692 160.606 56.7063C160.005 57.4434 159.707 58.3619 159.707 59.462V59.762C159.707 60.8732 160.005 61.7955 160.602 62.5288C161.198 63.2622 162.063 63.6289 163.193 63.6289C164.017 63.6289 164.74 63.3696 165.363 62.8548C165.985 62.3362 166.284 61.7473 166.258 61.0806L166.243 61.0361H164.971Z" fill="white"/>
<path opacity="0.6" d="M173.833 62.2142C173.83 62.1179 173.83 62.0216 173.83 61.9216V58.1992C173.83 57.3658 173.558 56.725 173.009 56.2768C172.461 55.8287 171.749 55.6064 170.866 55.6064C170.277 55.6064 169.729 55.6916 169.225 55.8583C168.722 56.0287 168.293 56.2546 167.939 56.5324V58.0325H169.031L169.184 57.2176C169.352 57.0621 169.572 56.9361 169.844 56.8472C170.116 56.7584 170.43 56.7102 170.784 56.7102C171.298 56.7102 171.697 56.8435 171.984 57.1065C172.271 57.3695 172.417 57.7288 172.417 58.1806V59.0807H170.955C169.915 59.0807 169.095 59.2807 168.498 59.677C167.902 60.0733 167.604 60.64 167.604 61.3734C167.604 62.0883 167.816 62.6401 168.237 63.0365C168.659 63.4291 169.274 63.6254 170.087 63.6254C170.553 63.6254 170.989 63.5105 171.399 63.2772C171.809 63.0476 172.152 62.7587 172.424 62.4105C172.435 62.5772 172.45 62.7438 172.476 62.9105C172.499 63.0772 172.532 63.2661 172.577 63.4735H174.434V62.5735L173.859 62.4957C173.841 62.4068 173.833 62.3105 173.833 62.2142ZM172.413 61.3067C172.245 61.6216 171.966 61.8919 171.578 62.1142C171.19 62.3364 170.761 62.4512 170.292 62.4512C169.863 62.4512 169.546 62.3623 169.333 62.1846C169.121 62.0068 169.017 61.7475 169.017 61.4104C169.017 61.0289 169.184 60.7067 169.524 60.44C169.863 60.1733 170.321 60.04 170.899 60.04H172.409V61.3067H172.413Z" fill="white"/>
<path opacity="0.6" d="M216.242 53.0767H212.999H211.828V53.7137L212.999 53.8063V62.7586L211.828 62.8512V63.4809H215.027V62.8512L213.856 62.7586V59.1585H216.242C217.342 59.1585 218.188 58.8807 218.792 58.3288C219.393 57.7769 219.695 57.0361 219.695 56.1139C219.695 55.199 219.393 54.4656 218.792 53.91C218.188 53.3545 217.338 53.0767 216.242 53.0767ZM218.188 57.7732C217.756 58.2103 217.107 58.4251 216.242 58.4251H213.856V53.8026H216.242C217.111 53.8026 217.76 54.0249 218.192 54.4619C218.625 54.9027 218.841 55.4583 218.841 56.125C218.837 56.788 218.621 57.3361 218.188 57.7732Z" fill="white"/>
<path opacity="0.6" d="M77.1111 54.2949C76.7868 54.0653 76.3953 53.8986 75.9367 53.7949C75.4819 53.6949 74.9674 53.6431 74.4007 53.6431H71.1758V63.4658H72.9355V59.3989H74.2889C74.8108 59.3989 75.3029 59.3471 75.769 59.2471C76.235 59.1471 76.6414 58.9804 76.9918 58.7544C77.3423 58.5285 77.6182 58.2285 77.8232 57.8581C78.0283 57.4877 78.129 57.0284 78.129 56.484C78.129 55.9765 78.0395 55.5395 77.8643 55.1802C77.689 54.8209 77.4355 54.5246 77.1111 54.2949ZM76.1754 57.2099C76.0561 57.3951 75.892 57.5396 75.687 57.647C75.4819 57.7544 75.2508 57.8285 74.9898 57.8692C74.7288 57.91 74.4529 57.9322 74.1658 57.9322H72.9355V55.1172H74.2218C74.4902 55.1172 74.7549 55.132 75.0121 55.1654C75.2694 55.1987 75.4968 55.2654 75.6981 55.3654C75.8995 55.4654 76.0598 55.6098 76.1791 55.7876C76.2984 55.9691 76.3618 56.2025 76.3618 56.4877C76.358 56.784 76.2947 57.0247 76.1754 57.2099Z" fill="white"/>
<path opacity="0.6" d="M84.5405 57.5694C84.2161 57.2657 83.8284 57.0286 83.381 56.8619C82.9336 56.6953 82.4601 56.6138 81.9568 56.6138C81.4535 56.6138 80.98 56.6953 80.5326 56.8619C80.0852 57.0286 79.6975 57.2657 79.3731 57.5694C79.0487 57.8731 78.7878 58.2435 78.5976 58.6731C78.4075 59.1028 78.3105 59.5806 78.3105 60.1102C78.3105 60.6362 78.4075 61.1177 78.5976 61.5548C78.7878 61.9881 79.045 62.3622 79.3731 62.6733C79.6975 62.9845 80.0852 63.2252 80.5326 63.403C80.98 63.5771 81.4535 63.666 81.9568 63.666C82.4601 63.666 82.9336 63.5771 83.381 63.403C83.8284 63.2289 84.2161 62.9845 84.5405 62.6733C84.8648 62.3622 85.1258 61.9918 85.3159 61.5548C85.5061 61.1214 85.603 60.6399 85.603 60.1102C85.603 59.5843 85.5061 59.1028 85.3159 58.6731C85.1258 58.2435 84.8648 57.8731 84.5405 57.5694ZM83.7799 60.8844C83.7016 61.1436 83.5823 61.3733 83.422 61.577C83.2617 61.7807 83.0641 61.9474 82.8217 62.077C82.5794 62.2067 82.2923 62.2696 81.9568 62.2696C81.6212 62.2696 81.3342 62.2067 81.0918 62.077C80.8495 61.9474 80.6482 61.7807 80.4916 61.577C80.335 61.3733 80.2157 61.1436 80.1337 60.8844C80.0554 60.6251 80.0144 60.3658 80.0144 60.1065C80.0144 59.8473 80.0554 59.5917 80.1337 59.3361C80.212 59.0806 80.3313 58.8546 80.4916 58.6509C80.6482 58.4472 80.8495 58.2842 81.0918 58.1583C81.3342 58.0324 81.6212 57.9694 81.9568 57.9694C82.2923 57.9694 82.5794 58.0324 82.8217 58.1583C83.0641 58.2842 83.2654 58.4472 83.422 58.6509C83.5786 58.8546 83.6979 59.0843 83.7799 59.3361C83.8582 59.5917 83.8992 59.8473 83.8992 60.1065C83.8992 60.3658 83.8582 60.6251 83.7799 60.8844Z" fill="white"/>
<path opacity="0.6" d="M94.2201 61.5805H94.1903L92.74 56.8062H90.9504L89.5113 61.5805H89.4852L88.0871 56.8062H86.2715L88.6054 63.4658H90.3092L91.8191 58.8026H91.8452L93.3663 63.4658H95.0702L97.3891 56.8062H95.6443L94.2201 61.5805Z" fill="white"/>
<path opacity="0.6" d="M103.925 57.5215C103.638 57.2215 103.295 56.9956 102.9 56.84C102.505 56.6881 102.072 56.6104 101.61 56.6104C101.107 56.6104 100.641 56.6955 100.208 56.8659C99.7757 57.0363 99.3992 57.2771 99.0823 57.5882C98.7654 57.8993 98.5156 58.2734 98.3366 58.7105C98.1539 59.1512 98.0645 59.6364 98.0645 60.1735C98.0645 60.718 98.1539 61.2069 98.3366 61.6365C98.5193 62.0662 98.7691 62.4292 99.0897 62.7255C99.4104 63.0218 99.7906 63.2514 100.227 63.4107C100.663 63.5737 101.144 63.6552 101.666 63.6552C102.922 63.6552 103.881 63.2107 104.544 62.3218L103.426 61.4328C103.239 61.6995 103.001 61.9106 102.714 62.0625C102.427 62.2143 102.072 62.2921 101.651 62.2921C101.409 62.2921 101.178 62.2514 100.954 62.1662C100.73 62.0847 100.529 61.9699 100.354 61.8254C100.178 61.681 100.033 61.5106 99.9286 61.3106C99.8205 61.1106 99.7571 60.8921 99.7384 60.6513H104.835C104.842 60.5772 104.85 60.5031 104.85 60.4291C104.85 60.355 104.85 60.2809 104.85 60.2068C104.85 59.6068 104.768 59.0809 104.604 58.6327C104.44 58.1956 104.216 57.8215 103.925 57.5215ZM99.7384 59.4698C99.7757 58.9994 99.9696 58.6105 100.316 58.3104C100.667 58.0104 101.092 57.8586 101.595 57.8586C101.864 57.8586 102.098 57.903 102.3 57.9919C102.501 58.0808 102.665 58.1993 102.796 58.3475C102.926 58.4956 103.023 58.666 103.083 58.8623C103.142 59.0549 103.172 59.2586 103.172 59.4735H99.7384V59.4698Z" fill="white"/>
<path opacity="0.6" d="M110.057 56.6104C109.61 56.6104 109.218 56.7289 108.883 56.9696C108.547 57.2104 108.286 57.5252 108.1 57.9141H108.074V56.803H106.467V63.4626H108.145V59.8957C108.145 59.7772 108.167 59.6142 108.215 59.4105C108.26 59.2068 108.35 59.0068 108.48 58.8142C108.611 58.6216 108.793 58.4549 109.024 58.3141C109.256 58.1771 109.565 58.1067 109.945 58.1067C110.02 58.1067 110.098 58.1104 110.176 58.1215C110.255 58.1327 110.352 58.1475 110.463 58.1771V56.6511C110.408 56.6326 110.34 56.6215 110.27 56.6178C110.191 56.6141 110.12 56.6104 110.057 56.6104Z" fill="white"/>
<path opacity="0.6" d="M116.777 57.5215C116.49 57.2215 116.147 56.9956 115.752 56.84C115.356 56.6881 114.924 56.6104 114.462 56.6104C113.958 56.6104 113.492 56.6955 113.06 56.8659C112.627 57.0363 112.251 57.2771 111.934 57.5882C111.617 57.8993 111.367 58.2734 111.188 58.7105C111.005 59.1512 110.916 59.6364 110.916 60.1735C110.916 60.718 111.005 61.2069 111.188 61.6365C111.371 62.0662 111.621 62.4292 111.941 62.7255C112.262 63.0218 112.642 63.2514 113.078 63.4107C113.515 63.5737 113.996 63.6552 114.518 63.6552C115.774 63.6552 116.732 63.2107 117.396 62.3218L116.277 61.4328C116.091 61.6995 115.852 61.9106 115.565 62.0625C115.278 62.2143 114.924 62.2921 114.503 62.2921C114.26 62.2921 114.029 62.2514 113.805 62.1662C113.582 62.0847 113.38 61.9699 113.205 61.8254C113.03 61.681 112.885 61.5106 112.78 61.3106C112.672 61.1106 112.609 60.8921 112.59 60.6513H117.687C117.694 60.5772 117.701 60.5031 117.701 60.4291C117.701 60.355 117.701 60.2809 117.701 60.2068C117.701 59.6068 117.619 59.0809 117.455 58.6327C117.291 58.1956 117.064 57.8215 116.777 57.5215ZM112.586 59.4698C112.624 58.9994 112.817 58.6105 113.164 58.3104C113.515 58.0104 113.94 57.8586 114.443 57.8586C114.711 57.8586 114.946 57.903 115.148 57.9919C115.349 58.0808 115.513 58.1993 115.643 58.3475C115.774 58.4956 115.867 58.666 115.931 58.8623C115.99 59.0549 116.02 59.2586 116.02 59.4735H112.586V59.4698Z" fill="white"/>
<path opacity="0.6" d="M124.456 57.6509H124.415C124.333 57.5398 124.225 57.4249 124.094 57.3027C123.964 57.1842 123.807 57.0731 123.625 56.9694C123.442 56.8694 123.229 56.7805 122.991 56.7138C122.748 56.6434 122.473 56.6101 122.167 56.6101C121.693 56.6101 121.253 56.699 120.855 56.8805C120.456 57.062 120.109 57.3101 119.822 57.6212C119.535 57.9361 119.311 58.3065 119.151 58.7324C118.99 59.1584 118.912 59.6176 118.912 60.1066C118.912 60.5955 118.99 61.0585 119.143 61.4881C119.296 61.9178 119.516 62.2919 119.799 62.6104C120.083 62.9289 120.43 63.1845 120.832 63.3734C121.239 63.5623 121.697 63.6586 122.208 63.6586C122.681 63.6586 123.129 63.5586 123.543 63.3549C123.956 63.1512 124.281 62.8548 124.512 62.4659H124.542V63.466H126.134V52.9766H124.456V57.6509ZM124.381 60.9066C124.292 61.1622 124.161 61.3918 123.99 61.5918C123.818 61.7955 123.61 61.9585 123.367 62.0844C123.125 62.2104 122.849 62.2733 122.543 62.2733C122.219 62.2733 121.932 62.2104 121.69 62.0807C121.447 61.9511 121.246 61.7844 121.089 61.5807C120.933 61.377 120.814 61.1474 120.731 60.8881C120.653 60.6288 120.612 60.3695 120.612 60.1103C120.612 59.851 120.653 59.5954 120.731 59.3399C120.81 59.0843 120.929 58.8583 121.089 58.6546C121.246 58.4509 121.447 58.2879 121.69 58.162C121.932 58.0361 122.215 57.9731 122.543 57.9731C122.849 57.9731 123.125 58.0398 123.367 58.1694C123.61 58.2991 123.818 58.4657 123.99 58.6694C124.161 58.8732 124.292 59.1028 124.381 59.3621C124.471 59.6214 124.516 59.8806 124.516 60.1399C124.512 60.3955 124.467 60.651 124.381 60.9066Z" fill="white"/>
<path opacity="0.6" d="M138.005 57.6247C137.718 57.3098 137.371 57.0617 136.973 56.8839C136.574 56.7024 136.134 56.6135 135.66 56.6135C135.355 56.6135 135.079 56.6468 134.836 56.7172C134.594 56.7876 134.381 56.8728 134.202 56.9728C134.02 57.0728 133.863 57.1839 133.733 57.3061C133.602 57.4247 133.494 57.5432 133.412 57.6543H133.371V52.98H131.693V63.4694H133.285V62.4694H133.315C133.546 62.8583 133.871 63.1546 134.284 63.3583C134.698 63.562 135.142 63.662 135.619 63.662C136.13 63.662 136.589 63.5657 136.995 63.3768C137.401 63.1879 137.744 62.9324 138.028 62.6138C138.311 62.2953 138.531 61.9212 138.684 61.4915C138.837 61.0619 138.915 60.6026 138.915 60.11C138.915 59.6174 138.837 59.1618 138.676 58.7358C138.516 58.3099 138.296 57.9395 138.005 57.6247ZM137.092 60.8841C137.014 61.1434 136.894 61.373 136.734 61.5767C136.577 61.7804 136.376 61.9471 136.134 62.0768C135.891 62.2064 135.608 62.2694 135.28 62.2694C134.974 62.2694 134.698 62.2064 134.456 62.0805C134.214 61.9545 134.005 61.7916 133.833 61.5878C133.662 61.3841 133.531 61.1545 133.442 60.9026C133.352 60.647 133.308 60.3915 133.308 60.1322C133.308 59.8729 133.352 59.6137 133.442 59.3544C133.531 59.0951 133.662 58.8655 133.833 58.6618C134.005 58.458 134.214 58.2914 134.456 58.1617C134.698 58.0321 134.974 57.9654 135.28 57.9654C135.604 57.9654 135.891 58.0284 136.134 58.1543C136.376 58.2803 136.577 58.4432 136.734 58.6469C136.891 58.8507 137.01 59.0803 137.092 59.3322C137.17 59.5877 137.211 59.8433 137.211 60.1026C137.211 60.3619 137.17 60.6248 137.092 60.8841Z" fill="white"/>
<path opacity="0.6" d="M143.284 61.6471H143.258L141.386 56.8062H139.529L142.408 63.4658L142.072 64.3139C141.997 64.488 141.927 64.6436 141.863 64.7732C141.796 64.9029 141.722 65.0103 141.639 65.0992C141.554 65.1881 141.453 65.251 141.334 65.2918C141.214 65.3325 141.065 65.3547 140.886 65.3547C140.793 65.3547 140.693 65.3473 140.584 65.3325C140.476 65.3177 140.368 65.2918 140.256 65.2547L140.118 66.6993C140.267 66.7363 140.413 66.7622 140.558 66.777C140.704 66.7918 140.845 66.7993 140.983 66.7993C141.356 66.7993 141.673 66.7585 141.941 66.6733C142.206 66.5881 142.437 66.4659 142.631 66.3066C142.825 66.1437 142.993 65.9474 143.135 65.7103C143.272 65.4733 143.403 65.2029 143.526 64.8992L146.695 56.8099H144.95L143.284 61.6471Z" fill="white"/>
</g>
<path d="M22.5568 3.76318H20.2825L19.123 5.75958H21.3973L22.5568 3.76318Z" fill="white"/>
<path d="M23.418 5.75958H25.6922L26.8517 3.76318H24.5775L23.418 5.75958Z" fill="white"/>
<path d="M33.1673 3.76318L32.0078 5.75958H34.282L35.4415 3.76318H33.1673Z" fill="white"/>
<path d="M24.7443 0H22.47L21.3105 1.99269H23.5848L24.7443 0Z" fill="white"/>
<path d="M29.8227 9.52248H27.802L28.9615 7.52979H26.6873L25.5278 9.52248H23.5071L24.6666 7.52979H22.3923L21.2328 9.52248H19.2121L20.3716 7.52979H18.0974L16.9379 9.52248L1.15621 36.6757C-2.12838 42.3242 1.97642 49.3838 8.54188 49.3838C8.78048 49.3838 9.00045 49.2579 9.11975 49.0504L32.097 9.52248L33.2565 7.52979H30.9822L29.8227 9.52248Z" fill="white"/>
<path d="M29.1777 68.2364H31.452L32.6115 66.2437H30.3372L29.1777 68.2364Z" fill="white"/>
<path d="M28.3165 66.2437H26.0423L24.8828 68.2364H27.157L28.3165 66.2437Z" fill="white"/>
<path d="M18.5672 68.2364L19.7267 66.2437H17.4525L16.293 68.2364H18.5672Z" fill="white"/>
<path d="M26.9941 71.9995H29.2646L30.4241 70.0068H28.1499L26.9941 71.9995Z" fill="white"/>
<path d="M21.9161 62.477H23.9369L22.7774 64.4697H25.0516L26.2111 62.477H28.2318L27.0723 64.4697H29.3465L30.506 62.477H32.5267L31.3673 64.4697H33.6415L34.801 62.477L50.5827 35.3238C53.8673 29.6753 49.7625 22.6157 43.197 22.6157C42.9584 22.6157 42.7384 22.7417 42.6191 22.9491L19.6419 62.477L18.4824 64.4697H20.7567L21.9161 62.477Z" fill="white"/>
<path d="M22.1157 31.8462L12.2247 48.7285C12.1128 48.9211 12.3216 49.1396 12.5192 49.0359L29.3299 40.4096C29.4417 40.3503 29.5387 40.2614 29.6021 40.154L39.4931 23.2716C39.605 23.079 39.3962 22.8605 39.1986 22.9642L22.3842 31.5906C22.2723 31.6498 22.1791 31.7387 22.1157 31.8462Z" fill="white"/>
</svg>
