<svg width="64" height="64" viewBox="0 0 64 64" fill="none" xmlns="http://www.w3.org/2000/svg">
<path d="M29.0557 3.34668H27.0342L26.0029 5.11911H28.0244L29.0557 3.34668Z" fill="#004180"/>
<path d="M29.8223 5.11911H31.8438L32.875 3.34668H30.8517L29.8223 5.11911Z" fill="#0ACBFF"/>
<path d="M38.4903 3.34668L37.4609 5.11911H39.4824L40.5118 3.34668H38.4903Z" fill="#0ACBFF"/>
<path d="M31.001 0H28.9795L27.9482 1.77243H29.9716L31.001 0Z" fill="#0ACBFF"/>
<path d="M35.5158 8.46408H33.7181L34.7475 6.69165H32.726L31.6966 8.46408H29.8989L30.9283 6.69165H28.9068L27.8775 8.46408H26.0797L27.1091 6.69165H25.0877L24.0583 8.46408L10.0272 32.6021C7.10873 37.623 10.7564 43.8997 16.5952 43.8997C16.8078 43.8997 17.0036 43.7867 17.1099 43.6052L37.5373 8.46408L38.5667 6.69165H36.5452L35.5158 8.46408Z" fill="#004180"/>
<path d="M34.9453 60.6534H36.9668L37.9962 58.8828H35.9747L34.9453 60.6534Z" fill="#004180"/>
<path d="M34.1769 58.8828H32.1554L31.126 60.6534H33.1475L34.1769 58.8828Z" fill="#0ACBFF"/>
<path d="M25.5088 60.6534L26.5382 58.8828H24.5167L23.4873 60.6534H25.5088Z" fill="#0ACBFF"/>
<path d="M32.998 64.0001H35.0195L36.0508 62.2295H34.0293L32.998 64.0001Z" fill="#0ACBFF"/>
<path d="M28.4854 55.536H30.2832L29.2538 57.3085H31.2752L32.3046 55.536H34.1023L33.073 57.3085H35.0944L36.1238 55.536H37.9215L36.8921 57.3085H38.9136L39.943 55.536L53.9741 31.3999C56.8926 26.3789 53.2449 20.1023 47.4061 20.1023C47.1935 20.1023 46.9977 20.2153 46.8914 20.3968L26.464 55.536L25.4346 57.3085H27.4561L28.4854 55.536Z" fill="#004180"/>
<path d="M28.663 28.3071L19.8665 43.3144C19.7677 43.4848 19.9523 43.6793 20.1295 43.5885L35.078 35.921C35.1787 35.8691 35.2626 35.7913 35.3186 35.6932L44.115 20.6859C44.2139 20.5155 44.0292 20.321 43.8521 20.4118L28.9035 28.0793C28.8047 28.1312 28.7208 28.2108 28.663 28.3071Z" fill="#0ACBFF"/>
</svg>
