<svg width="48" height="48" viewBox="0 0 48 48" fill="none" xmlns="http://www.w3.org/2000/svg">
<path d="M21.8237 3.40543H20.3296L19.5674 4.67936H21.0615L21.8237 3.40543Z" fill="white"/>
<path d="M22.3906 4.67936H23.8847L24.647 3.40543H23.1515L22.3906 4.67936Z" fill="white"/>
<path d="M28.796 3.40543L28.0352 4.67936H29.5293L30.2901 3.40543H28.796Z" fill="white"/>
<path d="M23.2612 1H21.7671L21.0049 2.27394H22.5004L23.2612 1Z" fill="white"/>
<path d="M26.5982 7.08342H25.2695L26.0303 5.80948H24.5362L23.7754 7.08342H22.4467L23.2075 5.80948H21.7134L20.9526 7.08342H19.6239L20.3847 5.80948H18.8906L18.1298 7.08342L7.75922 24.4327C5.60214 28.0415 8.29815 32.5528 12.6137 32.5528C12.7708 32.5528 12.9155 32.4716 12.9941 32.3412L28.0923 7.08342L28.8531 5.80948H27.359L26.5982 7.08342Z" fill="white"/>
<path d="M26.1768 44.5948H27.6709L28.4317 43.3222H26.9376L26.1768 44.5948Z" fill="white"/>
<path d="M25.6085 43.3222H24.1144L23.3535 44.5948H24.8476L25.6085 43.3222Z" fill="white"/>
<path d="M19.2021 44.5948L19.963 43.3222H18.4688L17.708 44.5948H19.2021Z" fill="white"/>
<path d="M24.7373 47H26.2314L26.9936 45.7274H25.4995L24.7373 47Z" fill="white"/>
<path d="M21.4024 40.9166H22.7311L21.9703 42.1906H23.4644L24.2252 40.9166H25.5539L24.7931 42.1906H26.2872L27.048 40.9166H28.3767L27.6159 42.1906H29.11L29.8708 40.9166L40.2414 23.5687C42.3985 19.9599 39.7025 15.4485 35.3869 15.4485C35.2298 15.4485 35.0851 15.5297 35.0065 15.6602L19.9083 40.9166L19.1475 42.1906H20.6416L21.4024 40.9166Z" fill="white"/>
<path d="M21.5327 21.3456L15.0312 32.1321C14.9581 32.2546 15.0946 32.3944 15.2255 32.3291L26.2742 26.8181C26.3486 26.7808 26.4107 26.7249 26.452 26.6543L32.9536 15.8678C33.0266 15.7453 32.8902 15.6055 32.7592 15.6708L21.7106 21.1819C21.6375 21.2191 21.5755 21.2764 21.5327 21.3456Z" fill="white"/>
</svg>
