<svg width="48" height="48" viewBox="0 0 48 48" fill="none" xmlns="http://www.w3.org/2000/svg">
<path d="M3.92432 34.5417H7.44865V44H40.5189V34.5092H44.0432V30.6089H47.9676V24.0758H44.0432V20.208H39.1568C39.027 20.013 38.8865 19.8071 38.7243 19.6446L37.4595 18.247H44.0432V14.39H44.0757H48V7.86782H44.0757V4H3.92432V7.90032H0V14.4334H3.92432V18.3337H10.4757L9.21081 19.6988C9.04865 19.8613 8.90811 20.0672 8.77838 20.2622H3.92432V24.13H0V30.6631H3.92432V34.5417ZM44.0324 26.416H45.5892L45.6216 28.247H44.0216V26.416H44.0324ZM41.7405 22.5482V32.169H40.5405V24.5417C40.5405 23.8808 40.4432 23.2091 40.2378 22.5807L41.7405 22.5482ZM44.0324 10.2297H45.5892L45.6216 12.0282H44.0216V10.2297H44.0324ZM3.92432 12.0607H2.32432V10.2297H3.92432V12.0607ZM6.21622 15.9177V6.32936H41.7081V15.9177H6.21622ZM9.77297 24.5525C9.8054 23.8917 9.93513 23.2199 10.2054 22.5915C10.3676 22.0932 10.6378 21.6598 10.973 21.2589L11.8595 20.2514L12.0973 19.9805H35.827L36.0541 20.2514L37.0162 21.2156C37.3514 21.6165 37.6108 22.0823 37.7838 22.5482C38.0541 23.1766 38.1838 23.8483 38.2162 24.5092V41.6273H9.77297V24.5525ZM6.24865 22.5482H7.74054C7.54595 23.1766 7.43784 23.8483 7.43784 24.5092V32.1365L6.23784 32.169V22.5482H6.24865ZM3.89189 28.2795H2.29189L2.32432 26.4485H3.89189V28.2795Z" fill="white"/>
</svg>
