<svg width="322" height="55" viewBox="0 0 322 55" fill="none" xmlns="http://www.w3.org/2000/svg">
<path d="M61.0051 14.2845H66.3879V5.33319H61.0051V0H5.3828V5.33319H0V14.2845H5.3828V19.6177H14.4958L12.7487 21.5442C12.5363 21.7792 12.3474 22.0376 12.1585 22.3195H5.3828V27.6527H0V36.604H5.3828V41.9372H10.2698V55H56.118V41.9372H61.0051V36.604H66.3879V27.6527H61.0051V22.3195H54.2293C54.0405 22.0376 53.828 21.7792 53.6391 21.5442L51.8921 19.6177H61.0051V14.2845ZM51.2546 23.7057C51.656 24.1286 52.0101 24.8099 52.2934 25.5382C52.6476 26.431 52.8836 27.4413 52.8836 28.2636V51.7813H13.5042V28.2636C13.5042 27.4413 13.7403 26.431 14.0944 25.5382C14.3777 24.8099 14.7555 24.1286 15.1332 23.7057L16.4081 22.3195L16.7386 21.9671H49.6965L50.027 22.3195L51.2546 23.7057ZM3.2344 30.8949H5.3828V33.4088H3.2344V30.8949ZM8.6172 38.742V25.5382H10.6948C10.4351 26.4545 10.2698 27.3943 10.2698 28.2636V38.742H8.6172ZM63.1771 33.3853H61.0287V30.8714H63.1771V33.3853ZM57.7943 25.5382V38.742H56.118V28.2636C56.118 27.3943 55.9764 26.4545 55.7167 25.5382H57.7943ZM63.1771 11.0658H61.0287V8.5519H63.1771V11.0658ZM3.2344 8.5519H5.3828V11.0658H3.2344V8.5519ZM57.7943 16.4225H8.6172V3.21871H57.7943V16.4225ZM92.8297 24.6924H90.0675L89.3828 20.8629C88.8398 20.393 88.0843 20.0171 87.1636 19.7117C86.2428 19.4062 85.1568 19.2418 83.9528 19.2418C82.0169 19.2418 80.5295 19.6412 79.4907 20.4635C78.4519 21.2858 77.9325 22.343 77.9325 23.6587C77.9325 24.8334 78.4519 25.7967 79.5143 26.572C80.5767 27.3473 82.2766 28.0286 84.6374 28.616C87.4705 29.3208 89.6189 30.3546 91.1062 31.7172C92.57 33.0799 93.3255 34.7715 93.3255 36.7685C93.3255 38.9299 92.4519 40.6685 90.6813 41.9842C88.9106 43.2999 86.597 43.9577 83.7403 43.9577C81.6627 43.9577 79.8212 43.6288 78.2159 42.9475C76.6105 42.2661 75.2884 41.3968 74.2968 40.2926V35.3118H77.0354L77.7437 39.1649C78.4519 39.7287 79.2782 40.2221 80.2462 40.5745C81.2142 40.9505 82.3946 41.1384 83.7403 41.1384C85.5818 41.1384 87.0219 40.7625 88.0843 39.9872C89.1467 39.2119 89.6897 38.1546 89.6897 36.839C89.6897 35.6173 89.2175 34.5835 88.2968 33.7612C87.3761 32.9389 85.747 32.2341 83.3862 31.6702C80.5295 30.9889 78.3103 30.0021 76.7049 28.6865C75.0995 27.3708 74.2968 25.7262 74.2968 23.7292C74.2968 21.6382 75.1939 19.8761 76.9882 18.49C78.7825 17.1038 81.0961 16.399 83.9528 16.399C85.8415 16.399 87.5649 16.7279 89.0995 17.3622C90.6577 17.9966 91.8853 18.7954 92.8297 19.7117V24.6924ZM105.342 41.1384C106.546 41.1384 107.609 40.7625 108.53 40.0342C109.45 39.2824 109.899 38.3896 109.899 37.3088H113.18L113.228 37.4263C113.298 39.1414 112.519 40.6685 110.938 42.0077C109.332 43.3469 107.491 44.0047 105.366 44.0047C102.462 44.0047 100.243 43.0649 98.7083 41.1619C97.1737 39.2824 96.3946 36.9094 96.3946 34.0431V33.2678C96.3946 30.425 97.1737 28.0756 98.7083 26.1726C100.243 24.2695 102.462 23.3298 105.366 23.3298C106.971 23.3298 108.411 23.5882 109.686 24.1286C110.961 24.6455 112.024 25.3738 112.85 26.29L113.015 30.707H110.111L109.309 27.5822C108.884 27.1593 108.317 26.8304 107.656 26.572C106.971 26.3135 106.216 26.1961 105.366 26.1961C103.454 26.1961 102.084 26.8774 101.282 28.2401C100.455 29.6027 100.054 31.2943 100.054 33.2678V34.0431C100.054 36.0871 100.455 37.7787 101.282 39.1414C102.037 40.4571 103.406 41.1384 105.342 41.1384ZM129.447 43.5818C129.329 43.0414 129.258 42.5481 129.187 42.1252C129.116 41.7023 129.093 41.2559 129.069 40.833C128.361 41.7258 127.487 42.4776 126.425 43.0649C125.363 43.6523 124.253 43.9577 123.049 43.9577C120.971 43.9577 119.39 43.4408 118.304 42.4306C117.218 41.4203 116.675 39.9872 116.675 38.1546C116.675 36.2751 117.43 34.8185 118.965 33.7847C120.499 32.751 122.6 32.2576 125.268 32.2576H129.022V29.9317C129.022 28.7569 128.644 27.8407 127.912 27.1593C127.18 26.478 126.142 26.1491 124.82 26.1491C123.899 26.1491 123.096 26.2666 122.411 26.5015C121.727 26.7364 121.16 27.0419 120.712 27.4648L120.334 29.5557H117.524V25.7027C118.445 24.9744 119.531 24.4105 120.83 23.9641C122.128 23.5177 123.521 23.3063 125.056 23.3063C127.322 23.3063 129.164 23.8936 130.556 25.0449C131.973 26.1961 132.658 27.8407 132.658 30.0021V39.5878C132.658 39.8462 132.658 40.1047 132.658 40.3396C132.658 40.5745 132.681 40.833 132.705 41.0679L134.192 41.2794V43.6053H129.447V43.5818ZM123.568 40.927C124.772 40.927 125.882 40.645 126.874 40.0577C127.865 39.4703 128.597 38.789 129.022 37.9902V34.7245H125.15C123.663 34.7245 122.482 35.0769 121.609 35.7582C120.735 36.4396 120.31 37.2854 120.31 38.2486C120.31 39.1179 120.57 39.7757 121.113 40.2456C121.656 40.692 122.482 40.927 123.568 40.927ZM136.364 17.2213V14.8719H143.022V40.739L146.044 41.2559V43.5818H136.364V41.2559L139.386 40.739V17.7147L136.364 17.2213ZM161.46 43.5818C161.342 43.0414 161.271 42.5481 161.201 42.1252C161.13 41.7023 161.106 41.2559 161.083 40.833C160.374 41.7258 159.501 42.4776 158.438 43.0649C157.376 43.6523 156.266 43.9577 155.062 43.9577C152.985 43.9577 151.403 43.4408 150.317 42.4306C149.231 41.4203 148.688 39.9872 148.688 38.1546C148.688 36.2751 149.443 34.8185 150.978 33.7847C152.513 32.751 154.614 32.2576 157.282 32.2576H161.035V29.9317C161.035 28.7569 160.658 27.8407 159.926 27.1593C159.194 26.478 158.155 26.1491 156.833 26.1491C155.912 26.1491 155.11 26.2666 154.425 26.5015C153.74 26.7364 153.174 27.0419 152.725 27.4648L152.347 29.5557H149.538V25.7027C150.459 24.9744 151.545 24.4105 152.843 23.9641C154.142 23.5177 155.535 23.3063 157.069 23.3063C159.336 23.3063 161.177 23.8936 162.57 25.0449C163.987 26.1961 164.671 27.8407 164.671 30.0021V39.5878C164.671 39.8462 164.671 40.1047 164.671 40.3396C164.671 40.5745 164.695 40.833 164.718 41.0679L166.206 41.2794V43.6053H161.46V43.5818ZM155.605 40.927C156.809 40.927 157.919 40.645 158.911 40.0577C159.902 39.4703 160.634 38.789 161.059 37.9902V34.7245H157.187C155.7 34.7245 154.519 35.0769 153.646 35.7582C152.772 36.4396 152.347 37.2854 152.347 38.2486C152.347 39.1179 152.607 39.7757 153.15 40.2456C153.693 40.692 154.496 40.927 155.605 40.927ZM187.194 34.3721C187.194 37.2384 186.509 39.5643 185.116 41.3264C183.723 43.0884 181.811 43.9577 179.403 43.9577C178.105 43.9577 176.971 43.6993 176.003 43.2059C175.035 42.7125 174.233 41.9842 173.595 40.9974L173.265 43.5583H170.125V17.7147L167.103 17.1978V14.8719H173.761V26.0316C174.398 25.1388 175.177 24.481 176.098 24.0111C177.019 23.5412 178.105 23.3063 179.356 23.3063C181.811 23.3063 183.747 24.293 185.116 26.2431C186.486 28.1931 187.194 30.7774 187.194 33.9962V34.3721ZM183.535 33.9962C183.535 31.6937 183.11 29.8377 182.283 28.4045C181.433 26.9714 180.159 26.2431 178.435 26.2431C177.302 26.2431 176.357 26.525 175.602 27.0419C174.823 27.5822 174.209 28.3106 173.761 29.2033V37.9902C174.209 38.9065 174.847 39.6348 175.626 40.1751C176.405 40.7155 177.349 40.9739 178.482 40.9739C180.206 40.9739 181.457 40.3631 182.307 39.1414C183.133 37.9197 183.558 36.3221 183.558 34.3251V33.9962H183.535ZM189.744 17.2213V14.8719H196.401V40.739L199.423 41.2559V43.5818H189.744V41.2559L192.766 40.739V17.7147L189.744 17.2213ZM210.921 43.9577C208.135 43.9577 205.916 43.0414 204.263 41.1854C202.61 39.3293 201.784 36.9329 201.784 33.9962V33.1974C201.784 30.3546 202.634 28.0051 204.334 26.1256C206.034 24.246 208.04 23.3063 210.354 23.3063C213.046 23.3063 215.076 24.1051 216.469 25.7262C217.862 27.3473 218.546 29.5088 218.546 32.2106V34.466H205.562L205.514 34.56C205.562 36.4631 206.034 38.0372 206.978 39.2824C207.922 40.5041 209.221 41.1384 210.921 41.1384C212.148 41.1384 213.234 40.9739 214.155 40.6215C215.076 40.2691 215.879 39.7992 216.563 39.1884L217.98 41.5378C217.271 42.2191 216.327 42.8065 215.147 43.2764C213.99 43.7228 212.573 43.9577 210.921 43.9577ZM210.378 26.1491C209.15 26.1491 208.111 26.666 207.261 27.6762C206.388 28.71 205.868 29.9786 205.68 31.5293L205.727 31.6232H214.958V31.1534C214.958 29.7202 214.58 28.5455 213.801 27.5822C212.998 26.6425 211.865 26.1491 210.378 26.1491ZM241.683 16.7984C244.516 16.7984 246.688 17.5032 248.246 18.9364C249.804 20.3695 250.56 22.249 250.56 24.622C250.56 26.9949 249.781 28.8979 248.246 30.3311C246.688 31.7642 244.516 32.469 241.683 32.469H235.545V41.7493L238.567 41.9842V43.6053H230.351V41.9842L233.373 41.7493V18.6779L230.351 18.443V16.7984H233.373H241.683ZM235.545 30.566H241.683C243.902 30.566 245.578 30.0021 246.688 28.8744C247.798 27.7467 248.364 26.337 248.364 24.622C248.364 22.9069 247.821 21.4737 246.712 20.346C245.602 19.2183 243.926 18.6544 241.707 18.6544H235.568V30.566H235.545ZM258.823 23.6822L259.106 26.9949V27.2298C259.673 26.0081 260.452 25.0449 261.42 24.34C262.411 23.6587 263.568 23.3063 264.914 23.3063C265.197 23.3063 265.481 23.3298 265.74 23.3768C266 23.4238 266.212 23.4707 266.401 23.5177L266.094 25.5852L264.442 25.4678C263.049 25.4678 261.916 25.8672 261.019 26.6425C260.121 27.4178 259.484 28.4985 259.106 29.8612V41.7493L262.128 41.9842V43.6053H253.912V41.9842L256.934 41.7493V25.5852L253.912 25.3503V23.7057H256.934H258.823V23.6822ZM277.332 43.9577C274.806 43.9577 272.728 43.0414 271.076 41.2089C269.423 39.3763 268.597 37.0504 268.597 34.2076V33.1974C268.597 30.3546 269.423 27.9816 271.076 26.1256C272.728 24.246 274.712 23.3063 277.049 23.3063C279.504 23.3063 281.44 24.0816 282.833 25.6322C284.25 27.1828 284.934 29.2268 284.934 31.8112V33.6907H270.816V34.2311C270.816 36.4631 271.406 38.3426 272.61 39.8462C273.814 41.3498 275.396 42.1252 277.332 42.1252C278.702 42.1252 279.882 41.9372 280.85 41.5613C281.818 41.1854 282.644 40.645 283.352 39.9167L284.297 41.4203C283.541 42.1956 282.597 42.83 281.44 43.2764C280.283 43.7228 278.914 43.9577 277.332 43.9577ZM277.025 25.1858C275.396 25.1858 274.027 25.7967 272.917 27.0419C271.808 28.2871 271.147 29.8377 270.958 31.7172L271.005 31.8112H282.715V31.2708C282.715 29.5323 282.196 28.0991 281.18 26.9244C280.165 25.7732 278.796 25.1858 277.025 25.1858ZM303.019 29.8142H301.201L300.941 26.9949C300.374 26.4075 299.69 25.9611 298.84 25.6557C297.99 25.3268 297.022 25.1858 295.936 25.1858C294.331 25.1858 293.103 25.5382 292.3 26.2196C291.497 26.9009 291.096 27.7232 291.096 28.663C291.096 29.5792 291.45 30.3311 292.135 30.9419C292.82 31.5528 294.212 32.0696 296.314 32.516C298.698 33.0329 300.469 33.7612 301.649 34.6775C302.83 35.5938 303.42 36.839 303.42 38.4131C303.42 40.0577 302.735 41.4203 301.39 42.4306C300.044 43.4643 298.25 43.9577 296.03 43.9577C294.543 43.9577 293.197 43.7463 291.993 43.3469C290.789 42.924 289.727 42.3601 288.83 41.6083V37.5908H290.624L290.931 40.4336C291.521 41.0209 292.277 41.4438 293.174 41.7023C294.071 41.9607 295.015 42.1017 296.007 42.1017C297.612 42.1017 298.863 41.7493 299.808 41.0444C300.728 40.3396 301.201 39.4938 301.201 38.507C301.201 37.5673 300.823 36.7685 300.044 36.0637C299.265 35.3588 297.895 34.795 295.865 34.3486C293.481 33.8317 291.71 33.1504 290.577 32.3046C289.42 31.4588 288.853 30.2606 288.853 28.7334C288.853 27.2063 289.491 25.9376 290.789 24.8804C292.088 23.8232 293.788 23.3063 295.912 23.3063C297.376 23.3063 298.722 23.5412 299.926 23.9876C301.13 24.434 302.121 25.0449 302.901 25.7967L303.019 29.8142ZM321.599 29.8142H319.781L319.521 26.9949C318.954 26.4075 318.27 25.9611 317.42 25.6557C316.57 25.3268 315.602 25.1858 314.516 25.1858C312.911 25.1858 311.683 25.5382 310.88 26.2196C310.078 26.9009 309.676 27.7232 309.676 28.663C309.676 29.5792 310.03 30.3311 310.715 30.9419C311.4 31.5528 312.793 32.0696 314.894 32.516C317.278 33.0329 319.049 33.7612 320.229 34.6775C321.41 35.5938 322 36.839 322 38.4131C322 40.0577 321.315 41.4203 319.97 42.4306C318.624 43.4643 316.83 43.9577 314.61 43.9577C313.123 43.9577 311.777 43.7463 310.573 43.3469C309.369 42.924 308.307 42.3601 307.41 41.6083V37.5908H309.204L309.511 40.4336C310.101 41.0209 310.857 41.4438 311.754 41.7023C312.651 41.9607 313.595 42.1017 314.587 42.1017C316.192 42.1017 317.443 41.7493 318.388 41.0444C319.309 40.3396 319.781 39.4938 319.781 38.507C319.781 37.5673 319.403 36.7685 318.624 36.0637C317.845 35.3588 316.476 34.795 314.445 34.3486C312.061 33.8317 310.29 33.1504 309.157 32.3046C308 31.4588 307.433 30.2606 307.433 28.7334C307.433 27.2063 308.071 25.9376 309.369 24.8804C310.668 23.8232 312.368 23.3063 314.492 23.3063C315.956 23.3063 317.302 23.5412 318.506 23.9876C319.71 24.434 320.702 25.0449 321.481 25.7967L321.599 29.8142Z" fill="white"/>
</svg>
