<svg width="48" height="48" viewBox="0 0 48 48" fill="none" xmlns="http://www.w3.org/2000/svg">
<path fill-rule="evenodd" clip-rule="evenodd" d="M18.7893 5.04162C12.6803 5.9514 8.2676 7.49742 5.46656 8.80559C2.52221 10.1728 1.55689 10.9462 0.886312 11.4835L0.799778 11.5527L0 12.2068C0 12.2068 0.26014 12.849 0.371455 13.0738L0.379458 13.0902C0.48744 13.3127 1.11172 14.5991 2.67036 15.746C4.28119 16.9455 6.24916 17.59 8.27002 17.5799C7.73371 19.5457 7.46478 21.5728 7.47024 23.6081C7.47024 28.7219 9.20289 33.5681 12.2701 37.2369C13.6354 38.8343 15.2527 40.2059 17.0603 41.2994L17.8613 41.6918C19.4609 42.4779 21.3266 42.8716 23.0641 43H24.395C28.6613 42.8692 32.6614 40.7725 35.7275 37.2345C38.7971 33.5681 40.5334 28.7183 40.5334 23.6081C40.5388 21.5728 40.2699 19.5457 39.7336 17.5799H40.1329C42.6665 17.5799 44.4004 16.6629 45.4664 15.746C46.9328 14.5663 47.5414 13.5947 47.7326 13.1297C47.8233 12.9085 48 12.2116 48 12.2116L47.199 11.5575C47.1217 11.4984 47.0432 11.4373 46.9617 11.3739L46.9612 11.3735L46.9611 11.3734C46.1993 10.7805 45.1799 9.98706 42.531 8.80559C39.7312 7.49028 35.1975 5.78609 29.1986 5.13082H28.4871C28.3915 6.87663 26.4629 8.27281 24.0805 8.27281C21.6376 8.27281 19.6569 6.80765 19.6569 5H19.3326L18.7893 5.04162ZM8.92565 14.5901C8.90337 14.6038 8.87938 14.6146 8.85427 14.6223C8.55156 14.6686 8.24587 14.6936 7.93954 14.6972C7.91789 14.6972 7.89688 14.6997 7.87633 14.7021C7.85669 14.7044 7.83747 14.7067 7.81855 14.7067C6.00362 14.7067 4.42221 13.9575 3.54137 12.8455C3.52735 12.8278 3.51481 12.8094 3.50231 12.791L3.50231 12.791C3.49216 12.7761 3.48204 12.7612 3.47119 12.7468C3.47119 12.6719 5.31758 11.5421 8.15975 10.3077C9.35882 9.78678 11.0757 9.24686 12.1635 8.94003C12.812 8.75689 13.2367 8.65699 13.1956 8.69386L13.1593 8.73786L12.5228 9.5299C11.988 10.1959 11.2681 11.0938 10.9354 11.5136C10.6897 11.8256 10.2843 12.4838 9.89388 13.1179L9.89387 13.1179C9.54032 13.692 9.19898 14.2463 8.99946 14.5057C8.97858 14.5238 8.95944 14.5481 8.94401 14.5676C8.93708 14.5764 8.9309 14.5842 8.92565 14.5901ZM15.1965 36.2681C14.6665 32.9917 14.9303 28.1432 15.9974 21.9841C16.7972 16.7419 17.9963 11.8981 18.663 9.27102L18.6808 9.20334L18.6808 9.2032L18.6809 9.20296L18.6809 9.20289C18.7387 8.98265 18.8159 8.68901 18.8989 8.45163C18.8467 8.3986 18.8026 8.34372 18.7581 8.28833L18.7581 8.28825C18.7407 8.26665 18.7233 8.24497 18.7053 8.22329L18.6738 8.20072L18.6738 8.2007L18.6737 8.20067C18.6279 8.16797 18.5789 8.13296 18.5299 8.09248C16.4313 9.24877 14.6455 10.8829 13.3222 12.8578C12.8027 13.6453 12.3476 14.472 11.961 15.3302L11.8691 15.5586C11.6126 16.1556 11.3912 16.7621 11.1964 17.3757C11.185 17.4117 11.1741 17.4484 11.1631 17.4853L11.1631 17.4854C11.1541 17.5155 11.1451 17.5456 11.1359 17.5755C10.9725 18.0952 10.8455 18.6209 10.7305 19.1501C10.7204 19.1981 10.7101 19.2459 10.6997 19.2938C10.679 19.3894 10.6583 19.4851 10.6398 19.5818C10.543 20.0599 10.4789 20.5439 10.422 21.0303C10.4143 21.0991 10.405 21.1667 10.3958 21.2338L10.3958 21.2339L10.3958 21.2339L10.3958 21.2339L10.3958 21.2339C10.3834 21.3246 10.371 21.4145 10.3627 21.506C10.3046 22.1363 10.2695 22.7725 10.2695 23.4183V23.5551C10.2732 24.1176 10.2974 24.6765 10.3482 25.2307C10.3527 25.2843 10.36 25.3368 10.3674 25.3893C10.3737 25.4346 10.38 25.4799 10.3845 25.5256C10.4401 26.043 10.5055 26.5567 10.5998 27.0621C10.6035 27.0843 10.6084 27.1064 10.6133 27.1285L10.6134 27.1286C10.6167 27.1433 10.6199 27.158 10.6228 27.1727C11.3016 30.7143 12.9157 33.9277 15.1965 36.2681ZM21.322 39.8732L21.3168 39.8719C20.5298 36.8519 20.4025 31.6295 20.9348 24.2049C21.3304 18.3728 21.985 12.8072 22.3867 10.2776C21.974 10.192 21.5693 10.0727 21.1768 9.92085C21.0237 10.5933 20.8903 11.1447 20.7538 11.7087L20.7538 11.7088C20.4316 13.0398 20.0924 14.4415 19.4381 17.6724C19.3316 18.1278 18.9396 20.0068 18.5391 22.3723C16.7641 33.3502 17.6449 37.3163 18.5391 38.8029C19.4149 39.2741 20.3483 39.6333 21.3168 39.8719L21.3171 39.8732H21.322ZM24.3945 40.1747L24.3945 40.1748H24.3897L24.3945 40.1747ZM24.3945 40.1747L24.2735 39.8061C23.7412 38.234 22.9426 34.3023 23.7412 24.3459C24.1308 18.4651 24.9003 12.8435 25.3141 10.3818C25.7291 10.3195 26.1382 10.2241 26.5374 10.0964C26.4067 12.746 26.2784 17.3603 26.2784 21.9888V25.2652C26.4091 32.3341 27.0564 36.9936 28.2144 39.3959C26.9967 39.8716 25.7041 40.1351 24.3945 40.1747ZM37.7065 23.9549C37.6968 24.4366 37.669 24.9123 37.6254 25.382C37.5891 25.7578 37.5419 26.1301 37.4863 26.4975C37.4596 26.6779 37.4278 26.8556 37.3958 27.0337L37.3958 27.0339L37.3786 27.1302C36.4917 31.9098 33.9459 35.9187 30.5109 38.1902C29.8466 36.7167 28.9283 32.7637 28.7964 21.9832C28.7964 17.9772 28.912 14.0343 28.991 11.3396V11.3395V11.3395C29.0263 10.1352 29.0543 9.18019 29.0614 8.58034C29.1963 8.44707 29.3232 8.3061 29.4413 8.15816C32.0633 9.6031 34.2412 11.865 35.6859 14.7062L36.1287 15.5624C36.3429 16.0381 36.5292 16.5388 36.701 17.0442C36.758 17.2139 36.8077 17.3874 36.8575 17.5611L36.8575 17.5612C36.8754 17.6236 36.8933 17.686 36.9115 17.7482C36.9974 18.036 37.0821 18.325 37.1535 18.62C37.2249 18.9149 37.2878 19.2336 37.3471 19.544C37.3931 19.7819 37.4391 20.0197 37.4778 20.2576C37.5391 20.654 37.5895 21.0583 37.629 21.4706C37.6411 21.5895 37.652 21.7025 37.6617 21.819C37.7028 22.3435 37.7283 22.8739 37.7283 23.4114C37.729 23.5181 37.7229 23.6243 37.7169 23.731L37.7169 23.7314C37.7127 23.8055 37.7085 23.8799 37.7065 23.9549ZM40.1822 14.7103C41.9996 14.7103 43.5773 13.961 44.4594 12.8491C44.478 12.8229 44.494 12.7974 44.5094 12.773C44.5149 12.7641 44.5204 12.7554 44.5259 12.7468C44.5259 12.6719 42.682 11.5409 39.8458 10.3077C38.6468 9.78678 36.9311 9.24686 35.8421 8.94003C35.1936 8.75689 34.7677 8.65699 34.81 8.69386L34.8463 8.73786L35.4828 9.53347C36.0176 10.1994 36.7375 11.0973 37.0702 11.5171C37.3135 11.8237 37.7134 12.4722 38.1011 13.1011C38.4595 13.6825 38.8076 14.2471 39.0122 14.5093C39.0206 14.5199 39.03 14.5328 39.0393 14.5455C39.0529 14.5641 39.0663 14.5824 39.0763 14.5937C39.0983 14.6072 39.1219 14.618 39.1465 14.6258C39.4492 14.6721 39.7549 14.6971 40.0612 14.7007C40.0785 14.7013 40.0957 14.7032 40.1134 14.7052C40.1354 14.7077 40.1581 14.7103 40.1822 14.7103Z" fill="white"/>
</svg>
