<svg width="308" height="71" viewBox="0 0 308 71" fill="none" xmlns="http://www.w3.org/2000/svg">
<path fill-rule="evenodd" clip-rule="evenodd" d="M35.982 0.07777C24.5878 1.7776 16.3576 4.6662 11.1333 7.1104C5.64173 9.66495 3.84128 11.11 2.59058 12.1138L2.42919 12.2432L0.9375 13.4653C0.9375 13.4653 1.42269 14.6652 1.63031 15.0852L1.64524 15.1159C1.84664 15.5316 3.011 17.935 5.91806 20.078C8.92246 22.3191 12.593 23.5232 16.3621 23.5043C15.3618 27.1774 14.8603 30.9648 14.8704 34.7676C14.8704 44.3223 18.1021 53.3769 23.8228 60.2318C26.3692 63.2163 29.3857 65.779 32.7571 67.8221L34.2511 68.5554C37.2345 70.0241 40.7143 70.7596 43.9549 70.9996H46.4373C54.3945 70.7552 61.8552 66.8378 67.5737 60.2273C73.299 53.3769 76.5374 44.3156 76.5374 34.7676C76.5475 30.9648 76.0459 27.1774 75.0457 23.5043H75.7904C80.5159 23.5043 83.7498 21.7912 85.738 20.078C88.4731 17.8738 89.6082 16.0584 89.9648 15.1896C90.134 14.7763 90.4635 13.4742 90.4635 13.4742L88.9696 12.2521C88.8251 12.1415 88.6782 12.027 88.5259 11.9082C87.105 10.8004 85.2036 9.31787 80.2632 7.1104C75.0412 4.65287 66.5853 1.46874 55.3965 0.24442H54.0695C53.8912 3.50632 50.294 6.11495 45.8506 6.11495C41.2943 6.11495 37.6 3.37744 37.6 0H36.9952L35.982 0.07777ZM17.5866 17.9185C17.5451 17.9441 17.5003 17.9642 17.4535 17.9785C16.8889 18.065 16.3187 18.1118 15.7474 18.1185C15.707 18.1185 15.6678 18.1231 15.6295 18.1276C15.5929 18.132 15.557 18.1362 15.5217 18.1362C12.1367 18.1362 9.18714 16.7364 7.54425 14.6588C7.51811 14.6257 7.49472 14.5913 7.47142 14.557L7.47141 14.5569C7.45247 14.5291 7.4336 14.5013 7.41337 14.4744C7.41337 14.3344 10.8571 12.2235 16.1581 9.91705C18.3945 8.94382 21.5968 7.93503 23.6256 7.36175C24.8352 7.01956 25.6273 6.83292 25.5506 6.9018L25.4829 6.98401L24.2958 8.46387C23.2984 9.70819 21.9556 11.3858 21.335 12.1702C20.8767 12.7532 20.1207 13.983 19.3925 15.1677L19.3925 15.1677L19.3924 15.1678C18.733 16.2405 18.0964 17.2761 17.7243 17.7607C17.6853 17.7945 17.6496 17.8398 17.6208 17.8764L17.6208 17.8765C17.6079 17.8929 17.5964 17.9075 17.5866 17.9185ZM29.281 58.4218C28.2925 52.3001 28.7845 43.241 30.7749 31.7333C32.2666 21.9387 34.503 12.8885 35.7465 7.98011L35.7796 7.8538C35.8875 7.4422 36.0315 6.89303 36.1865 6.44916C36.0891 6.35007 36.0069 6.24754 35.9239 6.14404C35.8915 6.10364 35.859 6.06308 35.8254 6.02253L35.7667 5.98038C35.6812 5.91923 35.5897 5.85379 35.4982 5.77811C31.5841 7.93854 28.2533 10.9918 25.7853 14.6817C24.8164 16.153 23.9674 17.6977 23.2465 19.3012L23.075 19.7278C22.5966 20.8433 22.1836 21.9765 21.8203 23.123C21.7992 23.1902 21.7788 23.2588 21.7583 23.3276L21.7583 23.3277L21.7582 23.3279C21.7415 23.3841 21.7247 23.4405 21.7074 23.4963C21.4028 24.4674 21.1658 25.4495 20.9515 26.4383C20.9326 26.5279 20.9133 26.6173 20.894 26.7067C20.8554 26.8854 20.8168 27.0641 20.7822 27.2449C20.6017 28.1381 20.4821 29.0425 20.376 29.9513C20.3616 30.0799 20.3443 30.2061 20.3271 30.3316C20.304 30.5009 20.281 30.669 20.2654 30.8401C20.1571 32.0177 20.0916 33.2065 20.0916 34.413V34.6686C20.0984 35.7196 20.1435 36.7639 20.2383 37.7994C20.2468 37.8995 20.2605 37.9976 20.2741 38.0956C20.2859 38.1803 20.2977 38.2649 20.306 38.3504C20.4098 39.317 20.5317 40.2769 20.7077 41.2212C20.7145 41.2626 20.7237 41.3039 20.7329 41.3452L20.7329 41.3452C20.739 41.3728 20.7452 41.4003 20.7506 41.4279C22.0166 48.045 25.0271 54.0489 29.281 58.4218ZM40.7059 65.1583L40.6962 65.1559C39.2284 59.5132 38.9909 49.7557 39.9837 35.8834C40.7217 24.9868 41.9426 14.5878 42.6918 9.86159C41.922 9.70166 41.1671 9.47869 40.4351 9.19499C40.1496 10.4516 39.9007 11.4818 39.6461 12.5357C39.0453 15.0226 38.4126 17.6414 37.1922 23.678C36.9936 24.529 36.2624 28.0398 35.5154 32.4593C32.2048 52.9706 33.8477 60.381 35.5154 63.1585C37.1489 64.0388 38.89 64.7101 40.6962 65.1559L40.6968 65.1583H40.7059ZM46.4373 65.7209L46.4374 65.7211H46.4283L46.4373 65.7209ZM46.4373 65.7209L46.2117 65.0323C45.2187 62.0948 43.7293 54.7489 45.2187 36.1463C45.9454 25.1585 47.3807 14.6551 48.1525 10.0556C48.9264 9.93926 49.6895 9.7609 50.434 9.5223C50.1903 14.4729 49.9511 23.0943 49.9511 31.7423V37.8639C50.1948 51.0715 51.4021 59.7773 53.5618 64.2657C51.2908 65.1546 48.8799 65.647 46.4373 65.7209ZM71.2668 35.4163C71.2488 36.3163 71.1969 37.2051 71.1156 38.0827C71.0479 38.7849 70.9599 39.4804 70.8561 40.167C70.8064 40.504 70.747 40.8361 70.6874 41.1689L70.6874 41.1694L70.6553 41.3491C69.0011 50.2793 64.253 57.7697 57.8462 62.0137C56.6072 59.2606 54.8944 51.8747 54.6484 31.7323C54.6484 24.2475 54.864 16.8805 55.0113 11.8457V11.8457C55.0772 9.59545 55.1294 7.81111 55.1426 6.69032C55.3944 6.44131 55.631 6.17791 55.8512 5.90151C60.7415 8.60124 64.8036 12.8275 67.4981 18.1358L68.3241 19.7357C68.7235 20.6245 69.0711 21.5599 69.3915 22.5043C69.4977 22.8213 69.5905 23.1455 69.6833 23.4698C69.7167 23.5865 69.7501 23.7033 69.7842 23.8197C69.9444 24.3574 70.1024 24.8974 70.2355 25.4484C70.3687 25.9995 70.486 26.595 70.5966 27.1749C70.6824 27.6193 70.7681 28.0637 70.8403 28.5081C70.9547 29.2488 71.0487 30.0043 71.1224 30.7746C71.145 30.9968 71.1653 31.2079 71.1833 31.4256C71.2601 32.4055 71.3075 33.3965 71.3075 34.4009C71.3088 34.6001 71.2976 34.7985 71.2863 34.998C71.2784 35.1367 71.2705 35.276 71.2668 35.4163ZM75.8837 18.1429C79.2733 18.1429 82.216 16.743 83.8612 14.6655C83.8959 14.6166 83.9258 14.5689 83.9544 14.5233C83.9648 14.5067 83.9751 14.4904 83.9853 14.4744C83.9853 14.3344 80.5461 12.2213 75.2563 9.91705C73.02 8.94382 69.8199 7.93503 67.7889 7.36175C66.5793 7.01956 65.7849 6.83292 65.8639 6.9018L65.9316 6.98401L67.1186 8.47053C68.1161 9.71485 69.4589 11.3925 70.0795 12.1768C70.5333 12.7495 71.279 13.9612 72.0022 15.1363C72.6707 16.2225 73.3199 17.2775 73.7015 17.7674C73.7171 17.7873 73.7346 17.8113 73.752 17.8351C73.7773 17.8698 73.8024 17.9041 73.8211 17.9251C73.8621 17.9503 73.906 17.9705 73.952 17.9851C74.5166 18.0716 75.0867 18.1183 75.658 18.1251C75.6902 18.1261 75.7224 18.1298 75.7554 18.1335C75.7964 18.1381 75.8387 18.1429 75.8837 18.1429Z" fill="white"/>
<path d="M252.278 26.2506C248.12 23.5561 242.79 23.5742 238.65 26.2969V16.8753C238.65 15.2487 237.348 13.9302 235.742 13.9302C234.136 13.9302 232.834 15.2487 232.834 16.8753V50.9224C232.834 52.5489 234.136 53.8674 235.742 53.8674C237.348 53.8674 238.65 52.5489 238.65 50.9224V36.9971C238.647 33.2811 241.546 30.2279 245.213 30.0856C248.879 29.9432 252 32.7627 252.278 36.4681V37.5306V50.9268C252.321 52.5213 253.61 53.7913 255.185 53.7913C256.76 53.7913 258.049 52.5213 258.092 50.9268V36.9971C258.094 32.6443 255.902 28.5916 252.278 26.2506Z" fill="white"/>
<path d="M225.376 45.4496C225.376 45.4234 225.376 45.3971 225.376 45.3687C225.376 45.3402 225.359 45.2527 225.35 45.1936C225.342 45.1346 225.35 45.1368 225.333 45.1083C225.318 45.0361 225.3 44.9639 225.279 44.8895C225.257 44.8151 225.252 44.8064 225.237 44.7648L225.205 44.6729L225.146 44.5329L225.126 44.4935C225.076 44.3858 225.02 44.2813 224.957 44.1806C224.482 43.4268 223.683 42.9411 222.8 42.8688C221.916 42.7966 221.05 43.1462 220.461 43.813L220.382 43.9005C216.74 47.9152 211.024 49.2701 205.985 47.3137C200.946 45.3573 197.614 40.4899 197.591 35.0522C197.569 29.6146 200.861 24.7194 205.883 22.7209C210.906 20.7223 216.633 22.0294 220.308 26.0134C220.402 26.1362 220.504 26.2518 220.615 26.3591C221.433 27.1498 222.642 27.3709 223.685 26.9206C224.727 26.4702 225.401 25.4357 225.396 24.2936C225.396 23.7443 225.237 23.2068 224.94 22.7467C224.779 22.4988 224.581 22.2773 224.353 22.0903C219.093 16.4579 210.952 14.6276 203.813 17.4725C196.673 20.3173 191.981 27.2611 191.975 34.9918C191.968 42.7224 196.648 49.6741 203.783 52.5312C210.918 55.3882 219.062 53.5718 224.331 47.9484C225.008 47.4079 225.403 46.5863 225.405 45.7166C225.389 45.6203 225.383 45.5262 225.376 45.4496Z" fill="white"/>
<path d="M124.216 16.1484C125.177 16.1484 125.899 16.3885 126.381 16.8685C126.98 17.4304 127.327 18.2102 127.342 19.0311C127.342 19.9912 127.102 20.7135 126.381 21.1936C125.9 21.6736 125.179 21.9137 124.216 21.9137H117.72V50.9821C117.72 51.9445 117.48 52.6646 116.759 53.1447C116.276 53.6269 115.315 53.867 114.594 53.867C113.631 53.867 112.91 53.6262 112.429 53.1447C111.948 52.6631 111.708 51.9438 111.708 50.9866V21.9181H105.21C104.249 21.9181 103.527 21.6781 103.045 21.198C102.446 20.6359 102.1 19.8562 102.084 19.0355C102.084 18.0731 102.324 17.353 103.045 16.8729C103.528 16.3929 104.489 16.1528 105.21 16.1528L124.216 16.1484Z" fill="white"/>
<path d="M267.38 23.5449C269.226 23.5449 270.723 22.0548 270.723 20.2168C270.723 18.3787 269.226 16.8887 267.38 16.8887C265.534 16.8887 264.037 18.3787 264.037 20.2168C264.037 22.0548 265.534 23.5449 267.38 23.5449Z" fill="white"/>
<path fill-rule="evenodd" clip-rule="evenodd" d="M283.896 26.8994C286.33 24.7189 289.488 23.5231 292.755 23.5452C300.658 23.5452 306.884 30.2536 307.123 38.6347C307.123 47.018 300.656 53.7242 292.755 53.7242C289.404 53.7242 286.29 52.2886 283.896 50.3722V62.8253C283.896 64.2631 282.461 65.7009 281.023 65.7009C279.445 65.6796 278.17 64.4042 278.15 62.8253V27.1453C278.167 25.5641 279.442 24.2854 281.023 24.2652C282.461 24.2652 283.657 25.4616 283.896 26.8994ZM283.896 38.6354C283.896 43.6667 287.966 47.7365 292.755 47.7365C297.535 47.7365 301.614 43.6645 301.614 38.6354C301.614 33.6063 297.544 29.5343 292.755 29.5343C287.966 29.5343 283.896 33.6063 283.896 38.6354Z" fill="white"/>
<path fill-rule="evenodd" clip-rule="evenodd" d="M150.441 46.8241C150.439 47.6144 150.124 48.3721 149.562 48.9312L149.569 48.9657C144.525 53.824 136.753 54.5073 130.931 50.6043C125.109 46.7014 122.825 39.2765 125.454 32.7986C128.082 26.3207 134.906 22.5565 141.819 23.7716C148.731 24.9866 153.847 30.8496 154.087 37.8316V37.8833C154.052 38.6096 153.752 39.2984 153.243 39.8204L153.228 39.8355C152.697 40.3479 151.995 40.6476 151.256 40.677H130.711V40.705C130.834 41.1306 130.989 41.5464 131.174 41.9491C132.323 44.5547 134.677 46.4391 137.48 46.9983C140.284 47.5576 143.185 46.7214 145.255 44.7579C145.275 44.7374 145.297 44.718 145.319 44.6987C145.342 44.6793 145.364 44.6599 145.384 44.6395C146.256 43.817 147.537 43.5921 148.638 44.0681C149.74 44.544 150.449 45.6289 150.441 46.8241ZM139.243 29.5379C135.281 29.5379 131.803 32.165 130.737 35.9637H147.75C146.684 32.165 143.206 29.5379 139.243 29.5379Z" fill="white"/>
<path fill-rule="evenodd" clip-rule="evenodd" d="M183.13 46.8176C183.128 47.6077 182.812 48.365 182.252 48.9248L182.258 48.9657C177.214 53.824 169.442 54.5073 163.621 50.6043C157.799 46.7014 155.515 39.2765 158.143 32.7986C160.772 26.3207 167.596 22.5565 174.508 23.7716C181.421 24.9866 186.536 30.8496 186.776 37.8316V37.8833C186.741 38.6101 186.441 39.2991 185.931 39.8204L185.915 39.8355C185.385 40.3474 184.684 40.647 183.945 40.677H163.401C163.402 40.6863 163.402 40.6957 163.401 40.705C164.499 44.4913 167.96 47.1145 171.919 47.162C174.164 47.1585 176.321 46.2953 177.944 44.7514C177.963 44.7337 177.982 44.7167 178.001 44.6999C178.026 44.678 178.051 44.6562 178.074 44.633C178.945 43.8105 180.226 43.5856 181.328 44.0616C182.429 44.5376 183.139 45.6224 183.13 46.8176ZM171.925 29.517C167.962 29.517 164.484 32.1441 163.419 35.9429H180.432C179.366 32.1441 175.888 29.517 171.925 29.517Z" fill="white"/>
<path d="M270.723 28.9931C270.723 27.2096 269.226 25.7637 267.38 25.7637C265.534 25.7637 264.037 27.2096 264.037 28.9931V49.8986C264.037 51.6822 265.534 53.1281 267.38 53.1281C269.226 53.1281 270.723 51.6822 270.723 49.8986V28.9931Z" fill="white"/>
</svg>
