<svg width="335" height="249" viewBox="0 0 335 249" fill="none" xmlns="http://www.w3.org/2000/svg">
<line x1="0.5" x2="0.5" y2="248" stroke="#C0C6CC"/>
<path d="M335 248L0.000602007 248" stroke="#C0C6CC"/>
<line opacity="0.5" x1="43.9258" y1="6.82007" x2="43.9258" y2="247.38" stroke="#65809A" stroke-dasharray="4 4"/>
<line opacity="0.5" x1="22.2129" y1="6.82056" x2="22.2129" y2="247.381" stroke="#65809A" stroke-dasharray="4 4"/>
<line opacity="0.5" x1="65.6387" y1="6.82007" x2="65.6387" y2="247.38" stroke="#65809A" stroke-dasharray="4 4"/>
<line opacity="0.5" x1="87.3516" y1="6.82007" x2="87.3516" y2="247.38" stroke="#65809A" stroke-dasharray="4 4"/>
<line opacity="0.5" x1="109.064" y1="6.82007" x2="109.064" y2="247.38" stroke="#65809A" stroke-dasharray="4 4"/>
<line opacity="0.5" x1="130.777" y1="6.82007" x2="130.777" y2="247.38" stroke="#65809A" stroke-dasharray="4 4"/>
<line opacity="0.5" x1="152.49" y1="6.82007" x2="152.49" y2="247.38" stroke="#65809A" stroke-dasharray="4 4"/>
<line opacity="0.5" x1="174.203" y1="6.82007" x2="174.203" y2="247.38" stroke="#65809A" stroke-dasharray="4 4"/>
<line opacity="0.5" x1="195.918" y1="6.82007" x2="195.918" y2="247.38" stroke="#65809A" stroke-dasharray="4 4"/>
<line opacity="0.5" x1="217.629" y1="6.82007" x2="217.629" y2="247.38" stroke="#65809A" stroke-dasharray="4 4"/>
<line opacity="0.5" x1="239.342" y1="6.82007" x2="239.342" y2="247.38" stroke="#65809A" stroke-dasharray="4 4"/>
<line opacity="0.5" x1="261.057" y1="6.82007" x2="261.057" y2="247.38" stroke="#65809A" stroke-dasharray="4 4"/>
<line opacity="0.5" x1="282.768" y1="6.82007" x2="282.768" y2="247.38" stroke="#65809A" stroke-dasharray="4 4"/>
<line opacity="0.5" x1="304.48" y1="6.82007" x2="304.48" y2="247.38" stroke="#65809A" stroke-dasharray="4 4"/>
<line opacity="0.5" x1="328.055" y1="6.82007" x2="328.055" y2="247.38" stroke="#65809A" stroke-dasharray="4 4"/>
<path d="M43.4258 236.22C98.3285 233.43 272.962 249.426 327.555 49.29" stroke="#006EBD" stroke-width="3"/>
</svg>
