<svg width="543" height="401" viewBox="0 0 543 401" fill="none" xmlns="http://www.w3.org/2000/svg">
<line x1="0.5" x2="0.5" y2="400" stroke="#C0C6CC"/>
<path d="M540 400L0 400" stroke="#C0C6CC"/>
<line opacity="0.5" x1="70.5" y1="11" x2="70.5" y2="399" stroke="#65809A" stroke-dasharray="4 4"/>
<line opacity="0.5" x1="35.5" y1="11" x2="35.5" y2="399" stroke="#65809A" stroke-dasharray="4 4"/>
<line opacity="0.5" x1="105.5" y1="11" x2="105.5" y2="399" stroke="#65809A" stroke-dasharray="4 4"/>
<line opacity="0.5" x1="140.5" y1="11" x2="140.5" y2="399" stroke="#65809A" stroke-dasharray="4 4"/>
<line opacity="0.5" x1="175.5" y1="11" x2="175.5" y2="399" stroke="#65809A" stroke-dasharray="4 4"/>
<line opacity="0.5" x1="210.5" y1="11" x2="210.5" y2="399" stroke="#65809A" stroke-dasharray="4 4"/>
<line opacity="0.5" x1="245.5" y1="11" x2="245.5" y2="399" stroke="#65809A" stroke-dasharray="4 4"/>
<line opacity="0.5" x1="280.5" y1="11" x2="280.5" y2="399" stroke="#65809A" stroke-dasharray="4 4"/>
<line opacity="0.5" x1="315.5" y1="11" x2="315.5" y2="399" stroke="#65809A" stroke-dasharray="4 4"/>
<line opacity="0.5" x1="350.5" y1="11" x2="350.5" y2="399" stroke="#65809A" stroke-dasharray="4 4"/>
<line opacity="0.5" x1="385.5" y1="11" x2="385.5" y2="399" stroke="#65809A" stroke-dasharray="4 4"/>
<line opacity="0.5" x1="420.5" y1="11" x2="420.5" y2="399" stroke="#65809A" stroke-dasharray="4 4"/>
<line opacity="0.5" x1="455.5" y1="11" x2="455.5" y2="399" stroke="#65809A" stroke-dasharray="4 4"/>
<line opacity="0.5" x1="490.5" y1="11" x2="490.5" y2="399" stroke="#65809A" stroke-dasharray="4 4"/>
<line opacity="0.5" x1="528.5" y1="11" x2="528.5" y2="399" stroke="#65809A" stroke-dasharray="4 4"/>
<path d="M72 384.5C213.333 388.833 441.5 358.8 529.5 36" stroke="#0E1E2D" stroke-width="3"/>
<path d="M70 381C158.5 376.5 440 402.3 528 79.5" stroke="#006EBD" stroke-width="3"/>
<circle opacity="0.5" cx="70" cy="381" r="12" stroke="#14C4B3" stroke-width="2"/>
<circle opacity="0.2" cx="70" cy="381" r="14.5" stroke="#14C4B3"/>
<g filter="url(#filter0_d)">
<circle cx="70" cy="381" r="9" fill="#14C4B3"/>
</g>
<circle opacity="0.5" cx="175" cy="375" r="12" stroke="#006EBD" stroke-width="2"/>
<circle opacity="0.2" cx="175" cy="375" r="14.5" stroke="#006EBD"/>
<g filter="url(#filter1_d)">
<circle cx="175" cy="375" r="9" fill="#006EBD"/>
</g>
<circle opacity="0.5" cx="245" cy="366" r="12" stroke="#006EBD" stroke-width="2"/>
<circle opacity="0.2" cx="245" cy="366" r="14.5" stroke="#006EBD"/>
<g filter="url(#filter2_d)">
<circle cx="245" cy="366" r="9" fill="#006EBD"/>
</g>
<circle opacity="0.5" cx="316" cy="343" r="12" stroke="#006EBD" stroke-width="2"/>
<circle opacity="0.2" cx="316" cy="343" r="14.5" stroke="#006EBD"/>
<g filter="url(#filter3_d)">
<circle cx="316" cy="343" r="9" fill="#006EBD"/>
</g>
<circle opacity="0.5" cx="385" cy="304" r="12" stroke="#006EBD" stroke-width="2"/>
<circle opacity="0.2" cx="385" cy="304" r="14.5" stroke="#006EBD"/>
<g filter="url(#filter4_d)">
<circle cx="385" cy="304" r="9" fill="#006EBD"/>
</g>
<circle opacity="0.5" cx="490" cy="177" r="12" stroke="#006EBD" stroke-width="2"/>
<circle opacity="0.2" cx="490" cy="177" r="14.5" stroke="#006EBD"/>
<g filter="url(#filter5_d)">
<circle cx="490" cy="177" r="9" fill="#006EBD"/>
</g>
<circle opacity="0.5" cx="528" cy="79" r="12" stroke="#006EBD" stroke-width="2"/>
<circle opacity="0.2" cx="528" cy="79" r="14.5" stroke="#006EBD"/>
<g filter="url(#filter6_d)">
<circle cx="528" cy="79" r="9" fill="#006EBD"/>
</g>
<path d="M58.6278 351V349H54.2758C57.0438 346.984 58.5478 345.4 58.5478 343.576C58.5478 341.448 56.7398 340.168 54.4678 340.168C52.9798 340.168 51.3958 340.712 50.3558 341.912L51.6518 343.416C52.3718 342.664 53.2998 342.184 54.5158 342.184C55.3958 342.184 56.2438 342.648 56.2438 343.576C56.2438 344.888 54.9638 345.992 50.5958 349.224V351H58.6278ZM64.3975 351.192C67.4375 351.192 68.8135 348.424 68.8135 345.672C68.8135 342.92 67.4375 340.168 64.3975 340.168C61.3415 340.168 59.9815 342.92 59.9815 345.672C59.9815 348.424 61.3415 351.192 64.3975 351.192ZM64.3975 349.176C62.8615 349.176 62.2855 347.64 62.2855 345.672C62.2855 343.704 62.8615 342.184 64.3975 342.184C65.9175 342.184 66.4935 343.704 66.4935 345.672C66.4935 347.64 65.9175 349.176 64.3975 349.176ZM74.3194 351.192C77.3594 351.192 78.7354 348.424 78.7354 345.672C78.7354 342.92 77.3594 340.168 74.3194 340.168C71.2634 340.168 69.9034 342.92 69.9034 345.672C69.9034 348.424 71.2634 351.192 74.3194 351.192ZM74.3194 349.176C72.7834 349.176 72.2074 347.64 72.2074 345.672C72.2074 343.704 72.7834 342.184 74.3194 342.184C75.8394 342.184 76.4154 343.704 76.4154 345.672C76.4154 347.64 75.8394 349.176 74.3194 349.176ZM83.7133 351L87.6813 341.912V340.328H79.6653V342.328H85.0413L81.2173 351H83.7133Z" fill="#14C4B3"/>
<defs>
<filter id="filter0_d" x="57" y="368" width="26" height="26" filterUnits="userSpaceOnUse" color-interpolation-filters="sRGB">
<feFlood flood-opacity="0" result="BackgroundImageFix"/>
<feColorMatrix in="SourceAlpha" type="matrix" values="0 0 0 0 0 0 0 0 0 0 0 0 0 0 0 0 0 0 127 0"/>
<feOffset/>
<feGaussianBlur stdDeviation="2"/>
<feColorMatrix type="matrix" values="0 0 0 0 0.054902 0 0 0 0 0.117647 0 0 0 0 0.176471 0 0 0 0.8 0"/>
<feBlend mode="normal" in2="BackgroundImageFix" result="effect1_dropShadow"/>
<feBlend mode="normal" in="SourceGraphic" in2="effect1_dropShadow" result="shape"/>
</filter>
<filter id="filter1_d" x="162" y="362" width="26" height="26" filterUnits="userSpaceOnUse" color-interpolation-filters="sRGB">
<feFlood flood-opacity="0" result="BackgroundImageFix"/>
<feColorMatrix in="SourceAlpha" type="matrix" values="0 0 0 0 0 0 0 0 0 0 0 0 0 0 0 0 0 0 127 0"/>
<feOffset/>
<feGaussianBlur stdDeviation="2"/>
<feColorMatrix type="matrix" values="0 0 0 0 0.054902 0 0 0 0 0.117647 0 0 0 0 0.176471 0 0 0 0.8 0"/>
<feBlend mode="normal" in2="BackgroundImageFix" result="effect1_dropShadow"/>
<feBlend mode="normal" in="SourceGraphic" in2="effect1_dropShadow" result="shape"/>
</filter>
<filter id="filter2_d" x="232" y="353" width="26" height="26" filterUnits="userSpaceOnUse" color-interpolation-filters="sRGB">
<feFlood flood-opacity="0" result="BackgroundImageFix"/>
<feColorMatrix in="SourceAlpha" type="matrix" values="0 0 0 0 0 0 0 0 0 0 0 0 0 0 0 0 0 0 127 0"/>
<feOffset/>
<feGaussianBlur stdDeviation="2"/>
<feColorMatrix type="matrix" values="0 0 0 0 0.054902 0 0 0 0 0.117647 0 0 0 0 0.176471 0 0 0 0.8 0"/>
<feBlend mode="normal" in2="BackgroundImageFix" result="effect1_dropShadow"/>
<feBlend mode="normal" in="SourceGraphic" in2="effect1_dropShadow" result="shape"/>
</filter>
<filter id="filter3_d" x="303" y="330" width="26" height="26" filterUnits="userSpaceOnUse" color-interpolation-filters="sRGB">
<feFlood flood-opacity="0" result="BackgroundImageFix"/>
<feColorMatrix in="SourceAlpha" type="matrix" values="0 0 0 0 0 0 0 0 0 0 0 0 0 0 0 0 0 0 127 0"/>
<feOffset/>
<feGaussianBlur stdDeviation="2"/>
<feColorMatrix type="matrix" values="0 0 0 0 0.054902 0 0 0 0 0.117647 0 0 0 0 0.176471 0 0 0 0.8 0"/>
<feBlend mode="normal" in2="BackgroundImageFix" result="effect1_dropShadow"/>
<feBlend mode="normal" in="SourceGraphic" in2="effect1_dropShadow" result="shape"/>
</filter>
<filter id="filter4_d" x="372" y="291" width="26" height="26" filterUnits="userSpaceOnUse" color-interpolation-filters="sRGB">
<feFlood flood-opacity="0" result="BackgroundImageFix"/>
<feColorMatrix in="SourceAlpha" type="matrix" values="0 0 0 0 0 0 0 0 0 0 0 0 0 0 0 0 0 0 127 0"/>
<feOffset/>
<feGaussianBlur stdDeviation="2"/>
<feColorMatrix type="matrix" values="0 0 0 0 0.054902 0 0 0 0 0.117647 0 0 0 0 0.176471 0 0 0 0.8 0"/>
<feBlend mode="normal" in2="BackgroundImageFix" result="effect1_dropShadow"/>
<feBlend mode="normal" in="SourceGraphic" in2="effect1_dropShadow" result="shape"/>
</filter>
<filter id="filter5_d" x="477" y="164" width="26" height="26" filterUnits="userSpaceOnUse" color-interpolation-filters="sRGB">
<feFlood flood-opacity="0" result="BackgroundImageFix"/>
<feColorMatrix in="SourceAlpha" type="matrix" values="0 0 0 0 0 0 0 0 0 0 0 0 0 0 0 0 0 0 127 0"/>
<feOffset/>
<feGaussianBlur stdDeviation="2"/>
<feColorMatrix type="matrix" values="0 0 0 0 0.054902 0 0 0 0 0.117647 0 0 0 0 0.176471 0 0 0 0.8 0"/>
<feBlend mode="normal" in2="BackgroundImageFix" result="effect1_dropShadow"/>
<feBlend mode="normal" in="SourceGraphic" in2="effect1_dropShadow" result="shape"/>
</filter>
<filter id="filter6_d" x="515" y="66" width="26" height="26" filterUnits="userSpaceOnUse" color-interpolation-filters="sRGB">
<feFlood flood-opacity="0" result="BackgroundImageFix"/>
<feColorMatrix in="SourceAlpha" type="matrix" values="0 0 0 0 0 0 0 0 0 0 0 0 0 0 0 0 0 0 127 0"/>
<feOffset/>
<feGaussianBlur stdDeviation="2"/>
<feColorMatrix type="matrix" values="0 0 0 0 0.054902 0 0 0 0 0.117647 0 0 0 0 0.176471 0 0 0 0.8 0"/>
<feBlend mode="normal" in2="BackgroundImageFix" result="effect1_dropShadow"/>
<feBlend mode="normal" in="SourceGraphic" in2="effect1_dropShadow" result="shape"/>
</filter>
</defs>
</svg>
