<svg width="96" height="96" viewBox="0 0 96 96" fill="none" xmlns="http://www.w3.org/2000/svg">
<path d="M68.79 85.23C68.0342 85.2324 67.3054 84.9495 66.7492 84.4378C66.193 83.9261 65.8504 83.2233 65.79 82.47C65.395 77.47 62.79 72.775 58.03 68.47C55.008 65.8018 51.6329 63.5624 48 61.815C44.3629 63.5728 40.9846 65.8222 37.96 68.5C33.205 72.795 30.595 77.5 30.2 82.5C30.1337 83.2956 29.754 84.0323 29.1445 84.5481C28.535 85.0638 27.7456 85.3163 26.95 85.25C26.1543 85.1837 25.4176 84.804 24.9019 84.1945C24.3862 83.585 24.1337 82.7956 24.2 82C25.4 66.94 40.925 58.5 45.655 56.29C46.385 55.9481 47.1813 55.7709 47.9875 55.7709C48.7936 55.7709 49.5899 55.9481 50.32 56.29C55.045 58.515 70.57 66.94 71.77 82C71.8014 82.393 71.7551 82.7884 71.6336 83.1635C71.5121 83.5386 71.3179 83.8861 71.062 84.1861C70.8062 84.4861 70.4937 84.7327 70.1424 84.9118C69.7912 85.0909 69.4081 85.199 69.015 85.23H68.79Z" fill="#006EBD"/>
<path d="M48 45.03C47.3571 45.0296 46.7314 44.8228 46.215 44.44C42.43 41.64 36.085 36.33 36.085 32.225C36.085 31.4293 36.401 30.6663 36.9636 30.1037C37.5263 29.541 38.2893 29.225 39.085 29.225H56.915C57.7106 29.225 58.4737 29.541 59.0363 30.1037C59.5989 30.6663 59.915 31.4293 59.915 32.225C59.915 34.52 58.24 37.085 54.49 40.54C52.17 42.67 49.88 44.37 49.785 44.44C49.2685 44.8228 48.6428 45.0296 48 45.03ZM44.635 35.225C45.6 36.18 46.77 37.225 48 38.225C49.23 37.225 50.4 36.175 51.365 35.225H44.635Z" fill="#006EBD"/>
<path d="M47.97 53.58C47.1743 53.58 46.4113 53.2639 45.8486 52.7013C45.286 52.1387 44.97 51.3756 44.97 50.58V50.34C44.97 49.5443 45.286 48.7813 45.8486 48.2186C46.4113 47.656 47.1743 47.34 47.97 47.34C48.7656 47.34 49.5287 47.656 50.0913 48.2186C50.6539 48.7813 50.97 49.5443 50.97 50.34V50.58C50.97 51.3756 50.6539 52.1387 50.0913 52.7013C49.5287 53.2639 48.7656 53.58 47.97 53.58Z" fill="#006EBD"/>
<path d="M81.145 15.935H14.855C12.3354 15.935 9.91906 14.9341 8.13747 13.1525C6.35587 11.3709 5.35498 8.95451 5.35498 6.43496V0.204956H90.645V6.43496C90.645 7.68251 90.3992 8.91786 89.9218 10.0704C89.4444 11.223 88.7446 12.2703 87.8625 13.1525C86.0809 14.9341 83.6645 15.935 81.145 15.935ZM11.355 6.20496V6.43496C11.355 7.36321 11.7237 8.25345 12.3801 8.90983C13.0365 9.56621 13.9267 9.93496 14.855 9.93496H81.145C82.0732 9.93496 82.9635 9.56621 83.6199 8.90983C84.2762 8.25345 84.645 7.36321 84.645 6.43496V6.20496H11.355Z" fill="#14C4B3"/>
<path d="M90.645 95.7949H5.35498V89.5649C5.35498 87.0454 6.35587 84.629 8.13747 82.8474C9.91906 81.0658 12.3354 80.0649 14.855 80.0649H81.145C83.6645 80.0649 86.0809 81.0658 87.8625 82.8474C89.6441 84.629 90.645 87.0454 90.645 89.5649V95.7949ZM11.355 89.7949H84.645V89.5649C84.645 88.6367 84.2762 87.7464 83.6199 87.0901C82.9635 86.4337 82.0732 86.0649 81.145 86.0649H14.855C13.9267 86.0649 13.0365 86.4337 12.3801 87.0901C11.7237 87.7464 11.355 88.6367 11.355 89.5649V89.7949Z" fill="#14C4B3"/>
<path d="M17.675 85.23C16.8794 85.23 16.1163 84.9139 15.5537 84.3513C14.9911 83.7887 14.675 83.0257 14.675 82.23C14.675 66.2 24.15 59.06 30.42 54.335C34.03 51.61 36.245 49.835 36.245 48.025C36.245 46.215 34.035 44.45 30.43 41.735C24.16 37 14.675 29.865 14.675 13.77C14.675 12.9744 14.9911 12.2113 15.5537 11.6487C16.1163 11.0861 16.8794 10.77 17.675 10.77C18.4707 10.77 19.2338 11.0861 19.7964 11.6487C20.359 12.2113 20.675 12.9744 20.675 13.77C20.675 26.875 27.7751 32.22 34.04 36.94C38.26 40.12 42.245 43.12 42.245 48.025C42.245 52.93 38.245 55.94 34.03 59.125C27.77 63.845 20.675 69.19 20.675 82.23C20.675 83.0257 20.359 83.7887 19.7964 84.3513C19.2338 84.9139 18.4707 85.23 17.675 85.23Z" fill="#14C4B3"/>
<path d="M78.1 85.23C77.3044 85.23 76.5413 84.9139 75.9787 84.3513C75.4161 83.7887 75.1 83.0257 75.1 82.23C75.1 69.19 68.005 63.845 61.745 59.125C57.52 55.94 53.53 52.93 53.53 48.025C53.53 43.12 57.53 40.12 61.735 36.94C68 32.22 75.1 26.875 75.1 13.77C75.1 12.9744 75.4161 12.2113 75.9787 11.6487C76.5413 11.0861 77.3044 10.77 78.1 10.77C78.8957 10.77 79.6587 11.0861 80.2214 11.6487C80.784 12.2113 81.1 12.9744 81.1 13.77C81.1 29.865 71.6 37.005 65.345 41.735C61.74 44.45 59.53 46.205 59.53 48.025C59.53 49.845 61.745 51.61 65.36 54.335C71.625 59.06 81.1 66.2 81.1 82.23C81.1 83.0257 80.784 83.7887 80.2214 84.3513C79.6587 84.9139 78.8957 85.23 78.1 85.23Z" fill="#14C4B3"/>
</svg>
