<svg width="96" height="96" viewBox="0 0 96 96" fill="none" xmlns="http://www.w3.org/2000/svg">
<g clip-path="url(#clip0)">
<path d="M39.35 96.045H7.74501C7.21411 96.0447 6.69278 95.9036 6.23427 95.6359C5.77576 95.3683 5.39648 94.9838 5.13516 94.5217C4.87384 94.0595 4.73984 93.5363 4.74684 93.0055C4.75384 92.4746 4.9016 91.9551 5.17501 91.5L21 65.11C21.2662 64.6646 21.6435 64.2959 22.0948 64.0399C22.5461 63.7839 23.0561 63.6493 23.575 63.6493C24.0939 63.6493 24.6039 63.7839 25.0552 64.0399C25.5066 64.2959 25.8838 64.6646 26.15 65.11L41.925 91.5C42.1986 91.9555 42.3464 92.4754 42.3532 93.0067C42.36 93.538 42.2255 94.0615 41.9636 94.5238C41.7017 94.9861 41.3217 95.3706 40.8625 95.6378C40.4033 95.9051 39.8813 96.0456 39.35 96.045ZM13.04 90.045H34.04L23.55 72.5L13.04 90.045Z" fill="#006EBD"/>
<path d="M93.0501 95.62C92.6804 95.6203 92.3139 95.5508 91.9701 95.415L1.87506 60.76C1.13245 60.4742 0.533785 59.9052 0.210754 59.178C-0.112277 58.4508 -0.13321 57.6251 0.152561 56.8825C0.438331 56.1399 1.0074 55.5412 1.73457 55.2182C2.46174 54.8952 3.28745 54.8742 4.03006 55.16L94.1251 89.815C94.7822 90.0642 95.3309 90.5363 95.6756 91.1487C96.0203 91.7612 96.139 92.4753 96.011 93.1663C95.883 93.8573 95.5165 94.4815 94.9754 94.93C94.4342 95.3784 93.7528 95.6226 93.0501 95.62Z" fill="#006EBD"/>
<path d="M23.55 57.86C23.1345 57.8601 22.7236 57.774 22.3432 57.607C21.9627 57.44 21.6211 57.1959 21.34 56.89L2.26001 36.14C1.86602 35.7113 1.6053 35.1772 1.50964 34.6028C1.41398 34.0285 1.48752 33.4388 1.72128 32.9055C1.95504 32.3722 2.33893 31.9185 2.82613 31.5997C3.31332 31.2809 3.88276 31.1107 4.46501 31.11H12.79V8.95496C12.79 8.15931 13.1061 7.39625 13.6687 6.83364C14.2313 6.27103 14.9944 5.95496 15.79 5.95496C16.5857 5.95496 17.3487 6.27103 17.9113 6.83364C18.4739 7.39625 18.79 8.15931 18.79 8.95496V34.11C18.79 34.9056 18.4739 35.6687 17.9113 36.2313C17.3487 36.7939 16.5857 37.11 15.79 37.11H11.29L23.54 50.43L35.795 37.11H31.295C30.4994 37.11 29.7363 36.7939 29.1737 36.2313C28.6111 35.6687 28.295 34.9056 28.295 34.11V8.95496C28.295 8.15931 28.6111 7.39625 29.1737 6.83364C29.7363 6.27103 30.4994 5.95496 31.295 5.95496C32.0907 5.95496 32.8537 6.27103 33.4163 6.83364C33.9789 7.39625 34.295 8.15931 34.295 8.95496V31.11H42.63C43.2127 31.1097 43.7828 31.2792 44.2707 31.5977C44.7587 31.9161 45.1433 32.3698 45.3777 32.9032C45.6121 33.4367 45.6861 34.0268 45.5906 34.6016C45.4951 35.1764 45.2343 35.7109 44.84 36.14L25.755 56.89C25.4745 57.1952 25.1337 57.439 24.7541 57.606C24.3746 57.773 23.9646 57.8594 23.55 57.86Z" fill="#14C4B3"/>
<path d="M79.4251 37.86C78.6294 37.86 77.8664 37.5439 77.3038 36.9813C76.7412 36.4187 76.4251 35.6556 76.4251 34.86V23.71C76.4251 22.9143 76.7412 22.1513 77.3038 21.5886C77.8664 21.026 78.6294 20.71 79.4251 20.71H83.9251L71.6651 7.38997L59.4151 20.71H63.9151C64.7107 20.71 65.4738 21.026 66.0364 21.5886C66.599 22.1513 66.9151 22.9143 66.9151 23.71V34.86C66.9151 35.6556 66.599 36.4187 66.0364 36.9813C65.4738 37.5439 64.7107 37.86 63.9151 37.86C63.1194 37.86 62.3564 37.5439 61.7938 36.9813C61.2312 36.4187 60.9151 35.6556 60.9151 34.86V26.71H52.5851C52.0014 26.7111 51.4302 26.5419 50.9412 26.2232C50.4523 25.9045 50.0669 25.4501 49.8323 24.9157C49.5977 24.3813 49.5242 23.79 49.6206 23.2144C49.717 22.6388 49.9792 22.1038 50.3751 21.675L69.4551 0.924967C69.7361 0.618846 70.0777 0.374445 70.4581 0.207255C70.8385 0.0400661 71.2495 -0.0462646 71.6651 -0.0462646C72.0806 -0.0462646 72.4917 0.0400661 72.8721 0.207255C73.2525 0.374445 73.5941 0.618846 73.8751 0.924967L92.9551 21.675C93.351 22.1038 93.6132 22.6388 93.7096 23.2144C93.806 23.79 93.7324 24.3813 93.4979 24.9157C93.2633 25.4501 92.8779 25.9045 92.389 26.2232C91.9 26.5419 91.3287 26.7111 90.7451 26.71H82.4251V34.86C82.4251 35.6556 82.109 36.4187 81.5464 36.9813C80.9838 37.5439 80.2207 37.86 79.4251 37.86Z" fill="#006EBD"/>
<path d="M73.1801 63.0349V64.2899C73.1922 64.5059 73.1601 64.7221 73.0858 64.9252C73.0115 65.1284 72.8965 65.3142 72.7479 65.4714C72.5993 65.6286 72.4202 65.7538 72.2216 65.8394C72.0229 65.9249 71.8089 65.9691 71.5926 65.9691C71.3762 65.9691 71.1622 65.9249 70.9636 65.8394C70.7649 65.7538 70.5858 65.6286 70.4372 65.4714C70.2886 65.3142 70.1736 65.1284 70.0993 64.9252C70.025 64.7221 69.9929 64.5059 70.005 64.2899V63.0349C68.1923 62.8881 66.4391 62.3197 64.8851 61.3749C64.5437 61.1844 64.2597 60.9057 64.0627 60.568C63.8657 60.2303 63.7629 59.8459 63.765 59.4549C63.765 58.8599 63.9997 58.2888 64.4181 57.8657C64.8366 57.4425 65.405 57.2015 66 57.1949C66.4257 57.1866 66.8439 57.3068 67.2 57.5399C68.5915 58.4345 70.2108 58.9101 71.865 58.9099C73.5251 58.9099 74.5851 58.1949 74.5851 57.2799C74.5851 56.1949 73.3251 55.7799 71.295 55.3349C68.175 54.7049 63.765 53.9049 63.765 49.3799C63.765 46.5199 65.915 44.0299 70.005 43.5149V42.1449C69.9929 41.929 70.025 41.7128 70.0993 41.5097C70.1736 41.3065 70.2886 41.1207 70.4372 40.9635C70.5858 40.8063 70.7649 40.6811 70.9636 40.5955C71.1622 40.51 71.3762 40.4658 71.5926 40.4658C71.8089 40.4658 72.0229 40.51 72.2216 40.5955C72.4202 40.6811 72.5993 40.8063 72.7479 40.9635C72.8965 41.1207 73.0115 41.3065 73.0858 41.5097C73.1601 41.7128 73.1922 41.929 73.1801 42.1449V43.4999C74.7054 43.6647 76.1889 44.1016 77.5601 44.7899C78.0076 45.0141 78.3662 45.3828 78.5778 45.8364C78.7894 46.2899 78.8416 46.8017 78.7258 47.2886C78.61 47.7755 78.333 48.209 77.9399 48.5187C77.5468 48.8285 77.0605 48.9963 76.5601 48.9949C76.202 48.9875 75.8502 48.9004 75.5301 48.7399C74.2228 48.071 72.7871 47.6907 71.3201 47.6249C69.4051 47.6249 68.7751 48.2799 68.7751 49.1249C68.7751 50.1249 69.9501 50.4699 72.0651 50.8749C75.2151 51.5299 79.5651 52.4449 79.5651 56.7699C79.5651 60.1699 77.3301 62.5449 73.1801 63.0349Z" fill="#14C4B3"/>
<path d="M71.665 75.78C67.202 75.78 62.8393 74.4566 59.1285 71.9771C55.4177 69.4977 52.5255 65.9735 50.8176 61.8503C49.1098 57.7271 48.6629 53.19 49.5336 48.8128C50.4042 44.4356 52.5534 40.4149 55.7091 37.2592C58.8649 34.1034 62.8856 31.9543 67.2628 31.0836C71.64 30.2129 76.177 30.6598 80.3002 32.3677C84.4235 34.0756 87.9476 36.9678 90.4271 40.6786C92.9066 44.3894 94.23 48.7521 94.23 53.215C94.2247 59.198 91.8456 64.9344 87.615 69.1651C83.3844 73.3957 77.648 75.7747 71.665 75.78ZM71.665 37.09C68.4746 37.09 65.3558 38.0362 62.7031 39.8088C60.0504 41.5814 57.983 44.1008 56.7623 47.0485C55.5416 49.9962 55.2225 53.2396 55.8453 56.3687C56.4681 59.4977 58.0048 62.3718 60.2611 64.6274C62.5174 66.8831 65.392 68.4189 68.5212 69.0407C71.6505 69.6625 74.8938 69.3424 77.8411 68.1208C80.7884 66.8992 83.3072 64.831 85.079 62.1777C86.8508 59.5245 87.796 56.4055 87.795 53.215C87.7897 48.9392 86.0884 44.84 83.0645 41.817C80.0405 38.794 75.9408 37.094 71.665 37.09Z" fill="#14C4B3"/>
</g>
<defs>
<clipPath id="clip0">
<rect width="96" height="96" fill="white"/>
</clipPath>
</defs>
</svg>
