<svg width="96" height="96" viewBox="0 0 96 96" fill="none" xmlns="http://www.w3.org/2000/svg">
<g clip-path="url(#clip0)">
<path d="M48 50.16C47.2053 50.1607 46.4429 49.846 45.88 49.285L38.88 42.285C38.5853 42.0104 38.3488 41.6792 38.1849 41.3112C38.0209 40.9432 37.9327 40.5459 37.9256 40.1431C37.9185 39.7403 37.9926 39.3402 38.1435 38.9667C38.2944 38.5931 38.519 38.2538 38.8039 37.9689C39.0887 37.684 39.4281 37.4594 39.8016 37.3086C40.1752 37.1577 40.5753 37.0836 40.9781 37.0907C41.3809 37.0978 41.7782 37.186 42.1462 37.3499C42.5142 37.5139 42.8454 37.7503 43.12 38.045L48 42.92L52.86 38.06C53.1347 37.7653 53.4659 37.5289 53.8339 37.3649C54.2019 37.201 54.5991 37.1128 55.0019 37.1057C55.4047 37.0986 55.8048 37.1727 56.1784 37.3236C56.5519 37.4744 56.8913 37.699 57.1762 37.9839C57.461 38.2688 57.6856 38.6081 57.8365 38.9817C57.9874 39.3552 58.0615 39.7553 58.0544 40.1581C58.0473 40.5609 57.9591 40.9582 57.7951 41.3262C57.6312 41.6942 57.3948 42.0254 57.1 42.3L50.1 49.3C49.5417 49.8538 48.7864 50.1632 48 50.16Z" fill="#006EBD"/>
<path d="M48 66.215C47.2044 66.215 46.4413 65.899 45.8787 65.3363C45.3161 64.7737 45 64.0107 45 63.215V47.16C45 46.3644 45.3161 45.6013 45.8787 45.0387C46.4413 44.4761 47.2044 44.16 48 44.16C48.7956 44.16 49.5587 44.4761 50.1213 45.0387C50.6839 45.6013 51 46.3644 51 47.16V63.215C51 64.0107 50.6839 64.7737 50.1213 65.3363C49.5587 65.899 48.7956 66.215 48 66.215Z" fill="#006EBD"/>
<path d="M58.88 66.215H37.12C36.3243 66.215 35.5613 65.899 34.9987 65.3364C34.436 64.7738 34.12 64.0107 34.12 63.2151V56.1051C30.1914 53.1865 27.2827 49.1038 25.8075 44.4373C24.3323 39.7709 24.3656 34.7582 25.9027 30.1117C27.4397 25.4653 30.4023 21.4216 34.3693 18.5555C38.3364 15.6893 43.1059 14.1466 48 14.1466C52.894 14.1466 57.6636 15.6893 61.6306 18.5555C65.5976 21.4216 68.5602 25.4653 70.0973 30.1117C71.6344 34.7582 71.6676 39.7709 70.1924 44.4373C68.7172 49.1038 65.8086 53.1865 61.88 56.1051V63.2151C61.88 64.0107 61.5639 64.7738 61.0013 65.3364C60.4387 65.899 59.6756 66.215 58.88 66.215ZM40.12 60.2151H55.88V54.5301C55.8802 54.0255 56.0077 53.5291 56.2507 53.0869C56.4936 52.6446 56.8442 52.2708 57.27 52.0001C60.4255 49.9934 62.8447 47.0169 64.164 43.5179C65.4834 40.0189 65.6318 36.1862 64.5868 32.5956C63.5418 29.0051 61.36 25.8505 58.369 23.606C55.3781 21.3614 51.7395 20.1479 48 20.1479C44.2605 20.1479 40.6219 21.3614 37.6309 23.606C34.64 25.8505 32.4581 29.0051 31.4132 32.5956C30.3682 36.1862 30.5165 40.0189 31.8359 43.5179C33.1553 47.0169 35.5745 49.9934 38.73 52.0001C39.1557 52.2708 39.5063 52.6446 39.7493 53.0869C39.9922 53.5291 40.1197 54.0255 40.12 54.5301V60.2151Z" fill="#14C4B3"/>
<path d="M58.13 73.885H37.87C37.0743 73.885 36.3113 73.5689 35.7487 73.0063C35.1861 72.4437 34.87 71.6807 34.87 70.885C34.87 70.0894 35.1861 69.3263 35.7487 68.7637C36.3113 68.2011 37.0743 67.885 37.87 67.885H58.13C58.9256 67.885 59.6887 68.2011 60.2513 68.7637C60.8139 69.3263 61.13 70.0894 61.13 70.885C61.13 71.6807 60.8139 72.4437 60.2513 73.0063C59.6887 73.5689 58.9256 73.885 58.13 73.885Z" fill="#14C4B3"/>
<path d="M46.9 11.635C46.1044 11.635 45.3413 11.3189 44.7787 10.7563C44.2161 10.1937 43.9 9.43063 43.9 8.63498V3.10498C43.9 2.30933 44.2161 1.54627 44.7787 0.98366C45.3413 0.421051 46.1044 0.10498 46.9 0.10498C47.6957 0.10498 48.4587 0.421051 49.0213 0.98366C49.584 1.54627 49.9 2.30933 49.9 3.10498V8.63498C49.9 9.43063 49.584 10.1937 49.0213 10.7563C48.4587 11.3189 47.6957 11.635 46.9 11.635Z" fill="#006EBD"/>
<path d="M25.73 20.895C25.3343 20.8934 24.9428 20.8134 24.5781 20.6598C24.2134 20.5062 23.8827 20.282 23.605 20L19.695 16.09C19.1396 15.5262 18.8295 14.7657 18.8323 13.9743C18.835 13.1829 19.1504 12.4246 19.7097 11.8647C20.269 11.3047 21.0269 10.9885 21.8183 10.9848C22.6097 10.9811 23.3706 11.2903 23.935 11.845L27.85 15.76C28.2691 16.1796 28.5544 16.7139 28.6699 17.2955C28.7854 17.8771 28.726 18.4799 28.4992 19.0277C28.2723 19.5756 27.8882 20.0439 27.3954 20.3736C26.9025 20.7033 26.323 20.8795 25.73 20.88V20.895Z" fill="#006EBD"/>
<path d="M19.025 41.0551H13.5C12.7044 41.0551 11.9413 40.739 11.3787 40.1764C10.8161 39.6138 10.5 38.8507 10.5 38.0551C10.5 37.2594 10.8161 36.4963 11.3787 35.9337C11.9413 35.3711 12.7044 35.0551 13.5 35.0551H19.025C19.8206 35.0551 20.5837 35.3711 21.1463 35.9337C21.7089 36.4963 22.025 37.2594 22.025 38.0551C22.025 38.8507 21.7089 39.6138 21.1463 40.1764C20.5837 40.739 19.8206 41.0551 19.025 41.0551Z" fill="#006EBD"/>
<path d="M70.2699 20.895C69.677 20.8945 69.0975 20.7183 68.6046 20.3886C68.1117 20.0589 67.7276 19.5906 67.5008 19.0427C67.274 18.4949 67.2145 17.8921 67.3301 17.3105C67.4456 16.7289 67.7309 16.1946 68.1499 15.775L72.0649 11.86C72.6294 11.3053 73.3902 10.9961 74.1817 10.9998C74.9731 11.0035 75.731 11.3197 76.2903 11.8797C76.8496 12.4396 77.1649 13.1979 77.1677 13.9893C77.1704 14.7808 76.8603 15.5412 76.3049 16.105L72.3949 20C72.1173 20.282 71.7866 20.5062 71.4219 20.6598C71.0572 20.8134 70.6657 20.8934 70.2699 20.895Z" fill="#006EBD"/>
<path d="M82.5 41.0551H77C76.2044 41.0551 75.4413 40.739 74.8787 40.1764C74.3161 39.6138 74 38.8507 74 38.0551C74 37.2594 74.3161 36.4963 74.8787 35.9337C75.4413 35.3711 76.2044 35.0551 77 35.0551H82.5C83.2956 35.0551 84.0587 35.3711 84.6213 35.9337C85.1839 36.4963 85.5 37.2594 85.5 38.0551C85.5 38.8507 85.1839 39.6138 84.6213 40.1764C84.0587 40.739 83.2956 41.0551 82.5 41.0551Z" fill="#006EBD"/>
<path d="M77.36 73.885H18.64C17.8444 73.885 17.0813 73.5689 16.5187 73.0063C15.9561 72.4437 15.64 71.6807 15.64 70.885C15.64 70.0894 15.9561 69.3263 16.5187 68.7637C17.0813 68.2011 17.8444 67.885 18.64 67.885H77.36C78.1557 67.885 78.9187 68.2011 79.4813 68.7637C80.0439 69.3263 80.36 70.0894 80.36 70.885C80.36 71.6807 80.0439 72.4437 79.4813 73.0063C78.9187 73.5689 78.1557 73.885 77.36 73.885Z" fill="#14C4B3"/>
<path d="M56 81.5551H40C39.2044 81.5551 38.4413 81.239 37.8787 80.6764C37.3161 80.1138 37 79.3507 37 78.5551C37 77.7594 37.3161 76.9963 37.8787 76.4337C38.4413 75.8711 39.2044 75.5551 40 75.5551H56C56.7956 75.5551 57.5587 75.8711 58.1213 76.4337C58.6839 76.9963 59 77.7594 59 78.5551C59 79.3507 58.6839 80.1138 58.1213 80.6764C57.5587 81.239 56.7956 81.5551 56 81.5551Z" fill="#14C4B3"/>
<path d="M53.5 89.22H42.5C41.7044 89.22 40.9413 88.9039 40.3787 88.3413C39.8161 87.7787 39.5 87.0156 39.5 86.22C39.5 85.4243 39.8161 84.6613 40.3787 84.0986C40.9413 83.536 41.7044 83.22 42.5 83.22H53.5C54.2956 83.22 55.0587 83.536 55.6213 84.0986C56.1839 84.6613 56.5 85.4243 56.5 86.22C56.5 87.0156 56.1839 87.7787 55.6213 88.3413C55.0587 88.9039 54.2956 89.22 53.5 89.22Z" fill="#14C4B3"/>
<path d="M26.755 83H11.785C10.9894 83 10.2263 82.684 9.66371 82.1213C9.10111 81.5587 8.78503 80.7957 8.78503 80V70.895C8.78503 70.0994 9.10111 69.3363 9.66371 68.7737C10.2263 68.2111 10.9894 67.895 11.785 67.895H26.755C27.5507 67.895 28.3137 68.2111 28.8764 68.7737C29.439 69.3363 29.755 70.0994 29.755 70.895V80C29.755 80.7957 29.439 81.5587 28.8764 82.1213C28.3137 82.684 27.5507 83 26.755 83ZM14.785 77H23.755V73.895H14.785V77Z" fill="#14C4B3"/>
<path d="M26.7549 73.895H11.7849C11.3884 73.895 10.9959 73.8165 10.6299 73.6638C10.264 73.5112 9.93191 73.2875 9.65294 73.0058C9.37397 72.724 9.15362 72.3897 9.00463 72.0223C8.85565 71.6548 8.78098 71.2615 8.78494 70.865C8.85994 62.99 11.2249 56.895 16.9399 49.825C17.2212 49.4773 17.5766 49.1969 17.9801 49.0043C18.3837 48.8116 18.8252 48.7117 19.2724 48.7117C19.7196 48.7117 20.1612 48.8116 20.5647 49.0043C20.9683 49.1969 21.3237 49.4773 21.6049 49.825C27.3199 56.895 29.6799 62.99 29.7549 70.865C29.7589 71.2615 29.6842 71.6548 29.5352 72.0223C29.3863 72.3897 29.1659 72.724 28.8869 73.0058C28.608 73.2875 28.2759 73.5112 27.91 73.6638C27.544 73.8165 27.1514 73.895 26.7549 73.895ZM14.9649 67.895H23.5749C23.1199 63.93 21.7899 60.47 19.2699 56.73C16.7499 60.47 15.4199 63.93 14.9649 67.895Z" fill="#14C4B3"/>
<path d="M84.215 83H69.245C68.4493 83 67.6863 82.684 67.1237 82.1213C66.5611 81.5587 66.245 80.7957 66.245 80V70.895C66.245 70.0994 66.5611 69.3363 67.1237 68.7737C67.6863 68.2111 68.4493 67.895 69.245 67.895H84.215C85.0106 67.895 85.7737 68.2111 86.3363 68.7737C86.8989 69.3363 87.215 70.0994 87.215 70.895V80C87.215 80.7957 86.8989 81.5587 86.3363 82.1213C85.7737 82.684 85.0106 83 84.215 83ZM72.245 77H81.215V73.895H72.245V77Z" fill="#14C4B3"/>
<path d="M84.215 73.895H69.245C68.8485 73.895 68.4559 73.8165 68.09 73.6638C67.7241 73.5112 67.392 73.2875 67.113 73.0058C66.834 72.724 66.6137 72.3897 66.4647 72.0223C66.3157 71.6548 66.2411 71.2615 66.245 70.865C66.32 62.99 68.68 56.895 74.395 49.825C74.6762 49.4773 75.0316 49.1969 75.4352 49.0043C75.8388 48.8116 76.2803 48.7117 76.7275 48.7117C77.1747 48.7117 77.6162 48.8116 78.0198 49.0043C78.4234 49.1969 78.7788 49.4773 79.06 49.825C84.775 56.895 87.14 62.99 87.215 70.865C87.219 71.2615 87.1443 71.6548 86.9953 72.0223C86.8463 72.3897 86.626 72.724 86.347 73.0058C86.068 73.2875 85.736 73.5112 85.37 73.6638C85.0041 73.8165 84.6115 73.895 84.215 73.895ZM72.425 67.895H81.035C80.58 63.93 79.25 60.47 76.73 56.73C74.21 60.47 72.88 63.93 72.425 67.895Z" fill="#14C4B3"/>
<path d="M30.305 95.9999H24.305C24.2638 94.6927 23.7155 93.4528 22.7762 92.5427C21.837 91.6325 20.5804 91.1236 19.2725 91.1236C17.9646 91.1236 16.708 91.6325 15.7687 92.5427C14.8295 93.4528 14.2812 94.6927 14.24 95.9999H8.23999C8.30142 93.1146 9.49075 90.3682 11.5531 88.3493C13.6154 86.3304 16.3865 85.1998 19.2725 85.1998C22.1585 85.1998 24.9296 86.3304 26.9919 88.3493C29.0542 90.3682 30.2436 93.1146 30.305 95.9999Z" fill="#006EBD"/>
<path d="M14.24 96H8.23996C8.23996 95.7302 8.13276 95.4714 7.94194 95.2806C7.75112 95.0897 7.49231 94.9825 7.22246 94.9825C6.9526 94.9825 6.69379 95.0897 6.50297 95.2806C6.31216 95.4714 6.20496 95.7302 6.20496 96H0.204956C0.204956 94.1389 0.944298 92.354 2.26033 91.0379C3.57637 89.7219 5.3613 88.9825 7.22246 88.9825C9.08361 88.9825 10.8685 89.7219 12.1846 91.0379C13.5006 92.354 14.24 94.1389 14.24 96Z" fill="#006EBD"/>
<path d="M38.3351 96H32.3351C32.3351 95.7308 32.2281 95.4726 32.0378 95.2823C31.8474 95.0919 31.5892 94.985 31.3201 94.985C31.0509 94.985 30.7927 95.0919 30.6023 95.2823C30.412 95.4726 30.3051 95.7308 30.3051 96H24.3051C24.3051 94.1395 25.0441 92.3552 26.3597 91.0396C27.6753 89.7241 29.4596 88.985 31.3201 88.985C33.1805 88.985 34.9648 89.7241 36.2804 91.0396C37.596 92.3552 38.3351 94.1395 38.3351 96Z" fill="#006EBD"/>
<path d="M87.7599 95.9999H81.7599C81.7187 94.6927 81.1705 93.4528 80.2312 92.5427C79.2919 91.6325 78.0353 91.1236 76.7274 91.1236C75.4196 91.1236 74.163 91.6325 73.2237 92.5427C72.2844 93.4528 71.7362 94.6927 71.6949 95.9999H65.6949C65.7564 93.1146 66.9457 90.3682 69.008 88.3493C71.0703 86.3304 73.8415 85.1998 76.7274 85.1998C79.6134 85.1998 82.3846 86.3304 84.4469 88.3493C86.5092 90.3682 87.6985 93.1146 87.7599 95.9999Z" fill="#006EBD"/>
<path d="M71.695 96H65.695C65.695 95.8667 65.6688 95.7347 65.6178 95.6116C65.5668 95.4884 65.492 95.3765 65.3978 95.2823C65.3035 95.188 65.1916 95.1133 65.0685 95.0622C64.9453 95.0112 64.8133 94.985 64.68 94.985C64.5467 94.985 64.4148 95.0112 64.2916 95.0622C64.1685 95.1133 64.0566 95.188 63.9623 95.2823C63.8681 95.3765 63.7933 95.4884 63.7423 95.6116C63.6913 95.7347 63.665 95.8667 63.665 96H57.665C57.665 94.1395 58.4041 92.3552 59.7197 91.0396C61.0353 89.7241 62.8195 88.985 64.68 88.985C66.5405 88.985 68.3248 89.7241 69.6404 91.0396C70.956 92.3552 71.695 94.1395 71.695 96Z" fill="#006EBD"/>
<path d="M95.795 96H89.795C89.795 95.7302 89.6878 95.4714 89.497 95.2806C89.3062 95.0897 89.0474 94.9825 88.7775 94.9825C88.5076 94.9825 88.2488 95.0897 88.058 95.2806C87.8672 95.4714 87.76 95.7302 87.76 96H81.76C81.76 94.1389 82.4993 92.354 83.8154 91.0379C85.1314 89.7219 86.9163 88.9825 88.7775 88.9825C90.6387 88.9825 92.4236 89.7219 93.7396 91.0379C95.0557 92.354 95.795 94.1389 95.795 96Z" fill="#006EBD"/>
</g>
<defs>
<clipPath id="clip0">
<rect width="96" height="96" fill="white"/>
</clipPath>
</defs>
</svg>
