<svg width="96" height="96" viewBox="0 0 96 96" fill="none" xmlns="http://www.w3.org/2000/svg">
<path d="M77.0999 94.88H48.4999C47.4388 94.8816 46.3863 94.6884 45.3949 94.31L29.1349 88.17C28.3903 87.8895 27.7877 87.3248 27.4595 86.5999C27.1313 85.8751 27.1045 85.0496 27.3849 84.305C27.6654 83.5604 28.2302 82.9577 28.955 82.6295C29.6798 82.3013 30.5053 82.2745 31.2499 82.555L47.4999 88.7C47.82 88.8187 48.1586 88.8796 48.4999 88.88H77.0999C77.8417 88.8787 78.5526 88.5831 79.0766 88.0581C79.6006 87.5332 79.8949 86.8217 79.8949 86.08V86C79.8936 85.2591 79.5987 84.549 79.0749 84.0251C78.551 83.5012 77.8408 83.2063 77.0999 83.205H74.6499C73.8543 83.205 73.0912 82.8889 72.5286 82.3263C71.966 81.7637 71.6499 81.0006 71.6499 80.205C71.6499 79.4093 71.966 78.6463 72.5286 78.0837C73.0912 77.5211 73.8543 77.205 74.6499 77.205H82.955C83.6967 77.2037 84.4076 76.9081 84.9316 76.3831C85.4556 75.8582 85.75 75.1467 85.75 74.405V74.355C85.75 73.6133 85.4556 72.9018 84.9316 72.3769C84.4076 71.8519 83.6967 71.5563 82.955 71.555H74.6499C73.8543 71.555 73.0912 71.2389 72.5286 70.6763C71.966 70.1137 71.6499 69.3506 71.6499 68.555C71.6499 67.7593 71.966 66.9963 72.5286 66.4337C73.0912 65.8711 73.8543 65.555 74.6499 65.555H82.955C83.6764 65.5245 84.3582 65.2164 84.8579 64.6951C85.3577 64.1738 85.6367 63.4796 85.6367 62.7575C85.6367 62.0354 85.3577 61.3412 84.8579 60.8199C84.3582 60.2986 83.6764 59.9905 82.955 59.96H75.1649C74.3693 59.96 73.6062 59.6439 73.0436 59.0813C72.481 58.5187 72.1649 57.7556 72.1649 56.96C72.1649 56.1643 72.481 55.4013 73.0436 54.8387C73.6062 54.2761 74.3693 53.96 75.1649 53.96H82.955C83.6958 53.9587 84.406 53.6638 84.9299 53.1399C85.4537 52.616 85.7486 51.9059 85.75 51.165V50.795C85.75 50.0533 85.4556 49.3418 84.9316 48.8169C84.4076 48.2919 83.6967 47.9963 82.955 47.995H54.1599C53.3643 47.995 52.6012 47.6789 52.0386 47.1163C51.476 46.5537 51.1599 45.7906 51.1599 44.995C51.1599 44.1993 51.476 43.4363 52.0386 42.8737C52.6012 42.3111 53.3643 41.995 54.1599 41.995H82.955C85.2876 41.9976 87.5238 42.9258 89.1728 44.5757C90.8217 46.2256 91.7486 48.4624 91.75 50.795V51.165C91.7608 53.312 90.9833 55.3882 89.565 57C90.973 58.6031 91.7496 60.6638 91.7496 62.7975C91.7496 64.9312 90.973 66.9919 89.565 68.595C90.9753 70.1977 91.7523 72.2601 91.75 74.395V74.445C91.7524 76.3686 91.126 78.2403 89.966 79.7748C88.8061 81.3094 87.1763 82.4227 85.3249 82.945C85.7039 83.9415 85.897 84.9989 85.8949 86.065V86.125C85.8804 88.4494 84.9479 90.6739 83.3005 92.3138C81.6531 93.9537 79.4244 94.8761 77.0999 94.88Z" fill="#14C4B3"/>
<path d="M30.19 49.16C29.3944 49.1859 28.621 48.8946 28.0402 48.3503C27.4593 47.806 27.1184 47.0532 27.0925 46.2575C27.0667 45.4619 27.3579 44.6885 27.9023 44.1076C28.4466 43.5267 29.1994 43.1859 29.995 43.16C30.725 43.105 46.41 41.595 50.89 16.715C51.0757 15.6572 51.5971 14.6873 52.3769 13.9489C53.1568 13.2104 54.1537 12.7427 55.22 12.615C59.535 12.065 63.28 13.37 65.765 16.3C70.21 21.54 70.24 31.215 65.85 45.87C65.7471 46.2586 65.567 46.6226 65.3207 46.9402C65.0743 47.2579 64.7666 47.5228 64.4158 47.7192C64.065 47.9156 63.6784 48.0395 63.2788 48.0836C62.8792 48.1276 62.4748 48.0909 62.0897 47.9756C61.7045 47.8603 61.3465 47.6687 61.0369 47.4124C60.7272 47.156 60.4723 46.84 60.2871 46.4831C60.102 46.1263 59.9905 45.7359 59.9592 45.3351C59.9279 44.9343 59.9775 44.5313 60.105 44.15C64.965 27.91 62.87 22.15 61.19 20.18C59.945 18.715 58.15 18.425 56.66 18.505C51.1 47.585 31.22 49.1 30.37 49.155L30.19 49.16Z" fill="#14C4B3"/>
<path d="M26.255 95.65H7.255C6.45936 95.65 5.69629 95.3339 5.13368 94.7713C4.57108 94.2087 4.255 93.4456 4.255 92.65V39.2C4.255 38.4043 4.57108 37.6412 5.13368 37.0786C5.69629 36.516 6.45936 36.2 7.255 36.2H26.255C28.0943 36.2013 29.858 36.9322 31.1591 38.2323C32.4602 39.5325 33.1924 41.2956 33.195 43.1349V88.715C33.1924 90.5543 32.4602 92.3175 31.1591 93.6176C29.858 94.9177 28.0943 95.6486 26.255 95.65ZM10.255 89.65H26.255C26.5034 89.65 26.7418 89.5516 26.9179 89.3764C27.0941 89.2012 27.1937 88.9634 27.195 88.715V43.1349C27.1937 42.8865 27.0941 42.6487 26.9179 42.4735C26.7418 42.2983 26.5034 42.1999 26.255 42.2H10.255V89.65Z" fill="#006EBD"/>
<path d="M18.79 83.525C20.6125 83.525 22.09 82.0476 22.09 80.225C22.09 78.4025 20.6125 76.925 18.79 76.925C16.9675 76.925 15.49 78.4025 15.49 80.225C15.49 82.0476 16.9675 83.525 18.79 83.525Z" fill="#14C4B3"/>
<path d="M59.22 10.555C58.4243 10.555 57.6613 10.2389 57.0986 9.6763C56.536 9.11369 56.22 8.35063 56.22 7.55498V3.34998C56.22 2.55433 56.536 1.79126 57.0986 1.22866C57.6613 0.666046 58.4243 0.349976 59.22 0.349976C60.0156 0.349976 60.7787 0.666046 61.3413 1.22866C61.9039 1.79126 62.22 2.55433 62.22 3.34998V7.55498C62.22 8.35063 61.9039 9.11369 61.3413 9.6763C60.7787 10.2389 60.0156 10.555 59.22 10.555Z" fill="#006EBD"/>
<path d="M74.1549 17.59C73.562 17.5894 72.9825 17.4132 72.4896 17.0835C71.9968 16.7539 71.6126 16.2855 71.3858 15.7377C71.159 15.1898 71.0996 14.587 71.2151 14.0054C71.3306 13.4238 71.6159 12.8895 72.035 12.47L75.035 9.46996C75.6037 8.94004 76.3558 8.65155 77.133 8.66526C77.9102 8.67898 78.6518 8.99382 79.2014 9.54347C79.7511 10.0931 80.0659 10.8347 80.0796 11.6119C80.0934 12.3891 79.8049 13.1413 79.2749 13.71L76.3 16.71C76.0187 16.9916 75.6842 17.2145 75.3159 17.3656C74.9476 17.5166 74.553 17.5929 74.1549 17.59Z" fill="#006EBD"/>
<path d="M44.29 17.59C43.8953 17.5903 43.5045 17.5127 43.1398 17.3617C42.7752 17.2107 42.4439 16.9893 42.165 16.71L39.165 13.71C38.6385 13.1377 38.3548 12.3832 38.3737 11.6058C38.3926 10.8283 38.7128 10.0886 39.2665 9.54256C39.8203 8.99655 40.5645 8.68693 41.3422 8.67899C42.1198 8.67105 42.8702 8.96541 43.435 9.5L46.41 12.5C46.829 12.9195 47.1143 13.4539 47.2299 14.0355C47.3454 14.6171 47.286 15.2198 47.0592 15.7677C46.8323 16.3155 46.4482 16.7839 45.9553 17.1136C45.4625 17.4433 44.883 17.6195 44.29 17.62V17.59Z" fill="#006EBD"/>
</svg>
