<svg width="64" height="64" viewBox="0 0 64 64" fill="none" xmlns="http://www.w3.org/2000/svg">
<path fill-rule="evenodd" clip-rule="evenodd" d="M25.4547 14.1471L27.6329 9.77634L25.1861 8.53287C23.6244 7.78598 23.0133 5.88479 23.7602 4.32311C24.5071 2.76142 26.4083 2.15033 27.97 2.89722L30.4366 4.15073L31.6365 1.74303C32.3834 0.181339 34.2846 -0.429755 35.8463 0.317138C37.408 1.06403 38.019 2.96521 37.2722 4.5269L31.092 16.9276L32.5191 17.6316C34.0129 18.3785 32.2476 24.4894 30.6859 23.7425L28.2833 22.5633L26.8835 25.372C26.1367 26.9337 24.2355 27.5448 22.6738 26.7979C21.1121 25.9831 20.501 24.0819 21.2479 22.5881L22.6405 19.7939L19.6183 18.3106C18.0566 17.5637 17.4455 15.6625 18.2603 14.1008C19.0072 12.5391 20.9083 11.928 22.47 12.6749L25.4547 14.1471ZM37.8624 14.9157L31.5008 27.6806C30.7539 29.2422 31.365 31.1434 32.9267 31.8903C34.4883 32.6372 36.3895 32.0261 37.1364 30.4644L38.3612 28.0068L40.8711 29.2425C42.4327 29.9894 44.3339 29.3783 45.0808 27.8166C45.8277 26.2549 45.2166 24.3537 43.6549 23.6068L41.165 22.381L43.4688 17.7583L46.0313 19.0576C47.5251 19.8045 49.3583 19.1255 50.1731 17.5638C50.92 16.0021 50.3768 14.1009 48.883 13.3541L46.319 12.0392L47.525 9.61931C48.2719 8.05762 47.6608 6.15644 46.0991 5.40955C44.5375 4.66266 42.6363 5.27375 41.8894 6.83544L40.7255 9.17072L38.2907 7.9221C36.7969 7.1752 34.8958 13.422 36.3896 14.1688L37.8624 14.9157ZM15.0691 34.7419L28.7848 60.8153C29.6675 62.5128 31.7045 63.1238 33.402 62.3091C35.0995 61.4264 35.7106 59.3894 34.8279 57.6919L21.1122 31.5506C20.2295 29.8531 18.1925 29.242 16.495 30.1247C14.7975 31.0074 14.1864 33.0444 15.0691 34.7419ZM34.2846 46.6923L39.7844 35.6926C40.5992 33.9951 42.7041 33.3161 44.3337 34.1309C46.0312 34.9457 46.7101 37.0505 45.8954 38.6801L36.661 57.2167L34.3525 52.7353C33.334 50.8341 33.334 48.5934 34.2846 46.6923Z" fill="url(#paint0_radial)"/>
<defs>
<radialGradient id="paint0_radial" cx="0" cy="0" r="1" gradientUnits="userSpaceOnUse" gradientTransform="translate(18.2507 3.65555) rotate(76.3454) scale(60.7274 53.3928)">
<stop offset="0.213542" stop-color="#35CFFF"/>
<stop offset="0.677083" stop-color="#B71DFF"/>
<stop offset="0.921875" stop-color="#FF006B"/>
</radialGradient>
</defs>
</svg>
